%FSLAX44Y44*%
%MOMM*%
G71*
G01*
G75*
G04 Layer_Color=16711935*
%ADD10R,1.0000X1.3000*%
%ADD11R,1.5000X0.6500*%
%ADD12R,1.3000X1.0000*%
%ADD13R,1.5000X1.5000*%
%ADD14R,1.5000X1.5000*%
%ADD15R,1.0000X2.5000*%
%ADD16R,1.0000X3.5000*%
%ADD17R,2.7000X3.0000*%
%ADD18R,1.1000X3.7900*%
%ADD19R,1.4000X3.5000*%
%ADD20O,2.1000X0.3000*%
%ADD21O,0.3000X2.1000*%
%ADD22O,2.1000X0.7000*%
%ADD23R,0.6500X1.5000*%
%ADD24R,0.5500X1.6500*%
%ADD25R,1.3000X1.2500*%
%ADD26C,1.0000*%
%ADD27R,0.3000X1.5000*%
%ADD28R,1.5000X0.3000*%
%ADD29R,5.0000X2.1000*%
%ADD30R,1.2000X1.2000*%
%ADD31R,1.2000X1.2000*%
%ADD32C,0.2000*%
%ADD33C,0.3000*%
%ADD34C,0.5000*%
%ADD35C,0.8000*%
%ADD36C,0.5500*%
%ADD37C,1.0000*%
%ADD38C,1.7000*%
%ADD39C,0.6500*%
%ADD40C,0.2500*%
%ADD41C,5.0000*%
%ADD42C,1.5000*%
%ADD43C,1.5000*%
%ADD44R,1.5000X1.5000*%
%ADD45C,1.6000*%
%ADD46C,2.9500*%
%ADD47C,2.9500*%
%ADD48C,2.2000*%
%ADD49C,1.7000*%
%ADD50C,1.6500*%
%ADD51R,1.6500X1.6500*%
%ADD52C,0.9000*%
%ADD53C,1.3000*%
%ADD54O,2.0000X4.0000*%
%ADD55O,4.0000X2.0000*%
%ADD56O,4.5000X2.0000*%
%ADD57R,5.0000X5.0000*%
%ADD58C,0.7000*%
%ADD59C,0.6000*%
%ADD60C,0.1000*%
%ADD61C,0.2540*%
%ADD62C,0.1800*%
%ADD63C,0.0254*%
%ADD64C,0.1500*%
%ADD65R,1.9000X4.1000*%
%ADD66R,1.2032X1.5032*%
%ADD67R,1.7032X0.8532*%
%ADD68R,1.5032X1.2032*%
%ADD69R,1.7032X1.7032*%
%ADD70R,1.7032X1.7032*%
%ADD71R,1.2032X2.7032*%
%ADD72R,1.2032X3.7032*%
%ADD73R,2.9032X3.2032*%
%ADD74R,1.3032X3.9932*%
%ADD75R,1.6032X3.7032*%
%ADD76O,2.3032X0.5032*%
%ADD77O,0.5032X2.3032*%
%ADD78O,2.3032X0.9032*%
%ADD79R,0.8532X1.7032*%
%ADD80R,0.7532X1.8532*%
%ADD81R,1.5032X1.4532*%
%ADD82C,1.2032*%
%ADD83R,0.5032X1.7032*%
%ADD84R,1.7032X0.5032*%
%ADD85R,5.2032X2.3032*%
%ADD86R,1.4032X1.4032*%
%ADD87R,1.4032X1.4032*%
%ADD88C,5.2032*%
%ADD89C,1.7032*%
%ADD90C,1.7032*%
%ADD91R,1.7032X1.7032*%
%ADD92C,1.8032*%
%ADD93C,3.1532*%
%ADD94C,3.1532*%
%ADD95C,2.4032*%
%ADD96C,1.9032*%
%ADD97C,1.8532*%
%ADD98R,1.8532X1.8532*%
%ADD99C,1.1032*%
%ADD100C,1.5032*%
%ADD101O,2.2032X4.2032*%
%ADD102O,4.2032X2.2032*%
%ADD103O,4.7032X2.2032*%
%ADD104R,5.2032X5.2032*%
%ADD105C,0.0600*%
D37*
X160000Y96000D02*
Y116000D01*
X97500Y138000D02*
X122500D01*
X100000Y76000D02*
X120000D01*
D105*
X4000Y-22000D02*
Y-16002D01*
X6999D01*
X7999Y-17002D01*
Y-19001D01*
X6999Y-20001D01*
X4000D01*
X9998Y-16002D02*
Y-22000D01*
X13997D01*
X15996D02*
Y-18001D01*
X17996Y-16002D01*
X19995Y-18001D01*
Y-22000D01*
Y-19001D01*
X15996D01*
X21994Y-16002D02*
X25993D01*
X23993D01*
Y-22000D01*
X31991Y-16002D02*
X27992D01*
Y-22000D01*
X31991D01*
X27992Y-19001D02*
X29992D01*
X33990Y-16002D02*
Y-22000D01*
X36989D01*
X37989Y-21000D01*
Y-17002D01*
X36989Y-16002D01*
X33990D01*
X49985Y-17002D02*
X48985Y-16002D01*
X46986D01*
X45986Y-17002D01*
Y-18001D01*
X46986Y-19001D01*
X48985D01*
X49985Y-20001D01*
Y-21000D01*
X48985Y-22000D01*
X46986D01*
X45986Y-21000D01*
X51985Y-16002D02*
Y-22000D01*
X55983D01*
X60981Y-16002D02*
X58982D01*
X57983Y-17002D01*
Y-21000D01*
X58982Y-22000D01*
X60981D01*
X61981Y-21000D01*
Y-17002D01*
X60981Y-16002D01*
X63981D02*
X67979D01*
X65980D01*
Y-22000D01*
X75977D02*
X77976D01*
X76976D01*
Y-16002D01*
X75977Y-17002D01*
X80975Y-22000D02*
Y-18001D01*
X81975D01*
X82974Y-19001D01*
Y-22000D01*
Y-19001D01*
X83974Y-18001D01*
X84974Y-19001D01*
Y-22000D01*
X86973D02*
Y-18001D01*
X87973D01*
X88973Y-19001D01*
Y-22000D01*
Y-19001D01*
X89972Y-18001D01*
X90972Y-19001D01*
Y-22000D01*
X98969Y-18001D02*
Y-21000D01*
X99969Y-22000D01*
X100969Y-21000D01*
X101968Y-22000D01*
X102968Y-21000D01*
Y-18001D01*
X104967Y-22000D02*
X106967D01*
X105967D01*
Y-18001D01*
X104967D01*
X113964Y-16002D02*
Y-22000D01*
X110965D01*
X109966Y-21000D01*
Y-19001D01*
X110965Y-18001D01*
X113964D01*
X118963Y-22000D02*
X116963D01*
X115964Y-21000D01*
Y-19001D01*
X116963Y-18001D01*
X118963D01*
X119962Y-19001D01*
Y-20001D01*
X115964D01*
X127960Y-19001D02*
X131959D01*
X145954Y-17002D02*
X146954Y-16002D01*
X148953D01*
X149953Y-17002D01*
Y-18001D01*
X148953Y-19001D01*
X147953D01*
X148953D01*
X149953Y-20001D01*
Y-21000D01*
X148953Y-22000D01*
X146954D01*
X145954Y-21000D01*
X157950Y-22000D02*
X160949D01*
X161949Y-21000D01*
X160949Y-20001D01*
X158950D01*
X157950Y-19001D01*
X158950Y-18001D01*
X161949D01*
X163948Y-22000D02*
X165947D01*
X164948D01*
Y-16002D01*
X163948D01*
X169946Y-22000D02*
X171946D01*
X172945Y-21000D01*
Y-19001D01*
X171946Y-18001D01*
X169946D01*
X168946Y-19001D01*
Y-21000D01*
X169946Y-22000D01*
X175944Y-17002D02*
Y-18001D01*
X174945D01*
X176944D01*
X175944D01*
Y-21000D01*
X176944Y-22000D01*
X179943D02*
X182942D01*
X183942Y-21000D01*
X182942Y-20001D01*
X180943D01*
X179943Y-19001D01*
X180943Y-18001D01*
X183942D01*
M02*
