%FSLAX44Y44*%
%MOMM*%
G71*
G01*
G75*
G04 Layer_Color=8388736*
%ADD10R,1.0000X1.3000*%
%ADD11R,1.5000X0.6500*%
%ADD12R,1.3000X1.0000*%
%ADD13R,1.5000X1.5000*%
%ADD14R,1.5000X1.5000*%
%ADD15R,1.0000X2.5000*%
%ADD16R,1.0000X3.5000*%
%ADD17R,2.7000X3.0000*%
%ADD18R,1.1000X3.7900*%
%ADD19R,1.4000X3.5000*%
%ADD20O,2.1000X0.3000*%
%ADD21O,0.3000X2.1000*%
%ADD22O,2.1000X0.7000*%
%ADD23R,0.6500X1.5000*%
%ADD24R,0.5500X1.6500*%
%ADD25R,1.3000X1.2500*%
%ADD26C,1.0000*%
%ADD27R,0.3000X1.5000*%
%ADD28R,1.5000X0.3000*%
%ADD29R,5.0000X2.1000*%
%ADD30R,1.2000X1.2000*%
%ADD31R,1.2000X1.2000*%
%ADD32C,0.2000*%
%ADD33C,0.3000*%
%ADD34C,0.5000*%
%ADD35C,0.8000*%
%ADD36C,0.5500*%
%ADD37C,1.0000*%
%ADD38C,1.7000*%
%ADD39C,0.6500*%
%ADD40C,0.2500*%
%ADD41C,5.0000*%
%ADD42C,1.5000*%
%ADD43C,1.5000*%
%ADD44R,1.5000X1.5000*%
%ADD45C,1.6000*%
%ADD46C,2.9500*%
%ADD47C,2.9500*%
%ADD48C,2.2000*%
%ADD49C,1.7000*%
%ADD50C,1.6500*%
%ADD51R,1.6500X1.6500*%
%ADD52C,0.9000*%
%ADD53C,1.3000*%
%ADD54O,2.0000X4.0000*%
%ADD55O,4.0000X2.0000*%
%ADD56O,4.5000X2.0000*%
%ADD57R,5.0000X5.0000*%
%ADD58C,0.7000*%
%ADD59C,0.6000*%
%ADD60C,0.1000*%
%ADD61C,0.2540*%
%ADD62C,0.1800*%
%ADD63C,0.0254*%
%ADD64C,0.1500*%
%ADD65R,1.9000X4.1000*%
%ADD66R,1.2032X1.5032*%
%ADD67R,1.7032X0.8532*%
%ADD68R,1.5032X1.2032*%
%ADD69R,1.7032X1.7032*%
%ADD70R,1.7032X1.7032*%
%ADD71R,1.2032X2.7032*%
%ADD72R,1.2032X3.7032*%
%ADD73R,2.9032X3.2032*%
%ADD74R,1.3032X3.9932*%
%ADD75R,1.6032X3.7032*%
%ADD76O,2.3032X0.5032*%
%ADD77O,0.5032X2.3032*%
%ADD78O,2.3032X0.9032*%
%ADD79R,0.8532X1.7032*%
%ADD80R,0.7532X1.8532*%
%ADD81R,1.5032X1.4532*%
%ADD82C,1.2032*%
%ADD83R,0.5032X1.7032*%
%ADD84R,1.7032X0.5032*%
%ADD85R,5.2032X2.3032*%
%ADD86R,1.4032X1.4032*%
%ADD87R,1.4032X1.4032*%
%ADD88C,5.2032*%
%ADD89C,1.7032*%
%ADD90C,1.7032*%
%ADD91R,1.7032X1.7032*%
%ADD92C,1.8032*%
%ADD93C,3.1532*%
%ADD94C,3.1532*%
%ADD95C,2.4032*%
%ADD96C,1.9032*%
%ADD97C,1.8532*%
%ADD98R,1.8532X1.8532*%
%ADD99C,1.1032*%
%ADD100C,1.5032*%
%ADD101O,2.2032X4.2032*%
%ADD102O,4.2032X2.2032*%
%ADD103O,4.7032X2.2032*%
%ADD104R,5.2032X5.2032*%
%ADD105C,0.0600*%
%ADD106C,0.1524*%
D33*
X0Y0D02*
Y750000D01*
X750000D01*
Y0D02*
Y750000D01*
X0Y0D02*
X750000D01*
D61*
X-104140Y750000D02*
X-4040D01*
X-104140Y0D02*
X-4040D01*
X-101600Y444827D02*
Y750000D01*
Y0D02*
Y297045D01*
X-106680Y734760D02*
X-101600Y750000D01*
X-96520Y734760D01*
X-101600Y0D02*
X-96520Y15240D01*
X-106680D02*
X-101600Y0D01*
X750000Y-71120D02*
Y-4040D01*
X0Y-71120D02*
Y-4040D01*
X444827Y-68580D02*
X750000D01*
X0D02*
X297045D01*
X734760Y-63500D02*
X750000Y-68580D01*
X734760Y-73660D02*
X750000Y-68580D01*
X0D02*
X15240Y-73660D01*
X0Y-68580D02*
X15240Y-63500D01*
D106*
X-105154Y301109D02*
Y311265D01*
X-102615D01*
X-92458Y301109D01*
X-89919D01*
X-105154Y326500D02*
Y316344D01*
X-97537D01*
X-100076Y321422D01*
Y323961D01*
X-97537Y326500D01*
X-92458D01*
X-89919Y323961D01*
Y318883D01*
X-92458Y316344D01*
X-87380Y334118D02*
X-89919Y336657D01*
X-92458D01*
Y334118D01*
X-89919D01*
Y336657D01*
X-87380Y334118D01*
X-84841Y331579D01*
X-102615Y346814D02*
X-105154Y349353D01*
Y354431D01*
X-102615Y356970D01*
X-92458D01*
X-89919Y354431D01*
Y349353D01*
X-92458Y346814D01*
X-102615D01*
Y362049D02*
X-105154Y364588D01*
Y369666D01*
X-102615Y372206D01*
X-92458D01*
X-89919Y369666D01*
Y364588D01*
X-92458Y362049D01*
X-102615D01*
X-89919Y397597D02*
X-94998Y392519D01*
X-100076D01*
X-105154Y397597D01*
X-89919Y405215D02*
X-100076D01*
Y407754D01*
X-97537Y410293D01*
X-89919D01*
X-97537D01*
X-100076Y412832D01*
X-97537Y415372D01*
X-89919D01*
Y420450D02*
X-100076D01*
Y422989D01*
X-97537Y425528D01*
X-89919D01*
X-97537D01*
X-100076Y428068D01*
X-97537Y430607D01*
X-89919D01*
Y435685D02*
X-94998Y440763D01*
X-100076D01*
X-105154Y435685D01*
X301109Y-65026D02*
X311265D01*
Y-67565D01*
X301109Y-77722D01*
Y-80261D01*
X326500Y-65026D02*
X316344D01*
Y-72643D01*
X321422Y-70104D01*
X323961D01*
X326500Y-72643D01*
Y-77722D01*
X323961Y-80261D01*
X318883D01*
X316344Y-77722D01*
X334118Y-82800D02*
X336657Y-80261D01*
Y-77722D01*
X334118D01*
Y-80261D01*
X336657D01*
X334118Y-82800D01*
X331579Y-85339D01*
X346814Y-67565D02*
X349353Y-65026D01*
X354431D01*
X356970Y-67565D01*
Y-77722D01*
X354431Y-80261D01*
X349353D01*
X346814Y-77722D01*
Y-67565D01*
X362049D02*
X364588Y-65026D01*
X369666D01*
X372206Y-67565D01*
Y-77722D01*
X369666Y-80261D01*
X364588D01*
X362049Y-77722D01*
Y-67565D01*
X397597Y-80261D02*
X392519Y-75182D01*
Y-70104D01*
X397597Y-65026D01*
X405215Y-80261D02*
Y-70104D01*
X407754D01*
X410293Y-72643D01*
Y-80261D01*
Y-72643D01*
X412832Y-70104D01*
X415372Y-72643D01*
Y-80261D01*
X420450D02*
Y-70104D01*
X422989D01*
X425528Y-72643D01*
Y-80261D01*
Y-72643D01*
X428068Y-70104D01*
X430607Y-72643D01*
Y-80261D01*
X435685D02*
X440763Y-75182D01*
Y-70104D01*
X435685Y-65026D01*
M02*
