M48
;Layer_Color=9474304
;FILE_FORMAT=4:4
METRIC,LZ
;TYPE=PLATED
T1F00S00C0.5000
T2F00S00C0.9000
T3F00S00C1.0000
T4F00S00C1.1000
T5F00S00C1.6000
T6F00S00C3.0000
;TYPE=NON_PLATED
T7F00S00C1.2000
T8F00S00C1.6000
T9F00S00C3.3000
T10F00S00C3.3001
%
T01
X0006Y0022
Y00315
X00017Y00321
X001015Y004
X00162
X002315Y00426
X002505Y00425
X00278Y00383
X00272Y00371
X00283Y00362
X002825Y00315
X00261Y00255
X00202Y002975
X00295Y00235
X00303Y00375
X00365Y00383
X00379Y00375
X00393Y00367
X00418Y00349
Y00319
X00455Y0027
X00475Y0026
Y00245
X0053Y00295
X0052Y0031
X0051Y0037
X0052Y0041
X00426Y00397
X00605Y0038
X00603Y00285
X0062
X00634Y00268
Y00254
X00666Y00263
X0068
X00578Y00285
X00547Y00097
X00522
X00472Y00105
X00353Y00441
X00349Y00476
Y00489
X00334Y0048
X00321Y00457
X00308Y00514
X00365Y00513
Y00527
Y00541
X00411Y00525
X0043Y00535
X00421Y00565
X00439Y00568
X0045Y0056
X00403Y00572
X0038Y00627
X00357Y0061
X00321Y00572
X00303Y00586
X0055Y005
X00616Y00554
X00666Y00562
X00635Y0063
X002775Y00627
X0024Y0063
X00235Y00611
X00201Y00593
X00186
X00184Y00617
Y0063
X00171
X00141Y00638
X00158Y00599
X0016Y00565
X00145
X0013
X00199Y00561
X00212Y00562
X00191Y0055
X002Y0054
X00248Y00513
X00272Y00514
X00248Y00474
X00221Y0048
X00187Y00458
X00035Y00455
X00045Y005
X000805Y0065
X0024Y00663
X00267Y00586
X00249Y00567
T02
X00025Y000946
Y0012
Y001454
X0022055Y0017017
X0024595
X0027135
X0028405Y0019557
X0025865
X0023325Y0019557
X0030945Y0019557
X0029668Y0017016
X00342Y00726
X003674
X004312
X004566
X005074
X005328
X005582
X005836
X00609
X006344
X002784
X00253
T03
X001Y00076
X0012
X0016Y00096
Y00116
X001225Y00138
X000975
X006873Y003957
X007127
Y004211
X006873
Y004465
X007127
Y004719
X006873
Y004973
X007127
Y005227
X006873
Y005481
X007127
Y005735
X006873
Y005989
X007127
Y006243
X006873
T04
X001987Y0006607
X002241Y0006611
X003059Y0006607
X003313
T05
X0018755Y0013717
X0034245
T06
X00035Y00035
X00715
Y00715
X00285Y0055
X00035Y00715
T07
X00402Y00074
T08
X0065Y00074
T09
X0020785Y0010667
T10
X0032215Y0010667
M30
