%FSLAX44Y44*%
%MOMM*%
G71*
G01*
G75*
G04 Layer_Color=8388736*
%ADD10R,1.0000X1.3000*%
%ADD11R,1.5000X0.6500*%
%ADD12R,1.3000X1.0000*%
%ADD13R,1.5000X1.5000*%
%ADD14R,1.5000X1.5000*%
%ADD15R,1.0000X2.5000*%
%ADD16R,1.0000X3.5000*%
%ADD17R,2.7000X3.0000*%
%ADD18R,1.1000X3.7900*%
%ADD19R,1.4000X3.5000*%
%ADD20O,2.1000X0.3000*%
%ADD21O,0.3000X2.1000*%
%ADD22O,2.1000X0.7000*%
%ADD23R,0.6500X1.5000*%
%ADD24R,0.5500X1.6500*%
%ADD25R,1.3000X1.2500*%
%ADD26C,1.0000*%
%ADD27R,0.3000X1.5000*%
%ADD28R,1.5000X0.3000*%
%ADD29R,5.0000X2.1000*%
%ADD30R,1.2000X1.2000*%
%ADD31R,1.2000X1.2000*%
%ADD32C,0.2000*%
%ADD33C,0.3000*%
%ADD34C,0.5000*%
%ADD35C,0.8000*%
%ADD36C,0.5500*%
%ADD37C,1.0000*%
%ADD38C,1.7000*%
%ADD39C,0.6500*%
%ADD40C,0.2500*%
%ADD41C,5.0000*%
%ADD42C,1.5000*%
%ADD43C,1.5000*%
%ADD44R,1.5000X1.5000*%
%ADD45C,1.6000*%
%ADD46C,2.9500*%
%ADD47C,2.9500*%
%ADD48C,2.2000*%
%ADD49C,1.7000*%
%ADD50C,1.6500*%
%ADD51R,1.6500X1.6500*%
%ADD52C,0.9000*%
%ADD53C,1.3000*%
%ADD54O,2.0000X4.0000*%
%ADD55O,4.0000X2.0000*%
%ADD56O,4.5000X2.0000*%
%ADD57R,5.0000X5.0000*%
%ADD58C,0.7000*%
%ADD59C,0.6000*%
%ADD60C,0.1000*%
%ADD61C,0.2540*%
%ADD62C,0.1800*%
%ADD63C,0.0254*%
%ADD64C,0.1500*%
%ADD65R,1.9000X4.1000*%
%ADD66R,1.2032X1.5032*%
%ADD67R,1.7032X0.8532*%
%ADD68R,1.5032X1.2032*%
%ADD69R,1.7032X1.7032*%
%ADD70R,1.7032X1.7032*%
%ADD71R,1.2032X2.7032*%
%ADD72R,1.2032X3.7032*%
%ADD73R,2.9032X3.2032*%
%ADD74R,1.3032X3.9932*%
%ADD75R,1.6032X3.7032*%
%ADD76O,2.3032X0.5032*%
%ADD77O,0.5032X2.3032*%
%ADD78O,2.3032X0.9032*%
%ADD79R,0.8532X1.7032*%
%ADD80R,0.7532X1.8532*%
%ADD81R,1.5032X1.4532*%
%ADD82C,1.2032*%
%ADD83R,0.5032X1.7032*%
%ADD84R,1.7032X0.5032*%
%ADD85R,5.2032X2.3032*%
%ADD86R,1.4032X1.4032*%
%ADD87R,1.4032X1.4032*%
%ADD88C,5.2032*%
%ADD89C,1.7032*%
%ADD90C,1.7032*%
%ADD91R,1.7032X1.7032*%
%ADD92C,1.8032*%
%ADD93C,3.1532*%
%ADD94C,3.1532*%
%ADD95C,2.4032*%
%ADD96C,1.9032*%
%ADD97C,1.8532*%
%ADD98R,1.8532X1.8532*%
%ADD99C,1.1032*%
%ADD100C,1.5032*%
%ADD101O,2.2032X4.2032*%
%ADD102O,4.2032X2.2032*%
%ADD103O,4.7032X2.2032*%
%ADD104R,5.2032X5.2032*%
D66*
X539000Y403500D02*
D03*
Y384500D02*
D03*
X610000Y441500D02*
D03*
Y422500D02*
D03*
X303000Y313500D02*
D03*
Y294500D02*
D03*
X324000Y313500D02*
D03*
Y294500D02*
D03*
X148000Y491500D02*
D03*
Y472500D02*
D03*
Y241500D02*
D03*
Y222500D02*
D03*
X120000Y598500D02*
D03*
Y617500D02*
D03*
X60000Y598500D02*
D03*
Y617500D02*
D03*
X120000Y348500D02*
D03*
Y367500D02*
D03*
X60000Y348500D02*
D03*
Y367500D02*
D03*
X282000Y297500D02*
D03*
Y278500D02*
D03*
X261000D02*
D03*
Y297500D02*
D03*
X240000D02*
D03*
Y278500D02*
D03*
X219000D02*
D03*
Y297500D02*
D03*
X365000Y480500D02*
D03*
Y461500D02*
D03*
X389000Y508500D02*
D03*
Y527500D02*
D03*
X141000Y598500D02*
D03*
Y617500D02*
D03*
X55000Y420500D02*
D03*
Y439500D02*
D03*
X127000Y491500D02*
D03*
Y472500D02*
D03*
Y241500D02*
D03*
Y222500D02*
D03*
Y439500D02*
D03*
Y420500D02*
D03*
Y189500D02*
D03*
Y170500D02*
D03*
X17000Y283500D02*
D03*
Y302500D02*
D03*
X521000Y432500D02*
D03*
Y451500D02*
D03*
D67*
X587000Y432500D02*
D03*
Y442000D02*
D03*
Y451500D02*
D03*
X563000D02*
D03*
Y432500D02*
D03*
D68*
X363500Y339000D02*
D03*
X382500D02*
D03*
X283500Y255000D02*
D03*
X302500D02*
D03*
X342500Y627000D02*
D03*
X361500D02*
D03*
X334500Y423000D02*
D03*
X353500D02*
D03*
X238500Y255000D02*
D03*
X219500D02*
D03*
X250500Y443000D02*
D03*
X231500D02*
D03*
X390500Y429000D02*
D03*
X409500D02*
D03*
X604500Y363000D02*
D03*
X623500D02*
D03*
X455500Y289000D02*
D03*
X436500D02*
D03*
X455500Y319000D02*
D03*
X436500D02*
D03*
X455500Y349000D02*
D03*
X436500D02*
D03*
X299500Y627000D02*
D03*
X318500D02*
D03*
X580500Y363000D02*
D03*
X561500D02*
D03*
X123500Y699000D02*
D03*
X142500D02*
D03*
X660500Y285000D02*
D03*
X641500D02*
D03*
X428500Y378000D02*
D03*
X409500D02*
D03*
D69*
X348000Y312500D02*
D03*
Y291500D02*
D03*
X253000Y726000D02*
D03*
X342000D02*
D03*
X431200D02*
D03*
X507400D02*
D03*
D70*
X384500Y403000D02*
D03*
X405500D02*
D03*
X80500Y420000D02*
D03*
X101500D02*
D03*
X80500Y565000D02*
D03*
X101500D02*
D03*
X80500Y170000D02*
D03*
X101500D02*
D03*
X80500Y315000D02*
D03*
X101500D02*
D03*
D71*
X420500Y246500D02*
D03*
D72*
X405500Y241500D02*
D03*
D73*
X665500Y47500D02*
D03*
X384500D02*
D03*
D74*
X572000Y72450D02*
D03*
X597000Y77450D02*
D03*
X547000Y64450D02*
D03*
X522000D02*
D03*
X497000Y72450D02*
D03*
X472000D02*
D03*
X447000D02*
D03*
X430750D02*
D03*
X622000Y49450D02*
D03*
D75*
X391500Y241500D02*
D03*
D76*
X249000Y407500D02*
D03*
Y402500D02*
D03*
Y397500D02*
D03*
Y392500D02*
D03*
Y387500D02*
D03*
Y382500D02*
D03*
Y377500D02*
D03*
Y372500D02*
D03*
Y367500D02*
D03*
Y362500D02*
D03*
Y357500D02*
D03*
Y352500D02*
D03*
X331000D02*
D03*
Y357500D02*
D03*
Y362500D02*
D03*
Y367500D02*
D03*
Y372500D02*
D03*
Y377500D02*
D03*
Y382500D02*
D03*
Y387500D02*
D03*
Y392500D02*
D03*
Y397500D02*
D03*
Y402500D02*
D03*
Y407500D02*
D03*
D77*
X262500Y339000D02*
D03*
X267500D02*
D03*
X272500D02*
D03*
X277500D02*
D03*
X282500D02*
D03*
X287500D02*
D03*
X292500D02*
D03*
X297500D02*
D03*
X302500D02*
D03*
X307500D02*
D03*
X312500D02*
D03*
X317500D02*
D03*
Y421000D02*
D03*
X312500D02*
D03*
X307500D02*
D03*
X302500D02*
D03*
X297500D02*
D03*
X292500D02*
D03*
X287500D02*
D03*
X282500D02*
D03*
X277500D02*
D03*
X272500D02*
D03*
X267500D02*
D03*
X262500D02*
D03*
D78*
X550500Y343050D02*
D03*
Y330350D02*
D03*
Y317650D02*
D03*
Y304950D02*
D03*
X603500Y343050D02*
D03*
Y330350D02*
D03*
Y317650D02*
D03*
Y304950D02*
D03*
D79*
X80500Y472000D02*
D03*
X99500D02*
D03*
Y448000D02*
D03*
X90000D02*
D03*
X80500D02*
D03*
Y222000D02*
D03*
X99500D02*
D03*
Y198000D02*
D03*
X90000D02*
D03*
X80500D02*
D03*
D80*
X99500Y598250D02*
D03*
X80500D02*
D03*
Y621750D02*
D03*
X90000D02*
D03*
X99500D02*
D03*
X90000Y598250D02*
D03*
X99500Y348250D02*
D03*
X80500D02*
D03*
Y371750D02*
D03*
X90000D02*
D03*
X99500D02*
D03*
X90000Y348250D02*
D03*
D81*
X411250Y455300D02*
D03*
X388750D02*
D03*
X411250Y480700D02*
D03*
X388750D02*
D03*
D82*
X228000Y493000D02*
D03*
X342000Y607000D02*
D03*
X680000Y263000D02*
D03*
X666000D02*
D03*
X634000Y254000D02*
D03*
Y268000D02*
D03*
X349000Y476000D02*
D03*
Y489000D02*
D03*
X450000Y560000D02*
D03*
X439000Y568000D02*
D03*
X550000Y500000D02*
D03*
X80500Y650000D02*
D03*
X17000Y321000D02*
D03*
X295000Y235000D02*
D03*
X530000Y295000D02*
D03*
X411000Y525000D02*
D03*
X455000Y270000D02*
D03*
X430000Y535000D02*
D03*
X547000Y97000D02*
D03*
X472000Y105000D02*
D03*
X522000Y97000D02*
D03*
X141000Y638000D02*
D03*
X365000Y541000D02*
D03*
X283000Y362000D02*
D03*
X353000Y441000D02*
D03*
X60000Y315000D02*
D03*
X520000Y410000D02*
D03*
X620000Y285000D02*
D03*
X200000Y540000D02*
D03*
X603000Y285000D02*
D03*
X578000D02*
D03*
X520000Y310000D02*
D03*
X510000Y370000D02*
D03*
X334000Y480000D02*
D03*
X393000Y367000D02*
D03*
X248000Y474000D02*
D03*
X321000Y457000D02*
D03*
X186000Y593000D02*
D03*
X201000D02*
D03*
X379000Y375000D02*
D03*
X365000Y383000D02*
D03*
X303000Y375000D02*
D03*
X418000Y319000D02*
D03*
Y349000D02*
D03*
X101500Y400000D02*
D03*
X282500Y315000D02*
D03*
X202000Y297500D02*
D03*
X261000Y255000D02*
D03*
X221000Y480000D02*
D03*
X277500Y627000D02*
D03*
X666000Y562000D02*
D03*
X212000D02*
D03*
X380000Y627000D02*
D03*
X357000Y610000D02*
D03*
X250500Y425000D02*
D03*
X231500Y426000D02*
D03*
X248000Y513000D02*
D03*
X272000Y514000D02*
D03*
X308000D02*
D03*
X365000Y527000D02*
D03*
X303000Y586000D02*
D03*
X635000Y630000D02*
D03*
X267000Y586000D02*
D03*
X321000Y572000D02*
D03*
X240000Y630000D02*
D03*
X249000Y567000D02*
D03*
X365000Y513000D02*
D03*
X158000Y599000D02*
D03*
X605000Y380000D02*
D03*
X616000Y554000D02*
D03*
X35000Y455000D02*
D03*
X45000Y500000D02*
D03*
X130000Y565000D02*
D03*
X145000D02*
D03*
X160000D02*
D03*
X426000Y397000D02*
D03*
X475000Y260000D02*
D03*
Y245000D02*
D03*
X403000Y572000D02*
D03*
X421000Y565000D02*
D03*
X60000Y220000D02*
D03*
X162000Y400000D02*
D03*
X272000Y371000D02*
D03*
X278000Y383000D02*
D03*
X199000Y561000D02*
D03*
X191000Y550000D02*
D03*
X240000Y663000D02*
D03*
X235000Y611000D02*
D03*
X171000Y630000D02*
D03*
X184000D02*
D03*
Y617000D02*
D03*
X187000Y458000D02*
D03*
D83*
X322500Y493000D02*
D03*
X317500D02*
D03*
X312500D02*
D03*
X307500D02*
D03*
X302500D02*
D03*
X297500D02*
D03*
X292500D02*
D03*
X287500D02*
D03*
X282500D02*
D03*
X277500D02*
D03*
X272500D02*
D03*
X267500D02*
D03*
X262500D02*
D03*
X257500D02*
D03*
X252500D02*
D03*
X247500D02*
D03*
Y607000D02*
D03*
X252500D02*
D03*
X257500D02*
D03*
X262500D02*
D03*
X267500D02*
D03*
X272500D02*
D03*
X277500D02*
D03*
X282500D02*
D03*
X287500D02*
D03*
X292500D02*
D03*
X297500D02*
D03*
X302500D02*
D03*
X307500D02*
D03*
X312500D02*
D03*
X317500D02*
D03*
X322500D02*
D03*
D84*
X228000Y512500D02*
D03*
Y517500D02*
D03*
Y522500D02*
D03*
Y527500D02*
D03*
Y532500D02*
D03*
Y537500D02*
D03*
Y542500D02*
D03*
Y547500D02*
D03*
Y552500D02*
D03*
Y557500D02*
D03*
Y562500D02*
D03*
Y567500D02*
D03*
Y572500D02*
D03*
Y577500D02*
D03*
Y582500D02*
D03*
Y587500D02*
D03*
X342000D02*
D03*
Y582500D02*
D03*
Y577500D02*
D03*
Y572500D02*
D03*
Y567500D02*
D03*
Y562500D02*
D03*
Y557500D02*
D03*
Y552500D02*
D03*
Y547500D02*
D03*
Y542500D02*
D03*
Y537500D02*
D03*
Y532500D02*
D03*
Y527500D02*
D03*
Y522500D02*
D03*
Y517500D02*
D03*
Y512500D02*
D03*
D85*
X80500Y500000D02*
D03*
Y536000D02*
D03*
Y250000D02*
D03*
Y286000D02*
D03*
D86*
X493000Y420500D02*
D03*
Y441500D02*
D03*
X19000Y211500D02*
D03*
Y232500D02*
D03*
D87*
X151500Y727000D02*
D03*
X130500D02*
D03*
D88*
X715000Y715000D02*
D03*
Y35000D02*
D03*
X35000Y715000D02*
D03*
Y35000D02*
D03*
D89*
X309450Y195570D02*
D03*
X296680Y170160D02*
D03*
X284050Y195570D02*
D03*
X258650D02*
D03*
X271350Y170170D02*
D03*
X122500Y138000D02*
D03*
X97500D02*
D03*
D90*
X233250Y195570D02*
D03*
X278400Y726000D02*
D03*
X367400D02*
D03*
X456600D02*
D03*
X160000Y96000D02*
D03*
Y116000D02*
D03*
X100000Y76000D02*
D03*
X120000D02*
D03*
X634400Y726000D02*
D03*
X609000D02*
D03*
X583600D02*
D03*
X558200D02*
D03*
X532800D02*
D03*
D91*
X220550Y170170D02*
D03*
D92*
X245950D02*
D03*
D93*
X207850Y106670D02*
D03*
D94*
X322150Y106670D02*
D03*
D95*
X187550Y137170D02*
D03*
X342450D02*
D03*
D96*
X198700Y66070D02*
D03*
X224100Y66110D02*
D03*
X305900Y66070D02*
D03*
X331300D02*
D03*
X25000Y94600D02*
D03*
Y120000D02*
D03*
Y145400D02*
D03*
D97*
X712700Y395700D02*
D03*
X687300D02*
D03*
X712700Y421100D02*
D03*
X687300D02*
D03*
X712700Y446500D02*
D03*
X687300D02*
D03*
X712700Y471900D02*
D03*
X687300D02*
D03*
X712700Y497300D02*
D03*
X687300D02*
D03*
X712700Y522700D02*
D03*
X687300D02*
D03*
X712700Y548100D02*
D03*
X687300D02*
D03*
X712700Y573500D02*
D03*
X687300D02*
D03*
X712700Y598900D02*
D03*
X687300D02*
D03*
X712700Y624300D02*
D03*
D98*
X687300D02*
D03*
D99*
X402000Y74000D02*
D03*
D100*
X650000D02*
D03*
D101*
X160000Y106000D02*
D03*
D102*
X110000Y76000D02*
D03*
D103*
Y138000D02*
D03*
D104*
X285000Y550000D02*
D03*
M02*
