%FSLAX44Y44*%
%MOMM*%
G71*
G01*
G75*
G04 Layer_Color=65535*
%ADD10R,1.0000X1.3000*%
%ADD11R,1.5000X0.6500*%
%ADD12R,1.3000X1.0000*%
%ADD13R,1.5000X1.5000*%
%ADD14R,1.5000X1.5000*%
%ADD15R,1.0000X2.5000*%
%ADD16R,1.0000X3.5000*%
%ADD17R,2.7000X3.0000*%
%ADD18R,1.1000X3.7900*%
%ADD19R,1.4000X3.5000*%
%ADD20O,2.1000X0.3000*%
%ADD21O,0.3000X2.1000*%
%ADD22O,2.1000X0.7000*%
%ADD23R,0.6500X1.5000*%
%ADD24R,0.5500X1.6500*%
%ADD25R,1.3000X1.2500*%
%ADD26C,1.0000*%
%ADD27R,0.3000X1.5000*%
%ADD28R,1.5000X0.3000*%
%ADD29R,5.0000X2.1000*%
%ADD30R,1.2000X1.2000*%
%ADD31R,1.2000X1.2000*%
%ADD32C,0.2000*%
%ADD33C,0.3000*%
%ADD34C,0.5000*%
%ADD35C,0.8000*%
%ADD36C,0.5500*%
%ADD37C,1.0000*%
%ADD38C,1.7000*%
%ADD39C,0.6500*%
%ADD40C,0.2500*%
%ADD41C,5.0000*%
%ADD42C,1.5000*%
%ADD43C,1.5000*%
%ADD44R,1.5000X1.5000*%
%ADD45C,1.6000*%
%ADD46C,2.9500*%
%ADD47C,2.9500*%
%ADD48C,2.2000*%
%ADD49C,1.7000*%
%ADD50C,1.6500*%
%ADD51R,1.6500X1.6500*%
%ADD52C,0.9000*%
%ADD53C,1.3000*%
%ADD54O,2.0000X4.0000*%
%ADD55O,4.0000X2.0000*%
%ADD56O,4.5000X2.0000*%
%ADD57R,5.0000X5.0000*%
%ADD58C,0.7000*%
%ADD59C,0.6000*%
%ADD60C,0.1000*%
%ADD61C,0.2540*%
%ADD62C,0.1800*%
%ADD63C,0.0254*%
%ADD64C,0.1500*%
%ADD65R,1.9000X4.1000*%
D32*
X572500Y426500D02*
X577500D01*
X572500Y457500D02*
X577500D01*
Y426500D02*
Y457500D01*
X572500Y426500D02*
Y457500D01*
X337000Y323500D02*
X359000D01*
Y280500D02*
Y323500D01*
X337000Y280500D02*
X359000D01*
X337000D02*
Y323500D01*
X373500Y392000D02*
Y414000D01*
X416500D01*
Y392000D02*
Y414000D01*
X373500Y392000D02*
X416500D01*
X69500Y409000D02*
Y431000D01*
X112500D01*
Y409000D02*
Y431000D01*
X69500Y409000D02*
X112500D01*
X69500Y554000D02*
Y576000D01*
X112500D01*
Y554000D02*
Y576000D01*
X69500Y554000D02*
X112500D01*
X69500Y159000D02*
Y181000D01*
X112500D01*
Y159000D02*
Y181000D01*
X69500Y159000D02*
X112500D01*
X69500Y304000D02*
Y326000D01*
X112500D01*
Y304000D02*
Y326000D01*
X69500Y304000D02*
X112500D01*
X319250Y42870D02*
Y43600D01*
X312690Y49522D02*
X313141Y49709D01*
X200570Y41370D02*
X209680D01*
X218030Y41880D02*
X225880D01*
X217530Y34040D02*
Y49720D01*
X209930Y49220D02*
X217020Y42130D01*
Y41620D02*
Y42130D01*
X209930Y34530D02*
X217020Y41620D01*
X209930Y34530D02*
Y49220D01*
X187500Y1270D02*
X342500D01*
X187500D02*
Y121270D01*
Y151270D02*
Y207070D01*
X342500D01*
Y151270D02*
Y207070D01*
Y1270D02*
Y121270D01*
X312690Y36310D02*
Y49522D01*
Y36310D02*
X319250Y42870D01*
X313141Y49709D02*
X319250Y43600D01*
X321050Y35690D02*
Y51240D01*
X303070Y43650D02*
X312190D01*
X319780Y43400D02*
X331930D01*
X746000Y344900D02*
Y675100D01*
X654000Y344900D02*
Y675100D01*
X746000D01*
X654000Y344900D02*
X746000D01*
X663000Y1000D02*
Y28500D01*
X389000Y66500D02*
Y220000D01*
X559500Y87450D02*
Y95450D01*
X585000D02*
Y100450D01*
X630000Y231000D02*
Y234000D01*
X419000Y1000D02*
Y95450D01*
X509500D01*
X637500Y1000D02*
X663000D01*
X609500Y72450D02*
X637500D01*
X585000Y100450D02*
X609500D01*
X509500Y87450D02*
Y95450D01*
X429500Y234000D02*
X630000D01*
X509500Y87450D02*
X559500D01*
Y95450D02*
X585000D01*
X609500Y72450D02*
Y100450D01*
X389000Y1000D02*
X419000D01*
X637500D02*
Y72450D01*
X630000Y231000D02*
X663000D01*
X663000Y66500D02*
Y231000D01*
X389000Y1000D02*
Y28500D01*
X240300Y738700D02*
X291100D01*
X240300Y713300D02*
Y738700D01*
Y713300D02*
X291100D01*
Y738700D01*
X329300D02*
X380100D01*
X329300Y713300D02*
Y738700D01*
Y713300D02*
X380100D01*
Y738700D01*
X418500D02*
X469300D01*
X418500Y713300D02*
Y738700D01*
Y713300D02*
X469300D01*
Y738700D01*
X263500Y353500D02*
Y406500D01*
X316500Y353500D02*
Y406500D01*
X263500D02*
X316500D01*
X263500Y353500D02*
X316500D01*
X565000Y299000D02*
Y349000D01*
X589000Y299000D02*
Y349000D01*
X565000D02*
X589000D01*
X565000Y299000D02*
X589000D01*
X74500Y462500D02*
X105500D01*
X74500Y457500D02*
X105500D01*
Y462500D01*
X74500Y457500D02*
Y462500D01*
Y212500D02*
X105500D01*
X74500Y207500D02*
X105500D01*
Y212500D01*
X74500Y207500D02*
Y212500D01*
Y601000D02*
Y619000D01*
X105500Y601000D02*
Y619000D01*
X105000Y601000D02*
X105500D01*
X105000Y619000D02*
X105500D01*
X74500Y601000D02*
X75000D01*
X74500Y619000D02*
X75000D01*
X74500Y351000D02*
Y369000D01*
X105500Y351000D02*
Y369000D01*
X105000Y351000D02*
X105500D01*
X105000Y369000D02*
X105500D01*
X74500Y351000D02*
X75000D01*
X74500Y369000D02*
X75000D01*
X421000Y443000D02*
Y493000D01*
X379000Y443000D02*
X421000D01*
X379000D02*
Y493000D01*
X421000D01*
X65000Y147000D02*
X88000Y147000D01*
X65000Y1000D02*
Y147000D01*
Y1000D02*
X155000D01*
X132000Y147000D02*
X155000D01*
Y128000D02*
Y147000D01*
Y1000D02*
Y84000D01*
X239000Y596000D02*
X331000D01*
X239000Y504000D02*
Y596000D01*
Y504000D02*
X331000D01*
Y596000D01*
X483000Y452000D02*
X503000D01*
Y405000D02*
Y452000D01*
X483000Y405000D02*
Y452000D01*
Y405000D02*
X503000D01*
X483000Y407000D02*
X503000D01*
X483000Y409000D02*
X503000D01*
X120000Y717000D02*
Y737000D01*
X167000D01*
X120000Y717000D02*
X167000D01*
Y737000D01*
X165000Y717000D02*
Y737000D01*
X163000Y717000D02*
Y737000D01*
X9000Y243000D02*
X29000D01*
Y196000D02*
Y243000D01*
X9000Y196000D02*
Y243000D01*
Y196000D02*
X29000D01*
X9000Y198000D02*
X29000D01*
X9000Y200000D02*
X29000D01*
X494700Y713300D02*
X647100D01*
X494700Y738700D02*
X647100D01*
X494700Y713300D02*
Y738700D01*
X647100Y713300D02*
Y738700D01*
X498000Y381000D02*
Y392996D01*
X503998D01*
X505997Y390997D01*
Y386998D01*
X503998Y384999D01*
X498000D01*
X501999D02*
X505997Y381000D01*
X509996Y390997D02*
X511996Y392996D01*
X515994D01*
X517994Y390997D01*
Y388997D01*
X515994Y386998D01*
X513995D01*
X515994D01*
X517994Y384999D01*
Y382999D01*
X515994Y381000D01*
X511996D01*
X509996Y382999D01*
X521992Y381000D02*
X525991D01*
X523992D01*
Y392996D01*
X521992Y390997D01*
X559000Y418996D02*
Y408999D01*
X560999Y407000D01*
X564998D01*
X566997Y408999D01*
Y418996D01*
X570996Y416997D02*
X572995Y418996D01*
X576994D01*
X578993Y416997D01*
Y414997D01*
X576994Y412998D01*
X578993Y410999D01*
Y408999D01*
X576994Y407000D01*
X572995D01*
X570996Y408999D01*
Y410999D01*
X572995Y412998D01*
X570996Y414997D01*
Y416997D01*
X572995Y412998D02*
X576994D01*
X586000Y463000D02*
Y474996D01*
X591998D01*
X593997Y472997D01*
Y468998D01*
X591998Y466999D01*
X586000D01*
X589999D02*
X593997Y463000D01*
X597996Y472997D02*
X599995Y474996D01*
X603994D01*
X605993Y472997D01*
Y470997D01*
X603994Y468998D01*
X601995D01*
X603994D01*
X605993Y466999D01*
Y464999D01*
X603994Y463000D01*
X599995D01*
X597996Y464999D01*
X609992Y472997D02*
X611992Y474996D01*
X615990D01*
X617990Y472997D01*
Y464999D01*
X615990Y463000D01*
X611992D01*
X609992Y464999D01*
Y472997D01*
X633222Y300990D02*
Y312986D01*
X639220D01*
X641219Y310987D01*
Y306988D01*
X639220Y304989D01*
X633222D01*
X637221D02*
X641219Y300990D01*
X653215D02*
X645218D01*
X653215Y308987D01*
Y310987D01*
X651216Y312986D01*
X647217D01*
X645218Y310987D01*
X663212Y300990D02*
Y312986D01*
X657214Y306988D01*
X665212D01*
X23003Y173997D02*
X21004Y171998D01*
Y167999D01*
X23003Y166000D01*
X25003D01*
X27002Y167999D01*
Y171998D01*
X29001Y173997D01*
X31001D01*
X33000Y171998D01*
Y167999D01*
X31001Y166000D01*
X33000Y177996D02*
Y181995D01*
Y179995D01*
X21004D01*
X23003Y177996D01*
X678997Y224996D02*
X674999D01*
X676998D01*
Y214999D01*
X674999Y213000D01*
X672999D01*
X671000Y214999D01*
X688994Y213000D02*
Y224996D01*
X682996Y218998D01*
X690993D01*
X429000Y477996D02*
Y475997D01*
X432999Y471998D01*
X436997Y475997D01*
Y477996D01*
X432999Y471998D02*
Y466000D01*
X440996D02*
X444995D01*
X442995D01*
Y477996D01*
X440996Y475997D01*
X72000Y397996D02*
Y387999D01*
X73999Y386000D01*
X77998D01*
X79997Y387999D01*
Y397996D01*
X83996D02*
X91994D01*
Y395997D01*
X83996Y387999D01*
Y386000D01*
X89754Y635750D02*
X99751D01*
X101750Y637749D01*
Y641748D01*
X99751Y643747D01*
X89754D01*
Y655743D02*
X91753Y651745D01*
X95752Y647746D01*
X99751D01*
X101750Y649745D01*
Y653744D01*
X99751Y655743D01*
X97751D01*
X95752Y653744D01*
Y647746D01*
X43000Y210996D02*
Y200999D01*
X44999Y199000D01*
X48998D01*
X50997Y200999D01*
Y210996D01*
X62993D02*
X54996D01*
Y204998D01*
X58995Y206997D01*
X60994D01*
X62993Y204998D01*
Y200999D01*
X60994Y199000D01*
X56996D01*
X54996Y200999D01*
X46000Y468996D02*
Y458999D01*
X47999Y457000D01*
X51998D01*
X53997Y458999D01*
Y468996D01*
X63994Y457000D02*
Y468996D01*
X57996Y462998D01*
X65993D01*
X543000Y288996D02*
Y278999D01*
X544999Y277000D01*
X548998D01*
X550997Y278999D01*
Y288996D01*
X554996Y286997D02*
X556996Y288996D01*
X560994D01*
X562994Y286997D01*
Y284997D01*
X560994Y282998D01*
X558995D01*
X560994D01*
X562994Y280999D01*
Y278999D01*
X560994Y277000D01*
X556996D01*
X554996Y278999D01*
X204000Y614996D02*
Y604999D01*
X205999Y603000D01*
X209998D01*
X211997Y604999D01*
Y614996D01*
X223994Y603000D02*
X215996D01*
X223994Y610997D01*
Y612997D01*
X221994Y614996D01*
X217995D01*
X215996Y612997D01*
X214000Y370996D02*
Y360999D01*
X215999Y359000D01*
X219998D01*
X221997Y360999D01*
Y370996D01*
X225996Y359000D02*
X229995D01*
X227995D01*
Y370996D01*
X225996Y368997D01*
X21000Y332000D02*
X9004D01*
Y337998D01*
X11003Y339997D01*
X15002D01*
X17001Y337998D01*
Y332000D01*
Y335999D02*
X21000Y339997D01*
Y351993D02*
Y343996D01*
X13003Y351993D01*
X11003D01*
X9004Y349994D01*
Y345995D01*
X11003Y343996D01*
Y355992D02*
X9004Y357992D01*
Y361990D01*
X11003Y363990D01*
X13003D01*
X15002Y361990D01*
Y359991D01*
Y361990D01*
X17001Y363990D01*
X19001D01*
X21000Y361990D01*
Y357992D01*
X19001Y355992D01*
X154000Y163000D02*
X142004D01*
Y168998D01*
X144003Y170997D01*
X148002D01*
X150001Y168998D01*
Y163000D01*
Y166999D02*
X154000Y170997D01*
Y182994D02*
Y174996D01*
X146003Y182994D01*
X144003D01*
X142004Y180994D01*
Y176996D01*
X144003Y174996D01*
X154000Y194990D02*
Y186992D01*
X146003Y194990D01*
X144003D01*
X142004Y192990D01*
Y188992D01*
X144003Y186992D01*
X153000Y411000D02*
X141004D01*
Y416998D01*
X143003Y418997D01*
X147002D01*
X149001Y416998D01*
Y411000D01*
Y414999D02*
X153000Y418997D01*
Y430993D02*
Y422996D01*
X145003Y430993D01*
X143003D01*
X141004Y428994D01*
Y424995D01*
X143003Y422996D01*
X153000Y434992D02*
Y438991D01*
Y436992D01*
X141004D01*
X143003Y434992D01*
X133000Y257000D02*
X121004D01*
Y262998D01*
X123003Y264997D01*
X127002D01*
X129001Y262998D01*
Y257000D01*
Y260999D02*
X133000Y264997D01*
Y276994D02*
Y268996D01*
X125003Y276994D01*
X123003D01*
X121004Y274994D01*
Y270996D01*
X123003Y268996D01*
Y280992D02*
X121004Y282992D01*
Y286990D01*
X123003Y288990D01*
X131001D01*
X133000Y286990D01*
Y282992D01*
X131001Y280992D01*
X123003D01*
X133000Y506000D02*
X121004D01*
Y511998D01*
X123003Y513997D01*
X127002D01*
X129001Y511998D01*
Y506000D01*
Y509999D02*
X133000Y513997D01*
Y517996D02*
Y521995D01*
Y519995D01*
X121004D01*
X123003Y517996D01*
X131001Y527993D02*
X133000Y529992D01*
Y533991D01*
X131001Y535990D01*
X123003D01*
X121004Y533991D01*
Y529992D01*
X123003Y527993D01*
X125003D01*
X127002Y529992D01*
Y535990D01*
X42000Y411000D02*
X30004D01*
Y416998D01*
X32003Y418997D01*
X36002D01*
X38001Y416998D01*
Y411000D01*
Y414999D02*
X42000Y418997D01*
Y422996D02*
Y426995D01*
Y424995D01*
X30004D01*
X32003Y422996D01*
Y432993D02*
X30004Y434992D01*
Y438991D01*
X32003Y440990D01*
X34003D01*
X36002Y438991D01*
X38001Y440990D01*
X40001D01*
X42000Y438991D01*
Y434992D01*
X40001Y432993D01*
X38001D01*
X36002Y434992D01*
X34003Y432993D01*
X32003D01*
X36002Y434992D02*
Y438991D01*
X148000Y647000D02*
X136004D01*
Y652998D01*
X138003Y654997D01*
X142002D01*
X144001Y652998D01*
Y647000D01*
Y650999D02*
X148000Y654997D01*
Y658996D02*
Y662995D01*
Y660995D01*
X136004D01*
X138003Y658996D01*
X136004Y668993D02*
Y676990D01*
X138003D01*
X146001Y668993D01*
X148000D01*
X79000Y693000D02*
Y704996D01*
X84998D01*
X86997Y702997D01*
Y698998D01*
X84998Y696999D01*
X79000D01*
X82999D02*
X86997Y693000D01*
X90996D02*
X94995D01*
X92996D01*
Y704996D01*
X90996Y702997D01*
X108990Y704996D02*
X104992Y702997D01*
X100993Y698998D01*
Y694999D01*
X102992Y693000D01*
X106991D01*
X108990Y694999D01*
Y696999D01*
X106991Y698998D01*
X100993D01*
X553212Y378968D02*
Y390964D01*
X559210D01*
X561209Y388965D01*
Y384966D01*
X559210Y382967D01*
X553212D01*
X557211D02*
X561209Y378968D01*
X565208D02*
X569207D01*
X567207D01*
Y390964D01*
X565208Y388965D01*
X583202Y390964D02*
X575205D01*
Y384966D01*
X579204Y386965D01*
X581203D01*
X583202Y384966D01*
Y380967D01*
X581203Y378968D01*
X577204D01*
X575205Y380967D01*
X393078Y542565D02*
X381082D01*
Y548563D01*
X383082Y550562D01*
X387080D01*
X389080Y548563D01*
Y542565D01*
Y546563D02*
X393078Y550562D01*
Y554561D02*
Y558559D01*
Y556560D01*
X381082D01*
X383082Y554561D01*
X393078Y570556D02*
X381082D01*
X387080Y564558D01*
Y572555D01*
X294000Y467000D02*
Y478996D01*
X299998D01*
X301997Y476997D01*
Y472998D01*
X299998Y470999D01*
X294000D01*
X297999D02*
X301997Y467000D01*
X305996D02*
X309995D01*
X307995D01*
Y478996D01*
X305996Y476997D01*
X315993D02*
X317992Y478996D01*
X321991D01*
X323990Y476997D01*
Y474997D01*
X321991Y472998D01*
X319992D01*
X321991D01*
X323990Y470999D01*
Y468999D01*
X321991Y467000D01*
X317992D01*
X315993Y468999D01*
X189000Y316000D02*
X177004D01*
Y321998D01*
X179003Y323997D01*
X183002D01*
X185001Y321998D01*
Y316000D01*
Y319999D02*
X189000Y323997D01*
Y327996D02*
Y331995D01*
Y329995D01*
X177004D01*
X179003Y327996D01*
X189000Y345990D02*
Y337993D01*
X181003Y345990D01*
X179003D01*
X177004Y343991D01*
Y339992D01*
X179003Y337993D01*
X209000Y316000D02*
X197004D01*
Y321998D01*
X199003Y323997D01*
X203002D01*
X205001Y321998D01*
Y316000D01*
Y319999D02*
X209000Y323997D01*
Y327996D02*
Y331995D01*
Y329995D01*
X197004D01*
X199003Y327996D01*
X209000Y337993D02*
Y341992D01*
Y339992D01*
X197004D01*
X199003Y337993D01*
X355000Y353000D02*
Y364996D01*
X360998D01*
X362997Y362997D01*
Y358998D01*
X360998Y356999D01*
X355000D01*
X358999D02*
X362997Y353000D01*
X366996D02*
X370995D01*
X368996D01*
Y364996D01*
X366996Y362997D01*
X376993D02*
X378992Y364996D01*
X382991D01*
X384990Y362997D01*
Y354999D01*
X382991Y353000D01*
X378992D01*
X376993Y354999D01*
Y362997D01*
X229000Y316000D02*
X217004D01*
Y321998D01*
X219003Y323997D01*
X223002D01*
X225001Y321998D01*
Y316000D01*
Y319999D02*
X229000Y323997D01*
X227001Y327996D02*
X229000Y329995D01*
Y333994D01*
X227001Y335993D01*
X219003D01*
X217004Y333994D01*
Y329995D01*
X219003Y327996D01*
X221003D01*
X223002Y329995D01*
Y335993D01*
X291084Y642874D02*
Y654870D01*
X297082D01*
X299081Y652871D01*
Y648872D01*
X297082Y646873D01*
X291084D01*
X295083D02*
X299081Y642874D01*
X303080Y654870D02*
X311077D01*
Y652871D01*
X303080Y644873D01*
Y642874D01*
X471000Y343000D02*
Y354996D01*
X476998D01*
X478997Y352997D01*
Y348998D01*
X476998Y346999D01*
X471000D01*
X474999D02*
X478997Y343000D01*
X490993Y354996D02*
X486995Y352997D01*
X482996Y348998D01*
Y344999D01*
X484995Y343000D01*
X488994D01*
X490993Y344999D01*
Y346999D01*
X488994Y348998D01*
X482996D01*
X471000Y313000D02*
Y324996D01*
X476998D01*
X478997Y322997D01*
Y318998D01*
X476998Y316999D01*
X471000D01*
X474999D02*
X478997Y313000D01*
X488994D02*
Y324996D01*
X482996Y318998D01*
X490993D01*
X249000Y316000D02*
X237004D01*
Y321998D01*
X239003Y323997D01*
X243002D01*
X245001Y321998D01*
Y316000D01*
Y319999D02*
X249000Y323997D01*
X239003Y327996D02*
X237004Y329995D01*
Y333994D01*
X239003Y335993D01*
X241003D01*
X243002Y333994D01*
Y331995D01*
Y333994D01*
X245001Y335993D01*
X247001D01*
X249000Y333994D01*
Y329995D01*
X247001Y327996D01*
X526000Y467000D02*
X514004D01*
Y472998D01*
X516003Y474997D01*
X520002D01*
X522001Y472998D01*
Y467000D01*
Y470999D02*
X526000Y474997D01*
Y486993D02*
Y478996D01*
X518003Y486993D01*
X516003D01*
X514004Y484994D01*
Y480995D01*
X516003Y478996D01*
X471000Y283000D02*
Y294996D01*
X476998D01*
X478997Y292997D01*
Y288998D01*
X476998Y286999D01*
X471000D01*
X474999D02*
X478997Y283000D01*
X482996D02*
X486995D01*
X484995D01*
Y294996D01*
X482996Y292997D01*
X38004Y258000D02*
X50000D01*
Y265997D01*
Y277994D02*
Y269996D01*
X42003Y277994D01*
X40003D01*
X38004Y275994D01*
Y271996D01*
X40003Y269996D01*
X34000Y523996D02*
Y512000D01*
X41997D01*
X45996D02*
X49995D01*
X47996D01*
Y523996D01*
X45996Y521997D01*
X47004Y68997D02*
Y64999D01*
Y66998D01*
X57001D01*
X59000Y64999D01*
Y62999D01*
X57001Y61000D01*
X49003Y72996D02*
X47004Y74995D01*
Y78994D01*
X49003Y80993D01*
X51003D01*
X53002Y78994D01*
Y76995D01*
Y78994D01*
X55001Y80993D01*
X57001D01*
X59000Y78994D01*
Y74995D01*
X57001Y72996D01*
X654004Y689997D02*
Y685999D01*
Y687998D01*
X664001D01*
X666000Y685999D01*
Y683999D01*
X664001Y682000D01*
X666000Y701993D02*
Y693996D01*
X658003Y701993D01*
X656003D01*
X654004Y699994D01*
Y695995D01*
X656003Y693996D01*
X195997Y224996D02*
X191999D01*
X193998D01*
Y214999D01*
X191999Y213000D01*
X189999D01*
X188000Y214999D01*
X199996Y213000D02*
X203995D01*
X201996D01*
Y224996D01*
X199996Y222997D01*
X9000Y259996D02*
Y248000D01*
X14998D01*
X16997Y249999D01*
Y257997D01*
X14998Y259996D01*
X9000D01*
X20996Y257997D02*
X22996Y259996D01*
X26994D01*
X28993Y257997D01*
Y255997D01*
X26994Y253998D01*
X24995D01*
X26994D01*
X28993Y251999D01*
Y249999D01*
X26994Y248000D01*
X22996D01*
X20996Y249999D01*
X93000Y732996D02*
Y721000D01*
X98998D01*
X100997Y722999D01*
Y730997D01*
X98998Y732996D01*
X93000D01*
X112993Y721000D02*
X104996D01*
X112993Y728997D01*
Y730997D01*
X110994Y732996D01*
X106995D01*
X104996Y730997D01*
X487004Y458000D02*
X499000D01*
Y463998D01*
X497001Y465997D01*
X489003D01*
X487004Y463998D01*
Y458000D01*
X499000Y469996D02*
Y473995D01*
Y471996D01*
X487004D01*
X489003Y469996D01*
X37003Y355997D02*
X35004Y353998D01*
Y349999D01*
X37003Y348000D01*
X45001D01*
X47000Y349999D01*
Y353998D01*
X45001Y355997D01*
X37003Y359996D02*
X35004Y361996D01*
Y365994D01*
X37003Y367994D01*
X39003D01*
X41002Y365994D01*
Y363995D01*
Y365994D01*
X43001Y367994D01*
X45001D01*
X47000Y365994D01*
Y361996D01*
X45001Y359996D01*
X37003Y371992D02*
X35004Y373992D01*
Y377990D01*
X37003Y379990D01*
X39003D01*
X41002Y377990D01*
Y375991D01*
Y377990D01*
X43001Y379990D01*
X45001D01*
X47000Y377990D01*
Y373992D01*
X45001Y371992D01*
X136003Y346997D02*
X134004Y344998D01*
Y340999D01*
X136003Y339000D01*
X144001D01*
X146000Y340999D01*
Y344998D01*
X144001Y346997D01*
X136003Y350996D02*
X134004Y352995D01*
Y356994D01*
X136003Y358993D01*
X138003D01*
X140002Y356994D01*
Y354995D01*
Y356994D01*
X142001Y358993D01*
X144001D01*
X146000Y356994D01*
Y352995D01*
X144001Y350996D01*
X146000Y370990D02*
Y362992D01*
X138003Y370990D01*
X136003D01*
X134004Y368990D01*
Y364992D01*
X136003Y362992D01*
X37003Y597997D02*
X35004Y595998D01*
Y591999D01*
X37003Y590000D01*
X45001D01*
X47000Y591999D01*
Y595998D01*
X45001Y597997D01*
X37003Y601996D02*
X35004Y603996D01*
Y607994D01*
X37003Y609994D01*
X39003D01*
X41002Y607994D01*
Y605995D01*
Y607994D01*
X43001Y609994D01*
X45001D01*
X47000Y607994D01*
Y603996D01*
X45001Y601996D01*
X47000Y613992D02*
Y617991D01*
Y615992D01*
X35004D01*
X37003Y613992D01*
X116003Y643997D02*
X114004Y641998D01*
Y637999D01*
X116003Y636000D01*
X124001D01*
X126000Y637999D01*
Y641998D01*
X124001Y643997D01*
X116003Y647996D02*
X114004Y649995D01*
Y653994D01*
X116003Y655993D01*
X118003D01*
X120002Y653994D01*
Y651995D01*
Y653994D01*
X122001Y655993D01*
X124001D01*
X126000Y653994D01*
Y649995D01*
X124001Y647996D01*
X116003Y659992D02*
X114004Y661992D01*
Y665990D01*
X116003Y667990D01*
X124001D01*
X126000Y665990D01*
Y661992D01*
X124001Y659992D01*
X116003D01*
X129997Y318997D02*
X127998Y320996D01*
X123999D01*
X122000Y318997D01*
Y310999D01*
X123999Y309000D01*
X127998D01*
X129997Y310999D01*
X141994Y309000D02*
X133996D01*
X141994Y316997D01*
Y318997D01*
X139994Y320996D01*
X135996D01*
X133996Y318997D01*
X145992Y310999D02*
X147992Y309000D01*
X151990D01*
X153990Y310999D01*
Y318997D01*
X151990Y320996D01*
X147992D01*
X145992Y318997D01*
Y316997D01*
X147992Y314998D01*
X153990D01*
X145003Y264997D02*
X143004Y262998D01*
Y258999D01*
X145003Y257000D01*
X153001D01*
X155000Y258999D01*
Y262998D01*
X153001Y264997D01*
X155000Y276994D02*
Y268996D01*
X147003Y276994D01*
X145003D01*
X143004Y274994D01*
Y270996D01*
X145003Y268996D01*
Y280992D02*
X143004Y282992D01*
Y286990D01*
X145003Y288990D01*
X147003D01*
X149002Y286990D01*
X151001Y288990D01*
X153001D01*
X155000Y286990D01*
Y282992D01*
X153001Y280992D01*
X151001D01*
X149002Y282992D01*
X147003Y280992D01*
X145003D01*
X149002Y282992D02*
Y286990D01*
X53003Y166997D02*
X51004Y164998D01*
Y160999D01*
X53003Y159000D01*
X61001D01*
X63000Y160999D01*
Y164998D01*
X61001Y166997D01*
X63000Y178993D02*
Y170996D01*
X55003Y178993D01*
X53003D01*
X51004Y176994D01*
Y172995D01*
X53003Y170996D01*
X51004Y182992D02*
Y190990D01*
X53003D01*
X61001Y182992D01*
X63000D01*
X39997Y568997D02*
X37998Y570996D01*
X33999D01*
X32000Y568997D01*
Y560999D01*
X33999Y559000D01*
X37998D01*
X39997Y560999D01*
X51993Y559000D02*
X43996D01*
X51993Y566997D01*
Y568997D01*
X49994Y570996D01*
X45995D01*
X43996Y568997D01*
X63990Y570996D02*
X59991Y568997D01*
X55992Y564998D01*
Y560999D01*
X57992Y559000D01*
X61990D01*
X63990Y560999D01*
Y562999D01*
X61990Y564998D01*
X55992D01*
X144003Y513997D02*
X142004Y511998D01*
Y507999D01*
X144003Y506000D01*
X152001D01*
X154000Y507999D01*
Y511998D01*
X152001Y513997D01*
X154000Y525993D02*
Y517996D01*
X146003Y525993D01*
X144003D01*
X142004Y523994D01*
Y519995D01*
X144003Y517996D01*
X142004Y537990D02*
Y529992D01*
X148002D01*
X146003Y533991D01*
Y535990D01*
X148002Y537990D01*
X152001D01*
X154000Y535990D01*
Y531992D01*
X152001Y529992D01*
X119997Y400997D02*
X117998Y402996D01*
X113999D01*
X112000Y400997D01*
Y392999D01*
X113999Y391000D01*
X117998D01*
X119997Y392999D01*
X131994Y391000D02*
X123996D01*
X131994Y398997D01*
Y400997D01*
X129994Y402996D01*
X125996D01*
X123996Y400997D01*
X141990Y391000D02*
Y402996D01*
X135992Y396998D01*
X143990D01*
X603997Y398997D02*
X601998Y400996D01*
X597999D01*
X596000Y398997D01*
Y390999D01*
X597999Y389000D01*
X601998D01*
X603997Y390999D01*
X615993Y389000D02*
X607996D01*
X615993Y396997D01*
Y398997D01*
X613994Y400996D01*
X609995D01*
X607996Y398997D01*
X619992D02*
X621992Y400996D01*
X625990D01*
X627990Y398997D01*
Y396997D01*
X625990Y394998D01*
X623991D01*
X625990D01*
X627990Y392999D01*
Y390999D01*
X625990Y389000D01*
X621992D01*
X619992Y390999D01*
X431997Y432997D02*
X429998Y434996D01*
X425999D01*
X424000Y432997D01*
Y424999D01*
X425999Y423000D01*
X429998D01*
X431997Y424999D01*
X435996Y423000D02*
X439995D01*
X437995D01*
Y434996D01*
X435996Y432997D01*
X451991Y423000D02*
Y434996D01*
X445993Y428998D01*
X453990D01*
X198997Y445997D02*
X196998Y447996D01*
X192999D01*
X191000Y445997D01*
Y437999D01*
X192999Y436000D01*
X196998D01*
X198997Y437999D01*
X202996Y436000D02*
X206995D01*
X204995D01*
Y447996D01*
X202996Y445997D01*
X212993Y436000D02*
X216992D01*
X214992D01*
Y447996D01*
X212993Y445997D01*
X443997Y403997D02*
X441998Y405996D01*
X437999D01*
X436000Y403997D01*
Y395999D01*
X437999Y394000D01*
X441998D01*
X443997Y395999D01*
X447996Y394000D02*
X451995D01*
X449995D01*
Y405996D01*
X447996Y403997D01*
X457993D02*
X459992Y405996D01*
X463991D01*
X465990Y403997D01*
Y395999D01*
X463991Y394000D01*
X459992D01*
X457993Y395999D01*
Y403997D01*
X192997Y258997D02*
X190998Y260996D01*
X186999D01*
X185000Y258997D01*
Y250999D01*
X186999Y249000D01*
X190998D01*
X192997Y250999D01*
X196996D02*
X198995Y249000D01*
X202994D01*
X204993Y250999D01*
Y258997D01*
X202994Y260996D01*
X198995D01*
X196996Y258997D01*
Y256997D01*
X198995Y254998D01*
X204993D01*
X332997Y339997D02*
X330998Y341996D01*
X326999D01*
X325000Y339997D01*
Y331999D01*
X326999Y330000D01*
X330998D01*
X332997Y331999D01*
X336996Y339997D02*
X338996Y341996D01*
X342994D01*
X344994Y339997D01*
Y337997D01*
X342994Y335998D01*
X344994Y333999D01*
Y331999D01*
X342994Y330000D01*
X338996D01*
X336996Y331999D01*
Y333999D01*
X338996Y335998D01*
X336996Y337997D01*
Y339997D01*
X338996Y335998D02*
X342994D01*
X366003Y288997D02*
X364004Y286998D01*
Y282999D01*
X366003Y281000D01*
X374001D01*
X376000Y282999D01*
Y286998D01*
X374001Y288997D01*
X364004Y292996D02*
Y300993D01*
X366003D01*
X374001Y292996D01*
X376000D01*
X303997Y277997D02*
X301998Y279996D01*
X297999D01*
X296000Y277997D01*
Y269999D01*
X297999Y268000D01*
X301998D01*
X303997Y269999D01*
X315993Y279996D02*
X311995Y277997D01*
X307996Y273998D01*
Y269999D01*
X309995Y268000D01*
X313994D01*
X315993Y269999D01*
Y271999D01*
X313994Y273998D01*
X307996D01*
X331997Y445997D02*
X329998Y447996D01*
X325999D01*
X324000Y445997D01*
Y437999D01*
X325999Y436000D01*
X329998D01*
X331997Y437999D01*
X343993Y447996D02*
X335996D01*
Y441998D01*
X339995Y443997D01*
X341994D01*
X343993Y441998D01*
Y437999D01*
X341994Y436000D01*
X337995D01*
X335996Y437999D01*
X342261Y652871D02*
X340262Y654870D01*
X336263D01*
X334264Y652871D01*
Y644873D01*
X336263Y642874D01*
X340262D01*
X342261Y644873D01*
X352258Y642874D02*
Y654870D01*
X346260Y648872D01*
X354258D01*
X324997Y259997D02*
X322998Y261996D01*
X318999D01*
X317000Y259997D01*
Y251999D01*
X318999Y250000D01*
X322998D01*
X324997Y251999D01*
X328996Y259997D02*
X330995Y261996D01*
X334994D01*
X336993Y259997D01*
Y257997D01*
X334994Y255998D01*
X332995D01*
X334994D01*
X336993Y253999D01*
Y251999D01*
X334994Y250000D01*
X330995D01*
X328996Y251999D01*
X217000Y719000D02*
Y730996D01*
X222998D01*
X224997Y728997D01*
Y724998D01*
X222998Y722999D01*
X217000D01*
X228996Y719000D02*
X232995D01*
X230996D01*
Y730996D01*
X228996Y728997D01*
X303000Y719000D02*
Y730996D01*
X308998D01*
X310997Y728997D01*
Y724998D01*
X308998Y722999D01*
X303000D01*
X322994Y719000D02*
X314996D01*
X322994Y726997D01*
Y728997D01*
X320994Y730996D01*
X316996D01*
X314996Y728997D01*
X392000Y719000D02*
Y730996D01*
X397998D01*
X399997Y728997D01*
Y724998D01*
X397998Y722999D01*
X392000D01*
X403996Y728997D02*
X405995Y730996D01*
X409994D01*
X411993Y728997D01*
Y726997D01*
X409994Y724998D01*
X407995D01*
X409994D01*
X411993Y722999D01*
Y720999D01*
X409994Y719000D01*
X405995D01*
X403996Y720999D01*
X445000Y372000D02*
Y383996D01*
X450998D01*
X452997Y381997D01*
Y377998D01*
X450998Y375999D01*
X445000D01*
X448999D02*
X452997Y372000D01*
X464994D02*
X456996D01*
X464994Y379997D01*
Y381997D01*
X462994Y383996D01*
X458996D01*
X456996Y381997D01*
X468992Y383996D02*
X476990D01*
Y381997D01*
X468992Y373999D01*
Y372000D01*
X177000Y721000D02*
X180999D01*
X178999D01*
Y732996D01*
X177000Y730997D01*
X186997Y721000D02*
Y732996D01*
X192995D01*
X194994Y730997D01*
Y726998D01*
X192995Y724999D01*
X186997D01*
X227518Y685482D02*
X233172Y679827D01*
X238827D01*
X238827Y685482D01*
X233172Y691138D01*
X236000Y693965D02*
X238827Y696793D01*
X237414Y695379D01*
X245896Y686896D01*
X244482Y685482D01*
X247310Y688310D01*
X251551Y692551D02*
X243069Y701034D01*
X257206Y698206D01*
X248724Y706689D01*
X262586Y689724D02*
X259759Y689724D01*
X256931Y686896D01*
X256931Y684069D01*
X262586Y678414D01*
X265414D01*
X268241Y681241D01*
Y684069D01*
X265414Y686896D01*
X262586Y684069D01*
X272482Y685482D02*
X264000Y693965D01*
X278138Y691138D01*
X269655Y699620D01*
X272482Y702448D02*
X280965Y693965D01*
X285206Y698206D01*
Y701034D01*
X279551Y706689D01*
X276724Y706689D01*
X272482Y702448D01*
X319517Y687483D02*
X328000Y679000D01*
X332241Y683241D01*
Y686069D01*
X326586Y691724D01*
X323759Y691724D01*
X319517Y687483D01*
X336483D02*
X339310Y690310D01*
X337896Y688896D01*
X329414Y697379D01*
X329414Y694551D01*
X336483Y701620D02*
X336483Y704448D01*
X339310Y707275D01*
X342138Y707275D01*
X347793Y701620D01*
Y698793D01*
X344965Y695965D01*
X342138D01*
X336483Y701620D01*
X351586Y689724D02*
X348759Y689724D01*
X345931Y686896D01*
X345931Y684069D01*
X351586Y678414D01*
X354414D01*
X357241Y681241D01*
Y684069D01*
X354414Y686896D01*
X351586Y684069D01*
X361483Y685483D02*
X353000Y693965D01*
X367138Y691138D01*
X358655Y699620D01*
X361483Y702448D02*
X369965Y693965D01*
X374206Y698206D01*
Y701034D01*
X368551Y706689D01*
X365724Y706689D01*
X361483Y702448D01*
X406517Y685483D02*
X415000Y677000D01*
X419241Y681241D01*
Y684069D01*
X413586Y689724D01*
X410759Y689724D01*
X406517Y685483D01*
X416414Y692551D02*
X416414Y695379D01*
X419241Y698206D01*
X422069Y698206D01*
X423483Y696793D01*
Y693965D01*
X422069Y692551D01*
X423483Y693965D01*
X426310D01*
X427724Y692551D01*
Y689724D01*
X424896Y686896D01*
X422069D01*
X424896Y701034D02*
X424896Y703861D01*
X427724Y706689D01*
X430551Y706689D01*
X431965Y705275D01*
Y702448D01*
X430551Y701034D01*
X431965Y702448D01*
X434793D01*
X436206Y701034D01*
Y698206D01*
X433379Y695379D01*
X430551D01*
X441586Y689724D02*
X438759Y689724D01*
X435931Y686896D01*
X435931Y684069D01*
X441586Y678414D01*
X444414D01*
X447241Y681241D01*
Y684069D01*
X444414Y686896D01*
X441586Y684069D01*
X451483Y685482D02*
X443000Y693965D01*
X457138Y691138D01*
X448655Y699620D01*
X451483Y702448D02*
X459965Y693965D01*
X464206Y698206D01*
Y701034D01*
X458551Y706689D01*
X455724Y706689D01*
X451483Y702448D01*
X467003Y421997D02*
X465004Y419998D01*
Y415999D01*
X467003Y414000D01*
X469003D01*
X471002Y415999D01*
Y419998D01*
X473001Y421997D01*
X475001D01*
X477000Y419998D01*
Y415999D01*
X475001Y414000D01*
X477000Y425996D02*
X465004D01*
Y431994D01*
X467003Y433993D01*
X471002D01*
X473001Y431994D01*
Y425996D01*
X465004Y445990D02*
Y437992D01*
X477000D01*
Y445990D01*
X471002Y437992D02*
Y441991D01*
X465004Y457986D02*
Y449988D01*
X477000D01*
Y457986D01*
X471002Y449988D02*
Y453987D01*
X465004Y461984D02*
X477000D01*
Y467982D01*
X475001Y469982D01*
X467003D01*
X465004Y467982D01*
Y461984D01*
X527518Y677483D02*
X541655Y674655D01*
X533172Y683138D02*
X536000Y669000D01*
X537414Y684551D02*
X537414Y687379D01*
X540241Y690206D01*
X543069Y690206D01*
X548724Y684551D01*
Y681724D01*
X545896Y678896D01*
X543069D01*
X537414Y684551D01*
X544482Y694448D02*
X552965Y685965D01*
X557206Y690206D01*
Y693034D01*
X551551Y698689D01*
X548724Y698689D01*
X544482Y694448D01*
X565689Y698689D02*
X557206Y707171D01*
Y698689D01*
X562861Y704344D01*
X551917Y676482D02*
X566055Y673655D01*
X557573Y682138D02*
X560400Y668000D01*
X561814Y683551D02*
X561814Y686379D01*
X564641Y689206D01*
X567469Y689206D01*
X573124Y683551D01*
Y680724D01*
X570296Y677896D01*
X567469D01*
X561814Y683551D01*
X568882Y693448D02*
X577365Y684965D01*
X581606Y689206D01*
Y692034D01*
X575951Y697689D01*
X573124Y697689D01*
X568882Y693448D01*
X583020Y707585D02*
X577365Y701930D01*
X581606Y697689D01*
X583020Y701930D01*
X584434Y703344D01*
X587261D01*
X590089Y700516D01*
Y697689D01*
X587261Y694861D01*
X584434D01*
X577518Y677483D02*
X591655Y674655D01*
X583172Y683138D02*
X586000Y669000D01*
X587414Y684551D02*
X587414Y687379D01*
X590241Y690206D01*
X593069Y690206D01*
X598724Y684551D01*
Y681724D01*
X595896Y678896D01*
X593069D01*
X587414Y684551D01*
X594482Y694448D02*
X602965Y685965D01*
X607206Y690206D01*
Y693034D01*
X601551Y698689D01*
X598724Y698689D01*
X594482Y694448D01*
X604379Y701516D02*
X604379Y704344D01*
X607206Y707171D01*
X610034Y707171D01*
X611448Y705758D01*
Y702930D01*
X614275D01*
X615689Y701516D01*
Y698689D01*
X612861Y695861D01*
X610034D01*
X608620Y697275D01*
Y700103D01*
X605793D01*
X604379Y701516D01*
X608620Y700103D02*
X611448Y702930D01*
X603517Y677483D02*
X617655Y674655D01*
X609173Y683138D02*
X612000Y669000D01*
X613414Y684551D02*
X613414Y687379D01*
X616241Y690206D01*
X619069Y690206D01*
X624724Y684551D01*
Y681724D01*
X621896Y678896D01*
X619069D01*
X613414Y684551D01*
X620482Y694448D02*
X628965Y685965D01*
X633206Y690206D01*
Y693034D01*
X627551Y698689D01*
X624724Y698689D01*
X620482Y694448D01*
X636034Y695861D02*
X638861D01*
X641689Y698689D01*
Y701516D01*
X636034Y707171D01*
X633206Y707171D01*
X630379Y704344D01*
X630379Y701516D01*
X631793Y700103D01*
X634620D01*
X638861Y704344D01*
X465518Y668483D02*
X479655Y665655D01*
X471172Y674137D02*
X474000Y660000D01*
X475414Y675551D02*
X475414Y678379D01*
X478241Y681206D01*
X481069Y681206D01*
X486724Y675551D01*
Y672724D01*
X483896Y669896D01*
X481069D01*
X475414Y675551D01*
X482483Y685448D02*
X490965Y676965D01*
X495206Y681206D01*
Y684034D01*
X489551Y689689D01*
X486724Y689689D01*
X482483Y685448D01*
X492379Y692516D02*
X492379Y695344D01*
X495206Y698171D01*
X498034Y698171D01*
X499448Y696758D01*
Y693930D01*
X498034Y692516D01*
X499448Y693930D01*
X502275D01*
X503689Y692516D01*
Y689689D01*
X500861Y686861D01*
X498034D01*
X499448Y702413D02*
X505103Y708068D01*
X506516Y706654D01*
Y695344D01*
X507930Y693930D01*
X492518Y668483D02*
X506655Y665655D01*
X498172Y674138D02*
X501000Y660000D01*
X502414Y675551D02*
X502414Y678379D01*
X505241Y681206D01*
X508069Y681206D01*
X513724Y675551D01*
Y672724D01*
X510896Y669896D01*
X508069D01*
X502414Y675551D01*
X509482Y685448D02*
X517965Y676965D01*
X522206Y681206D01*
Y684034D01*
X516551Y689689D01*
X513724Y689689D01*
X509482Y685448D01*
X519379Y692516D02*
X519379Y695344D01*
X522206Y698171D01*
X525034Y698171D01*
X526448Y696758D01*
Y693930D01*
X525034Y692516D01*
X526448Y693930D01*
X529275D01*
X530689Y692516D01*
Y689689D01*
X527861Y686861D01*
X525034D01*
X527861Y700999D02*
X527861Y703826D01*
X530689Y706654D01*
X533516Y706654D01*
X534930Y705240D01*
Y702413D01*
X537758D01*
X539171Y700999D01*
Y698171D01*
X536344Y695344D01*
X533516D01*
X532103Y696758D01*
Y699585D01*
X529275D01*
X527861Y700999D01*
X532103Y699585D02*
X534930Y702413D01*
D33*
X330000Y468000D02*
X351000D01*
X60500Y518000D02*
X100500D01*
X60500Y268000D02*
X100500D01*
D34*
X324500Y513000D02*
G03*
X324500Y513000I-2500J0D01*
G01*
D40*
X588250Y423750D02*
G03*
X588250Y423750I-1250J0D01*
G01*
X648750Y624300D02*
G03*
X648750Y624300I-1250J0D01*
G01*
X592750Y53000D02*
G03*
X592750Y53000I-1250J0D01*
G01*
X241600Y414500D02*
G03*
X241600Y414500I-1250J0D01*
G01*
X543550Y352050D02*
G03*
X543550Y352050I-1250J0D01*
G01*
X73000Y448000D02*
G03*
X73000Y448000I-1250J0D01*
G01*
Y198000D02*
G03*
X73000Y198000I-1250J0D01*
G01*
X348250Y506000D02*
G03*
X348250Y506000I-1250J0D01*
G01*
D59*
X276500Y396500D02*
G03*
X276500Y396500I-3000J0D01*
G01*
D60*
X105750Y628900D02*
G03*
X105750Y628900I-500J0D01*
G01*
Y378900D02*
G03*
X105750Y378900I-500J0D01*
G01*
D61*
X427000Y455000D02*
G03*
X427000Y455000I-1000J0D01*
G01*
X40000Y80000D02*
Y160000D01*
X10000Y80000D02*
X40000D01*
X10000D02*
Y160000D01*
X40000D01*
X656000Y718000D02*
Y733235D01*
X663617D01*
X666157Y730696D01*
Y725618D01*
X663617Y723078D01*
X656000D01*
X678853Y718000D02*
Y733235D01*
X671235Y725618D01*
X681392D01*
X628765Y449000D02*
X644000Y459157D01*
X628765D02*
X644000Y449000D01*
X631304Y474392D02*
X628765Y471853D01*
Y466774D01*
X631304Y464235D01*
X633843D01*
X636382Y466774D01*
Y471853D01*
X638922Y474392D01*
X641461D01*
X644000Y471853D01*
Y466774D01*
X641461Y464235D01*
X628765Y479470D02*
X631304D01*
X636382Y484548D01*
X631304Y489627D01*
X628765D01*
X636382Y484548D02*
X644000D01*
X631304Y504862D02*
X628765Y502323D01*
Y497244D01*
X631304Y494705D01*
X633843D01*
X636382Y497244D01*
Y502323D01*
X638922Y504862D01*
X641461D01*
X644000Y502323D01*
Y497244D01*
X641461Y494705D01*
X644000Y520097D02*
Y509940D01*
X633843Y520097D01*
X631304D01*
X628765Y517558D01*
Y512480D01*
X631304Y509940D01*
Y550567D02*
X628765Y548028D01*
Y542950D01*
X631304Y540410D01*
X641461D01*
X644000Y542950D01*
Y548028D01*
X641461Y550567D01*
X628765Y563263D02*
Y558185D01*
X631304Y555645D01*
X641461D01*
X644000Y558185D01*
Y563263D01*
X641461Y565802D01*
X631304D01*
X628765Y563263D01*
X644000Y570881D02*
X628765D01*
X644000Y581037D01*
X628765D01*
X296017Y49256D02*
X293477Y51795D01*
X288399D01*
X285860Y49256D01*
Y39099D01*
X288399Y36560D01*
X293477D01*
X296017Y39099D01*
Y44177D01*
X290938D01*
X230690Y49265D02*
Y46726D01*
X235768Y41648D01*
X240847Y46726D01*
Y49265D01*
X235768Y41648D02*
Y34030D01*
X488157Y216696D02*
X485617Y219235D01*
X480539D01*
X478000Y216696D01*
Y214157D01*
X480539Y211618D01*
X485617D01*
X488157Y209078D01*
Y206539D01*
X485617Y204000D01*
X480539D01*
X478000Y206539D01*
X493235Y219235D02*
Y204000D01*
X500853D01*
X503392Y206539D01*
Y216696D01*
X500853Y219235D01*
X493235D01*
X533862Y216696D02*
X531323Y219235D01*
X526244D01*
X523705Y216696D01*
Y206539D01*
X526244Y204000D01*
X531323D01*
X533862Y206539D01*
X541479Y214157D02*
X546558D01*
X549097Y211618D01*
Y204000D01*
X541479D01*
X538940Y206539D01*
X541479Y209078D01*
X549097D01*
X554175Y214157D02*
Y204000D01*
Y209078D01*
X556715Y211618D01*
X559254Y214157D01*
X561793D01*
X579567Y219235D02*
Y204000D01*
X571950D01*
X569410Y206539D01*
Y211618D01*
X571950Y214157D01*
X579567D01*
D62*
X531100Y375100D02*
X546900D01*
X531100D02*
Y412900D01*
X546900D01*
Y375100D02*
Y412900D01*
X602100Y413100D02*
Y450900D01*
Y413100D02*
X617900D01*
Y450900D01*
X602100D02*
X617900D01*
X391900Y331100D02*
Y346900D01*
X354100Y331100D02*
X391900D01*
X354100D02*
Y346900D01*
X391900D01*
X311900Y247100D02*
Y262900D01*
X274100Y247100D02*
X311900D01*
X274100D02*
Y262900D01*
X311900D01*
X370900Y619100D02*
Y634900D01*
X333100Y619100D02*
X370900D01*
X333100D02*
Y634900D01*
X370900D01*
X362900Y415100D02*
Y430900D01*
X325100Y415100D02*
X362900D01*
X325100D02*
Y430900D01*
X362900D01*
X295100Y285100D02*
X310900D01*
X295100D02*
Y322900D01*
X310900D01*
Y285100D02*
Y322900D01*
X316100Y285100D02*
X331900D01*
X316100D02*
Y322900D01*
X331900D01*
Y285100D02*
Y322900D01*
X210100Y247100D02*
Y262900D01*
X247900D01*
Y247100D02*
Y262900D01*
X210100Y247100D02*
X247900D01*
X222100Y435100D02*
Y450900D01*
X259900D01*
Y435100D02*
Y450900D01*
X222100Y435100D02*
X259900D01*
X418900Y421100D02*
Y436900D01*
X381100Y421100D02*
X418900D01*
X381100D02*
Y436900D01*
X418900D01*
X632900Y355100D02*
Y370900D01*
X595100Y355100D02*
X632900D01*
X595100D02*
Y370900D01*
X632900D01*
X140100Y463100D02*
X155900D01*
X140100D02*
Y500900D01*
X155900D01*
Y463100D02*
Y500900D01*
X140100Y213100D02*
X155900D01*
X140100D02*
Y250900D01*
X155900D01*
Y213100D02*
Y250900D01*
X112100Y626900D02*
X127900D01*
Y589100D02*
Y626900D01*
X112100Y589100D02*
X127900D01*
X112100D02*
Y626900D01*
X52100D02*
X67900D01*
Y589100D02*
Y626900D01*
X52100Y589100D02*
X67900D01*
X52100D02*
Y626900D01*
X112100Y376900D02*
X127900D01*
Y339100D02*
Y376900D01*
X112100Y339100D02*
X127900D01*
X112100D02*
Y376900D01*
X52100D02*
X67900D01*
Y339100D02*
Y376900D01*
X52100Y339100D02*
X67900D01*
X52100D02*
Y376900D01*
X427100Y281100D02*
Y296900D01*
X464900D01*
Y281100D02*
Y296900D01*
X427100Y281100D02*
X464900D01*
X274100Y269100D02*
X289900D01*
X274100D02*
Y306900D01*
X289900D01*
Y269100D02*
Y306900D01*
X427100Y311100D02*
Y326900D01*
X464900D01*
Y311100D02*
Y326900D01*
X427100Y311100D02*
X464900D01*
X427100Y341100D02*
Y356900D01*
X464900D01*
Y341100D02*
Y356900D01*
X427100Y341100D02*
X464900D01*
X327900Y619100D02*
Y634900D01*
X290100Y619100D02*
X327900D01*
X290100D02*
Y634900D01*
X327900D01*
X253100Y306900D02*
X268900D01*
Y269100D02*
Y306900D01*
X253100Y269100D02*
X268900D01*
X253100D02*
Y306900D01*
X232100Y269100D02*
X247900D01*
X232100D02*
Y306900D01*
X247900D01*
Y269100D02*
Y306900D01*
X211100D02*
X226900D01*
Y269100D02*
Y306900D01*
X211100Y269100D02*
X226900D01*
X211100D02*
Y306900D01*
X357100Y452100D02*
X372900D01*
X357100D02*
Y489900D01*
X372900D01*
Y452100D02*
Y489900D01*
X381100Y536900D02*
X396900D01*
Y499100D02*
Y536900D01*
X381100Y499100D02*
X396900D01*
X381100D02*
Y536900D01*
X552100Y355100D02*
Y370900D01*
X589900D01*
Y355100D02*
Y370900D01*
X552100Y355100D02*
X589900D01*
X151900Y691100D02*
Y706900D01*
X114100Y691100D02*
X151900D01*
X114100D02*
Y706900D01*
X151900D01*
X133100Y626900D02*
X148900D01*
Y589100D02*
Y626900D01*
X133100Y589100D02*
X148900D01*
X133100D02*
Y626900D01*
X47100Y448900D02*
X62900D01*
Y411100D02*
Y448900D01*
X47100Y411100D02*
X62900D01*
X47100D02*
Y448900D01*
X119100Y463100D02*
X134900D01*
X119100D02*
Y500900D01*
X134900D01*
Y463100D02*
Y500900D01*
X119100Y213100D02*
X134900D01*
X119100D02*
Y250900D01*
X134900D01*
Y213100D02*
Y250900D01*
X119100Y411100D02*
X134900D01*
X119100D02*
Y448900D01*
X134900D01*
Y411100D02*
Y448900D01*
X119100Y161100D02*
X134900D01*
X119100D02*
Y198900D01*
X134900D01*
Y161100D02*
Y198900D01*
X9100Y311900D02*
X24900D01*
Y274100D02*
Y311900D01*
X9100Y274100D02*
X24900D01*
X9100D02*
Y311900D01*
X632100Y277100D02*
Y292900D01*
X669900D01*
Y277100D02*
Y292900D01*
X632100Y277100D02*
X669900D01*
X400100Y370100D02*
Y385900D01*
X437900D01*
Y370100D02*
Y385900D01*
X400100Y370100D02*
X437900D01*
X513100Y460900D02*
X528900D01*
Y423100D02*
Y460900D01*
X513100Y423100D02*
X528900D01*
X513100D02*
Y460900D01*
D63*
X411820Y656206D02*
X602320D01*
X411820Y655952D02*
X602320D01*
X411820Y655698D02*
X602320D01*
X411820Y655444D02*
X602320D01*
X411820Y655190D02*
X602320D01*
X411820Y654936D02*
X602320D01*
X411820Y654682D02*
X602320D01*
X411820Y654428D02*
X602320D01*
X411820Y654174D02*
X602320D01*
X411820Y653920D02*
X602320D01*
X411820Y653666D02*
X602320D01*
X411820Y653412D02*
X602320D01*
X411820Y653158D02*
X602320D01*
X411820Y652904D02*
X602320D01*
X411820Y652650D02*
X602320D01*
X411820Y652396D02*
X602320D01*
X411820Y652142D02*
X602320D01*
X411820Y651888D02*
X602320D01*
X411820Y651634D02*
X602320D01*
X411820Y651380D02*
X602320D01*
X411820Y651126D02*
X602320D01*
X411820Y650872D02*
X462874D01*
X465922D02*
X477606D01*
X480908D02*
X511134D01*
X514436D02*
X602320D01*
X411820Y650618D02*
X420710D01*
X425790D02*
X430870D01*
X436204D02*
X442046D01*
X443570D02*
X450682D01*
X452206D02*
X461858D01*
X466938D02*
X476844D01*
X481924D02*
X492592D01*
X495640D02*
X503006D01*
X506054D02*
X510372D01*
X515452D02*
X526882D01*
X528152D02*
X542884D01*
X545932D02*
X562696D01*
X563966D02*
X602320D01*
X411820Y650364D02*
X420710D01*
X425790D02*
X430870D01*
X436204D02*
X442046D01*
X443570D02*
X450682D01*
X452206D02*
X461350D01*
X467700D02*
X476336D01*
X482686D02*
X492846D01*
X495894D02*
X502752D01*
X505800D02*
X509864D01*
X516214D02*
X526628D01*
X528152D02*
X542884D01*
X545932D02*
X562442D01*
X563966D02*
X602320D01*
X411820Y650110D02*
X420710D01*
X426044D02*
X430616D01*
X436204D02*
X441792D01*
X443824D02*
X450428D01*
X452460D02*
X460842D01*
X468208D02*
X475828D01*
X483194D02*
X493100D01*
X496148D02*
X502498D01*
X505546D02*
X509356D01*
X516722D02*
X526374D01*
X528152D02*
X542884D01*
X545932D02*
X562188D01*
X563966D02*
X602320D01*
X411820Y649856D02*
X420964D01*
X426298D02*
X430616D01*
X435950D02*
X441792D01*
X443824D02*
X450428D01*
X452460D02*
X460334D01*
X468462D02*
X475574D01*
X483448D02*
X493100D01*
X496148D02*
X502498D01*
X505546D02*
X509102D01*
X516976D02*
X526120D01*
X528152D02*
X542884D01*
X545932D02*
X561934D01*
X563966D02*
X602320D01*
X411820Y649602D02*
X420964D01*
X426298D02*
X430362D01*
X435696D02*
X441792D01*
X443824D02*
X450428D01*
X452460D02*
X460080D01*
X468970D02*
X475066D01*
X483448D02*
X493354D01*
X496402D02*
X502244D01*
X505292D02*
X508594D01*
X516976D02*
X525866D01*
X528152D02*
X542884D01*
X545932D02*
X561680D01*
X563966D02*
X602320D01*
X411820Y649348D02*
X421218D01*
X426552D02*
X430108D01*
X435696D02*
X441792D01*
X444078D02*
X450174D01*
X452460D02*
X459826D01*
X469224D02*
X474812D01*
X483194D02*
X493354D01*
X496402D02*
X501990D01*
X505038D02*
X508340D01*
X516722D02*
X525612D01*
X528152D02*
X542884D01*
X545932D02*
X561426D01*
X563966D02*
X602320D01*
X411820Y649094D02*
X421218D01*
X426806D02*
X430108D01*
X435442D02*
X441792D01*
X444078D02*
X450174D01*
X452460D02*
X459572D01*
X469478D02*
X474812D01*
X483194D02*
X493608D01*
X496656D02*
X501990D01*
X505038D02*
X508340D01*
X516722D02*
X525358D01*
X528152D02*
X542884D01*
X545932D02*
X561172D01*
X563966D02*
X602320D01*
X411820Y648840D02*
X421472D01*
X426806D02*
X429854D01*
X435442D02*
X441538D01*
X444078D02*
X450174D01*
X452714D02*
X459318D01*
X469732D02*
X474558D01*
X483194D02*
X493862D01*
X496910D02*
X501736D01*
X504784D02*
X508086D01*
X516722D02*
X524850D01*
X528152D02*
X542884D01*
X545932D02*
X560664D01*
X563966D02*
X602320D01*
X411820Y648586D02*
X421726D01*
X427060D02*
X429600D01*
X434934D02*
X441538D01*
X444332D02*
X449920D01*
X452714D02*
X459064D01*
X469986D02*
X474304D01*
X482940D02*
X493862D01*
X496910D02*
X501736D01*
X504784D02*
X507832D01*
X516468D02*
X524596D01*
X528152D02*
X542884D01*
X545932D02*
X560410D01*
X563966D02*
X602320D01*
X411820Y648332D02*
X421726D01*
X427060D02*
X429346D01*
X434934D02*
X441538D01*
X444332D02*
X449920D01*
X452714D02*
X458810D01*
X470240D02*
X474304D01*
X482940D02*
X494116D01*
X497164D02*
X501482D01*
X504530D02*
X507832D01*
X516468D02*
X524342D01*
X528152D02*
X542884D01*
X545932D02*
X560156D01*
X563966D02*
X579968D01*
X580476D02*
X602320D01*
X411820Y648078D02*
X421980D01*
X427314D02*
X429346D01*
X434680D02*
X441538D01*
X444332D02*
X449920D01*
X452714D02*
X458810D01*
X463128D02*
X465414D01*
X470240D02*
X474050D01*
X478114D02*
X480400D01*
X482940D02*
X494370D01*
X497418D02*
X501228D01*
X504276D02*
X507578D01*
X511642D02*
X513928D01*
X516468D02*
X523834D01*
X528152D02*
X542884D01*
X545932D02*
X559648D01*
X563966D02*
X579460D01*
X580476D02*
X602320D01*
X411820Y647824D02*
X422234D01*
X427568D02*
X429092D01*
X434680D02*
X441538D01*
X444586D02*
X449666D01*
X452714D02*
X458556D01*
X462620D02*
X466176D01*
X470494D02*
X474050D01*
X477606D02*
X481162D01*
X482686D02*
X494370D01*
X497418D02*
X501228D01*
X504276D02*
X507578D01*
X511134D02*
X514690D01*
X516214D02*
X523580D01*
X528152D02*
X542884D01*
X545932D02*
X559394D01*
X563966D02*
X579206D01*
X580476D02*
X602320D01*
X411820Y647570D02*
X422234D01*
X427822D02*
X429092D01*
X434426D02*
X441284D01*
X444586D02*
X449666D01*
X452968D02*
X458302D01*
X462112D02*
X466684D01*
X470748D02*
X474050D01*
X477352D02*
X481924D01*
X482686D02*
X494624D01*
X497672D02*
X500974D01*
X504022D02*
X507578D01*
X510880D02*
X515452D01*
X516214D02*
X523072D01*
X528152D02*
X542884D01*
X545932D02*
X558886D01*
X563966D02*
X578698D01*
X580476D02*
X602320D01*
X411820Y647316D02*
X422488D01*
X427822D02*
X428838D01*
X434426D02*
X441284D01*
X444586D02*
X449666D01*
X452968D02*
X458302D01*
X461858D02*
X467192D01*
X470748D02*
X473796D01*
X477098D02*
X482178D01*
X482432D02*
X494624D01*
X497926D02*
X500720D01*
X503768D02*
X507324D01*
X510626D02*
X515706D01*
X515960D02*
X522818D01*
X528152D02*
X542884D01*
X545932D02*
X558632D01*
X563966D02*
X578444D01*
X580476D02*
X602320D01*
X411820Y647062D02*
X422488D01*
X428076D02*
X428838D01*
X434172D02*
X441284D01*
X444840D02*
X449412D01*
X452968D02*
X458048D01*
X461604D02*
X467446D01*
X471002D02*
X473796D01*
X477098D02*
X494878D01*
X497926D02*
X500720D01*
X503768D02*
X507324D01*
X510626D02*
X522310D01*
X528152D02*
X542884D01*
X545932D02*
X558124D01*
X563966D02*
X578190D01*
X580476D02*
X602320D01*
X411820Y646808D02*
X422742D01*
X428330D02*
X428584D01*
X433918D02*
X441284D01*
X444840D02*
X449412D01*
X452968D02*
X458048D01*
X461350D02*
X467446D01*
X471002D02*
X473796D01*
X476844D02*
X495132D01*
X498180D02*
X500466D01*
X503514D02*
X507324D01*
X510372D02*
X521802D01*
X528152D02*
X542884D01*
X545932D02*
X557616D01*
X563966D02*
X577682D01*
X580476D02*
X602320D01*
X411820Y646554D02*
X422996D01*
X428330D02*
X428584D01*
X433664D02*
X441284D01*
X444840D02*
X449412D01*
X452968D02*
X457794D01*
X461096D02*
X467700D01*
X471002D02*
X473796D01*
X476844D02*
X495132D01*
X498180D02*
X500212D01*
X503260D02*
X507324D01*
X510372D02*
X521548D01*
X528152D02*
X542884D01*
X545932D02*
X557362D01*
X563966D02*
X577428D01*
X580476D02*
X602320D01*
X411820Y646300D02*
X422996D01*
X433664D02*
X441030D01*
X444840D02*
X449412D01*
X453222D02*
X457794D01*
X460842D02*
X467954D01*
X471256D02*
X473796D01*
X476844D02*
X495386D01*
X498434D02*
X500212D01*
X503260D02*
X507324D01*
X510372D02*
X521548D01*
X528152D02*
X542884D01*
X545932D02*
X557362D01*
X563966D02*
X576920D01*
X580476D02*
X602320D01*
X411820Y646046D02*
X423250D01*
X433410D02*
X441030D01*
X445094D02*
X449158D01*
X453222D02*
X457540D01*
X460842D02*
X467954D01*
X471256D02*
X473796D01*
X476844D02*
X495640D01*
X498688D02*
X499958D01*
X503006D02*
X507324D01*
X510372D02*
X521548D01*
X528152D02*
X542884D01*
X545932D02*
X557362D01*
X563966D02*
X576666D01*
X580476D02*
X602320D01*
X411820Y645792D02*
X423250D01*
X433156D02*
X441030D01*
X445094D02*
X449158D01*
X453222D02*
X457540D01*
X460588D02*
X468208D01*
X471256D02*
X473796D01*
X476844D02*
X495640D01*
X498688D02*
X499704D01*
X502752D02*
X507324D01*
X510372D02*
X521548D01*
X524850D02*
X525104D01*
X528152D02*
X542884D01*
X545932D02*
X557362D01*
X560664D02*
X560918D01*
X563966D02*
X576158D01*
X580476D02*
X602320D01*
X411820Y645538D02*
X423504D01*
X433156D02*
X441030D01*
X445094D02*
X449158D01*
X453222D02*
X457540D01*
X460588D02*
X468208D01*
X471510D02*
X473796D01*
X477098D02*
X495894D01*
X498942D02*
X499704D01*
X502752D02*
X507324D01*
X510626D02*
X521548D01*
X524342D02*
X525104D01*
X528152D02*
X542884D01*
X545932D02*
X557362D01*
X560156D02*
X560918D01*
X563966D02*
X575904D01*
X580476D02*
X602320D01*
X411820Y645284D02*
X423758D01*
X432902D02*
X441030D01*
X445348D02*
X448904D01*
X453222D02*
X457286D01*
X460588D02*
X468462D01*
X471510D02*
X473796D01*
X477352D02*
X495894D01*
X499196D02*
X499450D01*
X502498D02*
X507324D01*
X510880D02*
X521548D01*
X523834D02*
X525104D01*
X528152D02*
X542884D01*
X545932D02*
X557362D01*
X559648D02*
X560918D01*
X563966D02*
X575650D01*
X580476D02*
X602320D01*
X411820Y645030D02*
X424012D01*
X432902D02*
X440776D01*
X445348D02*
X448904D01*
X453476D02*
X457286D01*
X460334D02*
X468462D01*
X471510D02*
X474050D01*
X477352D02*
X496148D01*
X502498D02*
X507578D01*
X510880D02*
X521548D01*
X523580D02*
X525104D01*
X528152D02*
X542884D01*
X545932D02*
X557362D01*
X559394D02*
X560918D01*
X563966D02*
X575142D01*
X580476D02*
X602320D01*
X411820Y644776D02*
X424012D01*
X432648D02*
X440776D01*
X445348D02*
X448904D01*
X453476D02*
X457286D01*
X460334D02*
X468462D01*
X471510D02*
X474050D01*
X477860D02*
X496402D01*
X502244D02*
X507578D01*
X511388D02*
X521548D01*
X523072D02*
X525104D01*
X528152D02*
X542884D01*
X545932D02*
X557362D01*
X558886D02*
X560918D01*
X563966D02*
X574888D01*
X580476D02*
X602320D01*
X411820Y644522D02*
X424266D01*
X432394D02*
X440776D01*
X445602D02*
X448650D01*
X453476D02*
X457286D01*
X460334D02*
X468462D01*
X471510D02*
X474050D01*
X478114D02*
X496402D01*
X501990D02*
X507578D01*
X511642D02*
X521548D01*
X522564D02*
X525104D01*
X528152D02*
X542884D01*
X545932D02*
X557362D01*
X558378D02*
X560918D01*
X563966D02*
X574380D01*
X580476D02*
X602320D01*
X411820Y644268D02*
X424266D01*
X432140D02*
X440776D01*
X445602D02*
X448650D01*
X453476D02*
X457286D01*
X460334D02*
X468462D01*
X471764D02*
X474304D01*
X478368D02*
X496656D01*
X501990D02*
X507832D01*
X511896D02*
X521548D01*
X522310D02*
X525104D01*
X528152D02*
X542884D01*
X545932D02*
X557362D01*
X558124D02*
X560918D01*
X563966D02*
X574126D01*
X580476D02*
X602320D01*
X411820Y644014D02*
X424520D01*
X432140D02*
X440522D01*
X445602D02*
X448650D01*
X453730D02*
X457032D01*
X460080D02*
X468716D01*
X471764D02*
X474304D01*
X478876D02*
X496910D01*
X501736D02*
X507832D01*
X512404D02*
X521548D01*
X521802D02*
X525104D01*
X528152D02*
X542884D01*
X545932D02*
X557362D01*
X557616D02*
X560918D01*
X563966D02*
X573618D01*
X580476D02*
X602320D01*
X411820Y643760D02*
X424774D01*
X431886D02*
X440522D01*
X445856D02*
X448396D01*
X453730D02*
X457032D01*
X460080D02*
X468716D01*
X471764D02*
X474558D01*
X479384D02*
X496910D01*
X501482D02*
X508086D01*
X512912D02*
X525104D01*
X528152D02*
X542884D01*
X545932D02*
X560918D01*
X563966D02*
X573364D01*
X593430D02*
X602320D01*
X411820Y643506D02*
X424774D01*
X431886D02*
X440522D01*
X445856D02*
X448396D01*
X453730D02*
X457032D01*
X460080D02*
X468716D01*
X471764D02*
X474812D01*
X479892D02*
X497164D01*
X501482D02*
X508340D01*
X513420D02*
X525104D01*
X528152D02*
X542884D01*
X545932D02*
X560918D01*
X563966D02*
X573110D01*
X593430D02*
X602320D01*
X411820Y643252D02*
X425028D01*
X431632D02*
X440522D01*
X445856D02*
X448396D01*
X453730D02*
X457032D01*
X460080D02*
X468716D01*
X471764D02*
X475066D01*
X480400D02*
X497164D01*
X501228D02*
X508594D01*
X513928D02*
X525104D01*
X528152D02*
X542884D01*
X545932D02*
X560918D01*
X563966D02*
X572602D01*
X593430D02*
X602320D01*
X411820Y642998D02*
X425282D01*
X431632D02*
X440522D01*
X445856D02*
X448396D01*
X453730D02*
X457032D01*
X460080D02*
X468716D01*
X471764D02*
X475320D01*
X480908D02*
X497418D01*
X500974D02*
X508848D01*
X514436D02*
X525104D01*
X528152D02*
X542884D01*
X545932D02*
X560918D01*
X563966D02*
X572348D01*
X593430D02*
X602320D01*
X411820Y642744D02*
X425282D01*
X431378D02*
X440268D01*
X446110D02*
X448142D01*
X450936D02*
X451190D01*
X453984D02*
X457032D01*
X460080D02*
X468716D01*
X471764D02*
X475574D01*
X481416D02*
X497672D01*
X500974D02*
X509102D01*
X514944D02*
X525104D01*
X528152D02*
X542884D01*
X545932D02*
X560918D01*
X563966D02*
X571840D01*
X593430D02*
X602320D01*
X411820Y642490D02*
X425536D01*
X431124D02*
X440268D01*
X443316D02*
X443570D01*
X446110D02*
X448142D01*
X450936D02*
X451190D01*
X453984D02*
X457032D01*
X460080D02*
X468716D01*
X471764D02*
X475828D01*
X481670D02*
X497672D01*
X500720D02*
X509356D01*
X515198D02*
X525104D01*
X528152D02*
X542884D01*
X545932D02*
X560918D01*
X563966D02*
X571586D01*
X593430D02*
X602320D01*
X411820Y642236D02*
X425536D01*
X431124D02*
X440268D01*
X443316D02*
X443570D01*
X446110D02*
X448142D01*
X450936D02*
X451190D01*
X453984D02*
X457032D01*
X460080D02*
X468716D01*
X471764D02*
X476336D01*
X482178D02*
X497418D01*
X500974D02*
X509864D01*
X515706D02*
X525104D01*
X528152D02*
X542884D01*
X545932D02*
X560918D01*
X563966D02*
X571078D01*
X593430D02*
X602320D01*
X411820Y641982D02*
X425536D01*
X431378D02*
X440268D01*
X443062D02*
X443570D01*
X446364D02*
X447888D01*
X450682D02*
X451190D01*
X453984D02*
X457032D01*
X460080D02*
X468716D01*
X471764D02*
X476844D01*
X482432D02*
X497418D01*
X501228D02*
X510372D01*
X515960D02*
X525104D01*
X528152D02*
X533740D01*
X539836D02*
X542884D01*
X545932D02*
X560918D01*
X563966D02*
X570824D01*
X593430D02*
X602320D01*
X411820Y641728D02*
X425282D01*
X431378D02*
X440268D01*
X443062D02*
X443824D01*
X446364D02*
X447888D01*
X450682D02*
X451190D01*
X453984D02*
X457032D01*
X460080D02*
X468716D01*
X471764D02*
X477098D01*
X482686D02*
X497164D01*
X501228D02*
X510626D01*
X516214D02*
X525104D01*
X528152D02*
X533740D01*
X539836D02*
X542884D01*
X545932D02*
X560918D01*
X563966D02*
X570824D01*
X593430D02*
X602320D01*
X411820Y641474D02*
X425028D01*
X431632D02*
X440014D01*
X443062D02*
X443824D01*
X446364D02*
X447888D01*
X450428D02*
X451190D01*
X454238D02*
X457032D01*
X460080D02*
X468716D01*
X471764D02*
X477606D01*
X482940D02*
X497164D01*
X501482D02*
X511134D01*
X516468D02*
X525104D01*
X528152D02*
X533740D01*
X539836D02*
X542884D01*
X545932D02*
X560918D01*
X563966D02*
X571078D01*
X593430D02*
X602320D01*
X411820Y641220D02*
X424774D01*
X431632D02*
X440014D01*
X443062D02*
X443824D01*
X446618D02*
X447634D01*
X450428D02*
X451444D01*
X454238D02*
X457032D01*
X460080D02*
X468716D01*
X471764D02*
X478114D01*
X483194D02*
X496910D01*
X501736D02*
X511642D01*
X516722D02*
X525104D01*
X528152D02*
X533740D01*
X539836D02*
X542884D01*
X545932D02*
X560918D01*
X563966D02*
X571586D01*
X593430D02*
X602320D01*
X411820Y640966D02*
X424774D01*
X431886D02*
X440014D01*
X443062D02*
X444078D01*
X446618D02*
X447634D01*
X450428D02*
X451444D01*
X454238D02*
X457032D01*
X460080D02*
X468716D01*
X471764D02*
X478622D01*
X483448D02*
X496656D01*
X501736D02*
X512150D01*
X516976D02*
X525104D01*
X528152D02*
X533740D01*
X539836D02*
X542884D01*
X545932D02*
X560918D01*
X563966D02*
X571840D01*
X593430D02*
X602320D01*
X411820Y640712D02*
X424520D01*
X432140D02*
X440014D01*
X442808D02*
X444078D01*
X446618D02*
X447634D01*
X450174D02*
X451444D01*
X454238D02*
X457032D01*
X460080D02*
X468716D01*
X471764D02*
X479130D01*
X483448D02*
X496656D01*
X501990D02*
X512658D01*
X516976D02*
X525104D01*
X528152D02*
X533740D01*
X539836D02*
X542884D01*
X545932D02*
X560918D01*
X563966D02*
X572348D01*
X593430D02*
X602320D01*
X411820Y640458D02*
X424520D01*
X432394D02*
X440014D01*
X442808D02*
X444078D01*
X446872D02*
X447380D01*
X450174D02*
X451444D01*
X454238D02*
X457032D01*
X460334D02*
X468462D01*
X471764D02*
X479638D01*
X483702D02*
X496402D01*
X501990D02*
X513166D01*
X517230D02*
X525104D01*
X528152D02*
X533740D01*
X539836D02*
X542884D01*
X545932D02*
X560918D01*
X563966D02*
X572602D01*
X593430D02*
X602320D01*
X411820Y640204D02*
X424266D01*
X432394D02*
X439760D01*
X442808D02*
X444332D01*
X446872D02*
X447380D01*
X450174D02*
X451444D01*
X454492D02*
X457286D01*
X460334D02*
X468462D01*
X471510D02*
X479892D01*
X483702D02*
X496148D01*
X502244D02*
X513420D01*
X517230D02*
X525104D01*
X528152D02*
X533740D01*
X539836D02*
X542884D01*
X545932D02*
X560918D01*
X563966D02*
X572856D01*
X593430D02*
X602320D01*
X411820Y639950D02*
X424012D01*
X432648D02*
X439760D01*
X442808D02*
X444332D01*
X446872D02*
X447380D01*
X449920D02*
X451698D01*
X454492D02*
X457286D01*
X460334D02*
X468462D01*
X471510D02*
X480146D01*
X483956D02*
X496148D01*
X499196D02*
X499450D01*
X502498D02*
X513674D01*
X517484D02*
X525104D01*
X528152D02*
X533740D01*
X539836D02*
X542884D01*
X545932D02*
X560918D01*
X563966D02*
X573364D01*
X593430D02*
X602320D01*
X411820Y639696D02*
X424012D01*
X432648D02*
X439760D01*
X442808D02*
X444332D01*
X449920D02*
X451698D01*
X454492D02*
X457286D01*
X460334D02*
X468462D01*
X471510D02*
X480400D01*
X483956D02*
X495894D01*
X498942D02*
X499450D01*
X502498D02*
X513928D01*
X517484D02*
X525104D01*
X528152D02*
X533740D01*
X539836D02*
X542884D01*
X545932D02*
X560918D01*
X563966D02*
X573618D01*
X580476D02*
X589366D01*
X593430D02*
X602320D01*
X411820Y639442D02*
X423758D01*
X432902D02*
X439760D01*
X442554D02*
X444586D01*
X449920D02*
X451698D01*
X454492D02*
X457286D01*
X460334D02*
X468208D01*
X471510D02*
X480654D01*
X483956D02*
X495640D01*
X498688D02*
X499704D01*
X502752D02*
X514182D01*
X517484D02*
X525104D01*
X528152D02*
X533740D01*
X539836D02*
X542884D01*
X545932D02*
X560918D01*
X563966D02*
X574126D01*
X580476D02*
X589366D01*
X593430D02*
X602320D01*
X411820Y639188D02*
X423504D01*
X432902D02*
X439506D01*
X442554D02*
X444586D01*
X449666D02*
X451698D01*
X454746D02*
X457286D01*
X460588D02*
X468208D01*
X471510D02*
X480908D01*
X484210D02*
X495640D01*
X498688D02*
X499958D01*
X503006D02*
X514436D01*
X517738D02*
X525104D01*
X528152D02*
X542884D01*
X545932D02*
X560918D01*
X563966D02*
X574380D01*
X580476D02*
X589366D01*
X593430D02*
X602320D01*
X411820Y638934D02*
X423504D01*
X433156D02*
X439506D01*
X442554D02*
X444586D01*
X449666D02*
X451698D01*
X454746D02*
X457540D01*
X460588D02*
X468208D01*
X471256D02*
X480908D01*
X484210D02*
X495386D01*
X498434D02*
X499958D01*
X503006D02*
X514436D01*
X517738D02*
X525104D01*
X528152D02*
X542884D01*
X545932D02*
X560918D01*
X563966D02*
X574888D01*
X580476D02*
X589366D01*
X593430D02*
X602320D01*
X411820Y638680D02*
X423250D01*
X433410D02*
X439506D01*
X442554D02*
X444840D01*
X449412D02*
X451698D01*
X454746D02*
X457540D01*
X460588D02*
X467954D01*
X471256D02*
X481162D01*
X484210D02*
X495132D01*
X498434D02*
X500212D01*
X503260D02*
X514690D01*
X517738D02*
X525104D01*
X528152D02*
X542884D01*
X545932D02*
X560918D01*
X563966D02*
X575142D01*
X580476D02*
X589366D01*
X593430D02*
X602320D01*
X411820Y638426D02*
X423250D01*
X433664D02*
X439506D01*
X442554D02*
X444840D01*
X449412D02*
X451952D01*
X454746D02*
X457540D01*
X460842D02*
X467954D01*
X471256D02*
X481162D01*
X484210D02*
X495132D01*
X498180D02*
X500212D01*
X503260D02*
X514690D01*
X517738D02*
X525104D01*
X528152D02*
X542884D01*
X545932D02*
X560918D01*
X563966D02*
X575396D01*
X580476D02*
X589366D01*
X593430D02*
X602320D01*
X411820Y638172D02*
X422996D01*
X433664D02*
X439506D01*
X442300D02*
X444840D01*
X449412D02*
X451952D01*
X454746D02*
X457540D01*
X460842D02*
X467700D01*
X471002D02*
X481162D01*
X484210D02*
X494878D01*
X497926D02*
X500466D01*
X503514D02*
X514690D01*
X517738D02*
X525104D01*
X528152D02*
X542884D01*
X545932D02*
X560918D01*
X563966D02*
X575904D01*
X580476D02*
X589366D01*
X593430D02*
X602320D01*
X411820Y637918D02*
X422742D01*
X428076D02*
X428330D01*
X433918D02*
X439252D01*
X442300D02*
X445094D01*
X449158D02*
X451952D01*
X455000D02*
X457794D01*
X461096D02*
X467700D01*
X471002D02*
X481162D01*
X484210D02*
X494878D01*
X497926D02*
X500720D01*
X503768D02*
X514690D01*
X517738D02*
X525104D01*
X528152D02*
X542884D01*
X545932D02*
X560918D01*
X563966D02*
X576158D01*
X580476D02*
X589366D01*
X593430D02*
X602320D01*
X411820Y637664D02*
X422742D01*
X427822D02*
X428584D01*
X433918D02*
X439252D01*
X442300D02*
X445094D01*
X449158D02*
X451952D01*
X455000D02*
X457794D01*
X461350D02*
X467446D01*
X470748D02*
X481162D01*
X484210D02*
X494624D01*
X497672D02*
X500720D01*
X503768D02*
X514690D01*
X517738D02*
X525104D01*
X528152D02*
X542884D01*
X545932D02*
X560918D01*
X563966D02*
X576666D01*
X580476D02*
X589366D01*
X593430D02*
X602320D01*
X411820Y637410D02*
X422488D01*
X427822D02*
X428584D01*
X434172D02*
X439252D01*
X442300D02*
X445348D01*
X449158D02*
X451952D01*
X455000D02*
X458048D01*
X461350D02*
X467192D01*
X470748D02*
X474812D01*
X475066D02*
X481162D01*
X484210D02*
X494370D01*
X497418D02*
X500974D01*
X504022D02*
X508340D01*
X508594D02*
X514690D01*
X517738D02*
X525104D01*
X528152D02*
X542884D01*
X545932D02*
X560918D01*
X563966D02*
X576920D01*
X580476D02*
X589366D01*
X593430D02*
X602320D01*
X411820Y637156D02*
X422234D01*
X427568D02*
X428838D01*
X434172D02*
X439252D01*
X442300D02*
X445348D01*
X448904D02*
X452206D01*
X455000D02*
X458048D01*
X461604D02*
X466938D01*
X470494D02*
X474812D01*
X475574D02*
X480908D01*
X484210D02*
X494370D01*
X497418D02*
X501228D01*
X504276D02*
X508340D01*
X509102D02*
X514436D01*
X517738D02*
X525104D01*
X528152D02*
X542884D01*
X545932D02*
X560918D01*
X563966D02*
X577428D01*
X580476D02*
X589366D01*
X593430D02*
X602320D01*
X411820Y636902D02*
X421980D01*
X427568D02*
X429092D01*
X434680D02*
X439252D01*
X442046D02*
X445348D01*
X448904D02*
X452206D01*
X455000D02*
X458302D01*
X461858D02*
X466430D01*
X470494D02*
X474558D01*
X476082D02*
X480654D01*
X483956D02*
X494116D01*
X497164D02*
X501228D01*
X504276D02*
X508086D01*
X509610D02*
X514182D01*
X517484D02*
X525104D01*
X528152D02*
X542884D01*
X545932D02*
X560918D01*
X563966D02*
X577682D01*
X580476D02*
X589366D01*
X593430D02*
X602320D01*
X411820Y636648D02*
X421980D01*
X427314D02*
X429092D01*
X434680D02*
X438998D01*
X442046D02*
X445602D01*
X448904D02*
X452206D01*
X455254D02*
X458302D01*
X462366D02*
X465922D01*
X470240D02*
X474558D01*
X476590D02*
X480400D01*
X483956D02*
X493862D01*
X496910D02*
X501482D01*
X504530D02*
X508086D01*
X510118D02*
X513928D01*
X517484D02*
X525104D01*
X528152D02*
X542884D01*
X545932D02*
X560918D01*
X563966D02*
X577936D01*
X580476D02*
X589366D01*
X593430D02*
X602320D01*
X411820Y636394D02*
X421726D01*
X427060D02*
X429346D01*
X434934D02*
X438998D01*
X442046D02*
X445602D01*
X448650D02*
X452206D01*
X455254D02*
X458556D01*
X463128D02*
X465160D01*
X470240D02*
X474558D01*
X477352D02*
X479638D01*
X483956D02*
X493862D01*
X496910D02*
X501482D01*
X504530D02*
X508086D01*
X510880D02*
X513166D01*
X517484D02*
X525104D01*
X528152D02*
X542884D01*
X553552D02*
X560918D01*
X563966D02*
X578444D01*
X580476D02*
X589366D01*
X593430D02*
X602320D01*
X411820Y636140D02*
X421726D01*
X427060D02*
X429346D01*
X434934D02*
X438998D01*
X442046D02*
X445602D01*
X448650D02*
X452206D01*
X455254D02*
X458556D01*
X469986D02*
X474304D01*
X483702D02*
X493608D01*
X496656D02*
X501736D01*
X504784D02*
X507832D01*
X517230D02*
X525104D01*
X528152D02*
X542884D01*
X553552D02*
X560918D01*
X563966D02*
X578698D01*
X580476D02*
X589366D01*
X593430D02*
X602320D01*
X411820Y635886D02*
X421472D01*
X426806D02*
X429600D01*
X435188D02*
X438998D01*
X442046D02*
X445856D01*
X448396D02*
X452206D01*
X455254D02*
X458810D01*
X469732D02*
X474304D01*
X483448D02*
X493354D01*
X496402D02*
X501990D01*
X505038D02*
X507832D01*
X516976D02*
X525104D01*
X528152D02*
X542884D01*
X553552D02*
X560918D01*
X563966D02*
X579206D01*
X580476D02*
X589366D01*
X593430D02*
X602320D01*
X411820Y635632D02*
X421472D01*
X426552D02*
X429854D01*
X435442D02*
X438998D01*
X441792D02*
X445856D01*
X448396D02*
X452460D01*
X455254D02*
X459064D01*
X469478D02*
X474050D01*
X483448D02*
X493354D01*
X496402D02*
X501990D01*
X505038D02*
X507578D01*
X516976D02*
X525104D01*
X528152D02*
X542884D01*
X553552D02*
X560918D01*
X563966D02*
X579460D01*
X580476D02*
X589366D01*
X593430D02*
X602320D01*
X411820Y635378D02*
X420964D01*
X426298D02*
X430108D01*
X435442D02*
X438744D01*
X441792D02*
X445856D01*
X448396D02*
X452460D01*
X455508D02*
X459318D01*
X469224D02*
X474050D01*
X483194D02*
X493100D01*
X496148D02*
X502244D01*
X505292D02*
X507578D01*
X516722D02*
X525104D01*
X528152D02*
X542884D01*
X553552D02*
X560918D01*
X563966D02*
X579968D01*
X580476D02*
X589366D01*
X593430D02*
X602320D01*
X411820Y635124D02*
X420964D01*
X426298D02*
X430108D01*
X435442D02*
X438744D01*
X441792D02*
X446110D01*
X448142D02*
X452460D01*
X455508D02*
X459572D01*
X468970D02*
X474050D01*
X482940D02*
X493100D01*
X496148D02*
X502498D01*
X505546D02*
X507578D01*
X516468D02*
X525104D01*
X528152D02*
X542884D01*
X553552D02*
X560918D01*
X563966D02*
X589366D01*
X593430D02*
X602320D01*
X411820Y634870D02*
X420710D01*
X426298D02*
X430362D01*
X435950D02*
X438744D01*
X441792D02*
X446110D01*
X448142D02*
X452460D01*
X455508D02*
X459826D01*
X468716D02*
X473796D01*
X482686D02*
X492846D01*
X495894D02*
X502498D01*
X505546D02*
X507324D01*
X516214D02*
X525104D01*
X528152D02*
X542884D01*
X553552D02*
X560918D01*
X563966D02*
X589366D01*
X593430D02*
X602320D01*
X411820Y634616D02*
X420710D01*
X426044D02*
X430362D01*
X435950D02*
X438744D01*
X441792D02*
X446110D01*
X448142D02*
X452460D01*
X455508D02*
X460080D01*
X468462D02*
X474050D01*
X482432D02*
X492592D01*
X495640D02*
X502752D01*
X505800D02*
X507578D01*
X515960D02*
X525104D01*
X528152D02*
X542884D01*
X553552D02*
X560918D01*
X563966D02*
X589366D01*
X593430D02*
X602320D01*
X411820Y634362D02*
X420202D01*
X425790D02*
X430616D01*
X436204D02*
X438744D01*
X441538D02*
X446364D01*
X447888D02*
X452714D01*
X455508D02*
X460588D01*
X467954D02*
X474558D01*
X481924D02*
X492592D01*
X495640D02*
X502752D01*
X505800D02*
X508086D01*
X515452D02*
X525104D01*
X528152D02*
X542884D01*
X553552D02*
X560918D01*
X563966D02*
X589366D01*
X593430D02*
X602320D01*
X411820Y634108D02*
X420202D01*
X425790D02*
X430870D01*
X436204D02*
X438490D01*
X441538D02*
X446364D01*
X447888D02*
X452714D01*
X455762D02*
X461096D01*
X467446D02*
X475066D01*
X481416D02*
X492338D01*
X495386D02*
X503006D01*
X506054D02*
X508594D01*
X514944D02*
X525104D01*
X528152D02*
X542884D01*
X553552D02*
X560918D01*
X563966D02*
X589366D01*
X593430D02*
X602320D01*
X411820Y633854D02*
X420202D01*
X425536D02*
X430870D01*
X436204D02*
X438490D01*
X441538D02*
X446364D01*
X447888D02*
X452714D01*
X455762D02*
X461604D01*
X466684D02*
X475574D01*
X480908D02*
X492084D01*
X495132D02*
X503260D01*
X506308D02*
X509102D01*
X514436D02*
X525104D01*
X528152D02*
X542884D01*
X553552D02*
X560918D01*
X563966D02*
X589366D01*
X593430D02*
X602320D01*
X411820Y633600D02*
X420202D01*
X425536D02*
X430870D01*
X436204D02*
X446618D01*
X447634D02*
X462620D01*
X465668D02*
X476590D01*
X479638D02*
X510118D01*
X513166D02*
X589366D01*
X593430D02*
X602320D01*
X411820Y633346D02*
X589366D01*
X593430D02*
X602320D01*
X411820Y633092D02*
X589366D01*
X593430D02*
X602320D01*
X411820Y632838D02*
X589366D01*
X593430D02*
X602320D01*
X411820Y632584D02*
X589366D01*
X593430D02*
X602320D01*
X411820Y632330D02*
X589366D01*
X593430D02*
X602320D01*
X411820Y632076D02*
X589366D01*
X593430D02*
X602320D01*
X411820Y631822D02*
X589366D01*
X593430D02*
X602320D01*
X411820Y631568D02*
X589366D01*
X593430D02*
X602320D01*
X411820Y631314D02*
X589366D01*
X593430D02*
X602320D01*
X411820Y631060D02*
X589366D01*
X593430D02*
X602320D01*
X411820Y630806D02*
X589366D01*
X593430D02*
X602320D01*
X411820Y630552D02*
X589366D01*
X593430D02*
X602320D01*
X411820Y630298D02*
X589366D01*
X593430D02*
X602320D01*
X411820Y630044D02*
X589366D01*
X593430D02*
X602320D01*
X411820Y629790D02*
X589366D01*
X593430D02*
X602320D01*
X411820Y629536D02*
X589366D01*
X593430D02*
X602320D01*
X411820Y629282D02*
X589366D01*
X593430D02*
X602320D01*
X411820Y629028D02*
X589366D01*
X593430D02*
X602320D01*
X411820Y628774D02*
X589366D01*
X593430D02*
X602320D01*
X411820Y628520D02*
X589366D01*
X593430D02*
X602320D01*
X411820Y628266D02*
X589366D01*
X593430D02*
X602320D01*
X411820Y628012D02*
X589366D01*
X593430D02*
X602320D01*
X411820Y627758D02*
X589366D01*
X593430D02*
X602320D01*
X411820Y627504D02*
X589366D01*
X593430D02*
X602320D01*
X411820Y627250D02*
X589366D01*
X593430D02*
X602320D01*
X411820Y626996D02*
X589366D01*
X593430D02*
X602320D01*
X411820Y626742D02*
X589366D01*
X593430D02*
X602320D01*
X411820Y626488D02*
X589366D01*
X593430D02*
X602320D01*
X411820Y626234D02*
X483194D01*
X485988D02*
X496910D01*
X499704D02*
X511134D01*
X513928D02*
X539074D01*
X541868D02*
X555076D01*
X558124D02*
X589366D01*
X593430D02*
X602320D01*
X411820Y625980D02*
X420202D01*
X434426D02*
X436712D01*
X439760D02*
X450428D01*
X456778D02*
X465668D01*
X471510D02*
X482432D01*
X487004D02*
X496148D01*
X500720D02*
X510372D01*
X514944D02*
X529930D01*
X531200D02*
X538312D01*
X542884D02*
X554060D01*
X559394D02*
X589366D01*
X593430D02*
X602320D01*
X411820Y625726D02*
X420202D01*
X434426D02*
X436712D01*
X439760D02*
X450428D01*
X457794D02*
X465668D01*
X473034D02*
X481924D01*
X487512D02*
X495640D01*
X501228D02*
X509864D01*
X515452D02*
X529676D01*
X531200D02*
X537804D01*
X543392D02*
X553298D01*
X560156D02*
X589366D01*
X593430D02*
X602320D01*
X411820Y625472D02*
X420202D01*
X434426D02*
X436712D01*
X439760D02*
X450428D01*
X458556D02*
X465668D01*
X474050D02*
X481416D01*
X488020D02*
X495132D01*
X501736D02*
X509356D01*
X515960D02*
X529422D01*
X531200D02*
X537296D01*
X543900D02*
X552790D01*
X560664D02*
X589366D01*
X593430D02*
X602320D01*
X411820Y625218D02*
X420202D01*
X434426D02*
X436712D01*
X439760D02*
X450428D01*
X459064D02*
X465668D01*
X474558D02*
X481162D01*
X488274D02*
X494878D01*
X501990D02*
X509102D01*
X516214D02*
X529168D01*
X531200D02*
X537042D01*
X544154D02*
X552536D01*
X560918D02*
X589366D01*
X593430D02*
X602320D01*
X411820Y624964D02*
X420202D01*
X434426D02*
X436712D01*
X439760D02*
X450428D01*
X459572D02*
X465668D01*
X475066D02*
X480654D01*
X488528D02*
X494370D01*
X502498D02*
X508594D01*
X516468D02*
X528914D01*
X531200D02*
X536534D01*
X544408D02*
X552028D01*
X561172D02*
X589366D01*
X593430D02*
X602320D01*
X411820Y624710D02*
X420202D01*
X434426D02*
X436712D01*
X439760D02*
X450428D01*
X460080D02*
X465668D01*
X475320D02*
X480654D01*
X488782D02*
X494116D01*
X502752D02*
X508594D01*
X516722D02*
X528660D01*
X531200D02*
X536534D01*
X544662D02*
X551774D01*
X560918D02*
X589366D01*
X593430D02*
X602320D01*
X411820Y624456D02*
X420202D01*
X434426D02*
X436712D01*
X439760D02*
X450428D01*
X460334D02*
X465668D01*
X475828D02*
X480400D01*
X488782D02*
X494116D01*
X502752D02*
X508340D01*
X516722D02*
X528406D01*
X531200D02*
X536280D01*
X544662D02*
X551520D01*
X560918D02*
X589366D01*
X593430D02*
X602320D01*
X411820Y624202D02*
X420202D01*
X434426D02*
X436712D01*
X439760D02*
X450428D01*
X460588D02*
X465668D01*
X476082D02*
X480146D01*
X489036D02*
X494370D01*
X503006D02*
X508086D01*
X516976D02*
X528406D01*
X531200D02*
X536026D01*
X544916D02*
X551266D01*
X560664D02*
X589366D01*
X593430D02*
X602320D01*
X411820Y623948D02*
X420202D01*
X434426D02*
X436712D01*
X439760D02*
X450428D01*
X460842D02*
X465668D01*
X476336D02*
X480146D01*
X489290D02*
X494624D01*
X503006D02*
X508086D01*
X517230D02*
X528152D01*
X531200D02*
X536026D01*
X545170D02*
X551012D01*
X560664D02*
X580222D01*
X580476D02*
X589366D01*
X593430D02*
X602320D01*
X411820Y623694D02*
X420202D01*
X434426D02*
X436712D01*
X439760D02*
X450428D01*
X461096D02*
X465668D01*
X476336D02*
X479892D01*
X489290D02*
X494878D01*
X503260D02*
X507832D01*
X517230D02*
X527898D01*
X531200D02*
X535772D01*
X545170D02*
X550758D01*
X560410D02*
X579714D01*
X580476D02*
X589366D01*
X593430D02*
X602320D01*
X411820Y623440D02*
X420202D01*
X434426D02*
X436712D01*
X439760D02*
X450428D01*
X461350D02*
X465668D01*
X476590D02*
X479892D01*
X483702D02*
X485480D01*
X489290D02*
X494878D01*
X497164D02*
X499196D01*
X503260D02*
X507832D01*
X511642D02*
X513420D01*
X517230D02*
X527644D01*
X531200D02*
X535772D01*
X539582D02*
X541360D01*
X545170D02*
X550504D01*
X555584D02*
X558124D01*
X560410D02*
X579460D01*
X580476D02*
X589366D01*
X593430D02*
X602320D01*
X411820Y623186D02*
X425790D01*
X428838D02*
X436712D01*
X439760D02*
X450428D01*
X453476D02*
X456270D01*
X461604D02*
X465668D01*
X468716D02*
X471510D01*
X476590D02*
X479638D01*
X483194D02*
X485988D01*
X489544D02*
X495132D01*
X496656D02*
X499704D01*
X503514D02*
X507578D01*
X511134D02*
X513928D01*
X517484D02*
X527390D01*
X531200D02*
X535518D01*
X539074D02*
X541868D01*
X545424D02*
X550504D01*
X554822D02*
X558886D01*
X560156D02*
X579206D01*
X580476D02*
X589366D01*
X593430D02*
X602320D01*
X411820Y622932D02*
X425790D01*
X428838D02*
X436712D01*
X439760D02*
X450428D01*
X453476D02*
X457286D01*
X461858D02*
X465668D01*
X468716D02*
X472526D01*
X476844D02*
X479638D01*
X482940D02*
X486242D01*
X489544D02*
X495386D01*
X496148D02*
X499958D01*
X503514D02*
X507578D01*
X510880D02*
X514182D01*
X517484D02*
X527136D01*
X531200D02*
X535518D01*
X538820D02*
X542122D01*
X545424D02*
X550250D01*
X554314D02*
X559394D01*
X560156D02*
X578698D01*
X580476D02*
X589366D01*
X593430D02*
X602320D01*
X411820Y622678D02*
X425790D01*
X428838D02*
X436712D01*
X439760D02*
X450428D01*
X453476D02*
X457794D01*
X461858D02*
X465668D01*
X468716D02*
X473034D01*
X476844D02*
X479638D01*
X482940D02*
X486242D01*
X489544D02*
X495640D01*
X495894D02*
X500212D01*
X503514D02*
X507578D01*
X510880D02*
X514182D01*
X517484D02*
X526882D01*
X531200D02*
X535518D01*
X538820D02*
X542122D01*
X545424D02*
X549996D01*
X554060D02*
X578444D01*
X580476D02*
X589366D01*
X593430D02*
X602320D01*
X411820Y622424D02*
X425790D01*
X428838D02*
X436712D01*
X439760D02*
X450428D01*
X453476D02*
X458302D01*
X462112D02*
X465668D01*
X468716D02*
X473288D01*
X476844D02*
X479638D01*
X482686D02*
X486496D01*
X489544D02*
X500212D01*
X503514D02*
X507578D01*
X510626D02*
X514436D01*
X517484D02*
X526882D01*
X531200D02*
X535518D01*
X538566D02*
X542376D01*
X545424D02*
X549996D01*
X553806D02*
X577936D01*
X580476D02*
X589366D01*
X593430D02*
X602320D01*
X411820Y622170D02*
X425790D01*
X428838D02*
X436712D01*
X439760D02*
X450428D01*
X453476D02*
X458556D01*
X462366D02*
X465668D01*
X468716D02*
X473542D01*
X477098D02*
X479638D01*
X482686D02*
X486496D01*
X489544D02*
X500466D01*
X503514D02*
X507578D01*
X510626D02*
X514436D01*
X517484D02*
X526628D01*
X531200D02*
X535518D01*
X538566D02*
X542376D01*
X545424D02*
X549742D01*
X553552D02*
X577682D01*
X580476D02*
X589366D01*
X593430D02*
X602320D01*
X411820Y621916D02*
X425790D01*
X428838D02*
X436712D01*
X439760D02*
X450428D01*
X453476D02*
X458810D01*
X462366D02*
X465668D01*
X468716D02*
X473796D01*
X477098D02*
X479638D01*
X482686D02*
X486496D01*
X489544D02*
X500466D01*
X503514D02*
X507578D01*
X510626D02*
X514436D01*
X517484D02*
X526374D01*
X531200D02*
X535518D01*
X538566D02*
X542376D01*
X545424D02*
X549742D01*
X553298D02*
X577174D01*
X580476D02*
X589366D01*
X593430D02*
X602320D01*
X411820Y621662D02*
X425790D01*
X428838D02*
X436712D01*
X439760D02*
X450428D01*
X453476D02*
X459064D01*
X462366D02*
X465668D01*
X468716D02*
X473796D01*
X477098D02*
X479638D01*
X482686D02*
X486496D01*
X489544D02*
X500466D01*
X503514D02*
X507578D01*
X510626D02*
X514436D01*
X517484D02*
X526120D01*
X531200D02*
X535518D01*
X538566D02*
X542376D01*
X545424D02*
X549488D01*
X553044D02*
X576920D01*
X580476D02*
X589366D01*
X593430D02*
X602320D01*
X411820Y621408D02*
X425790D01*
X428838D02*
X436712D01*
X439760D02*
X450428D01*
X453476D02*
X459318D01*
X462620D02*
X465668D01*
X468716D02*
X474050D01*
X477098D02*
X479638D01*
X482686D02*
X486496D01*
X489544D02*
X500466D01*
X503514D02*
X507578D01*
X510626D02*
X514436D01*
X517484D02*
X525866D01*
X531200D02*
X535518D01*
X538566D02*
X542376D01*
X545424D02*
X549488D01*
X552790D02*
X576666D01*
X580476D02*
X589366D01*
X593430D02*
X602320D01*
X411820Y621154D02*
X425790D01*
X428838D02*
X436712D01*
X439760D02*
X450428D01*
X453476D02*
X459318D01*
X462620D02*
X465668D01*
X468716D02*
X474050D01*
X477098D02*
X479638D01*
X482940D02*
X486242D01*
X489290D02*
X500466D01*
X503514D02*
X507578D01*
X510880D02*
X514182D01*
X517230D02*
X525612D01*
X531200D02*
X535518D01*
X538820D02*
X542122D01*
X545170D02*
X549234D01*
X552790D02*
X576158D01*
X580476D02*
X589366D01*
X593430D02*
X602320D01*
X411820Y620900D02*
X425790D01*
X428838D02*
X436712D01*
X439760D02*
X450428D01*
X453476D02*
X459572D01*
X462874D02*
X465668D01*
X468716D02*
X474050D01*
X477098D02*
X479892D01*
X482940D02*
X486242D01*
X489290D02*
X500466D01*
X503260D02*
X507832D01*
X510880D02*
X514182D01*
X517230D02*
X525358D01*
X531200D02*
X535772D01*
X538820D02*
X542122D01*
X545170D02*
X549234D01*
X552536D02*
X575904D01*
X580476D02*
X589366D01*
X593430D02*
X602320D01*
X411820Y620646D02*
X425790D01*
X428838D02*
X436712D01*
X439760D02*
X450428D01*
X453476D02*
X459572D01*
X462874D02*
X465668D01*
X468716D02*
X474050D01*
X477098D02*
X479892D01*
X483194D02*
X485988D01*
X489290D02*
X500212D01*
X503260D02*
X507832D01*
X511134D02*
X513928D01*
X517230D02*
X525358D01*
X527898D02*
X528152D01*
X531200D02*
X535772D01*
X539074D02*
X541868D01*
X545170D02*
X549234D01*
X552536D02*
X575396D01*
X580476D02*
X589366D01*
X593430D02*
X602320D01*
X411820Y620392D02*
X425790D01*
X428838D02*
X436712D01*
X439760D02*
X450428D01*
X453476D02*
X459826D01*
X462874D02*
X465668D01*
X468716D02*
X474050D01*
X477098D02*
X480146D01*
X483448D02*
X485988D01*
X489036D02*
X500212D01*
X503260D02*
X508086D01*
X511388D02*
X513928D01*
X516976D02*
X525104D01*
X527644D02*
X528152D01*
X531200D02*
X536026D01*
X539328D02*
X541868D01*
X544916D02*
X548980D01*
X552282D02*
X575142D01*
X580476D02*
X589366D01*
X593430D02*
X602320D01*
X411820Y620138D02*
X425790D01*
X428838D02*
X436712D01*
X439760D02*
X450428D01*
X453476D02*
X459826D01*
X462874D02*
X465668D01*
X468716D02*
X474050D01*
X477098D02*
X480146D01*
X483702D02*
X485734D01*
X489036D02*
X499958D01*
X503006D02*
X508086D01*
X511642D02*
X513674D01*
X516976D02*
X524850D01*
X527390D02*
X528152D01*
X531200D02*
X536026D01*
X539582D02*
X541614D01*
X544916D02*
X548980D01*
X552282D02*
X574634D01*
X580476D02*
X589366D01*
X593430D02*
X602320D01*
X411820Y619884D02*
X425790D01*
X428838D02*
X436712D01*
X439760D02*
X450428D01*
X453476D02*
X459826D01*
X462874D02*
X465668D01*
X468716D02*
X474050D01*
X477098D02*
X480400D01*
X483956D02*
X485480D01*
X488782D02*
X499704D01*
X503006D02*
X508340D01*
X511896D02*
X513420D01*
X516722D02*
X524596D01*
X527136D02*
X528152D01*
X531200D02*
X536280D01*
X539836D02*
X541360D01*
X544662D02*
X548980D01*
X552028D02*
X574380D01*
X580476D02*
X589366D01*
X593430D02*
X602320D01*
X411820Y619630D02*
X425790D01*
X428838D02*
X436712D01*
X439760D02*
X450428D01*
X453476D02*
X459826D01*
X463128D02*
X465668D01*
X468716D02*
X473796D01*
X477098D02*
X480400D01*
X484464D02*
X485226D01*
X488528D02*
X498942D01*
X502752D02*
X508340D01*
X512404D02*
X513166D01*
X516468D02*
X524342D01*
X527136D02*
X528152D01*
X531200D02*
X536280D01*
X540344D02*
X541106D01*
X544408D02*
X548980D01*
X552028D02*
X574126D01*
X580476D02*
X589366D01*
X593430D02*
X602320D01*
X411820Y619376D02*
X425790D01*
X428838D02*
X436712D01*
X439760D02*
X450428D01*
X453476D02*
X460080D01*
X463128D02*
X465668D01*
X468716D02*
X473796D01*
X476844D02*
X480654D01*
X488528D02*
X497418D01*
X502752D02*
X508594D01*
X516468D02*
X524088D01*
X526882D02*
X528152D01*
X531200D02*
X536534D01*
X544408D02*
X548980D01*
X552028D02*
X573618D01*
X580476D02*
X589366D01*
X593430D02*
X602320D01*
X411820Y619122D02*
X425790D01*
X428838D02*
X436712D01*
X439760D02*
X450428D01*
X453476D02*
X460080D01*
X463128D02*
X465668D01*
X468716D02*
X473542D01*
X476844D02*
X480908D01*
X488274D02*
X497418D01*
X502498D02*
X508848D01*
X516214D02*
X523834D01*
X526628D02*
X528152D01*
X531200D02*
X536788D01*
X544154D02*
X548726D01*
X552028D02*
X573364D01*
X593430D02*
X602320D01*
X411820Y618868D02*
X425790D01*
X428838D02*
X436712D01*
X439760D02*
X450428D01*
X453476D02*
X460080D01*
X463128D02*
X465668D01*
X468716D02*
X473288D01*
X476844D02*
X481162D01*
X488020D02*
X497418D01*
X502244D02*
X509102D01*
X515960D02*
X523834D01*
X526374D02*
X528152D01*
X531200D02*
X537042D01*
X543900D02*
X548726D01*
X551774D02*
X572856D01*
X593430D02*
X602320D01*
X411820Y618614D02*
X425790D01*
X428838D02*
X436712D01*
X439760D02*
X450428D01*
X453476D02*
X460080D01*
X463128D02*
X465668D01*
X468716D02*
X473034D01*
X476590D02*
X481416D01*
X487766D02*
X497418D01*
X501736D02*
X509356D01*
X515706D02*
X523580D01*
X526120D02*
X528152D01*
X531200D02*
X537296D01*
X543646D02*
X548726D01*
X551774D02*
X572602D01*
X593430D02*
X602320D01*
X411820Y618360D02*
X425790D01*
X428838D02*
X436712D01*
X439760D02*
X450428D01*
X453476D02*
X460080D01*
X463128D02*
X465668D01*
X468716D02*
X472526D01*
X476590D02*
X481670D01*
X487512D02*
X497418D01*
X501482D02*
X509610D01*
X515452D02*
X523326D01*
X526120D02*
X528152D01*
X531200D02*
X537550D01*
X543392D02*
X548726D01*
X551774D02*
X572094D01*
X593430D02*
X602320D01*
X411820Y618106D02*
X425790D01*
X428838D02*
X436712D01*
X439760D02*
X450428D01*
X453476D02*
X460080D01*
X463128D02*
X465668D01*
X468716D02*
X471510D01*
X476590D02*
X481416D01*
X487512D02*
X497418D01*
X501990D02*
X509356D01*
X515452D02*
X523072D01*
X525866D02*
X528152D01*
X531200D02*
X537296D01*
X543392D02*
X548726D01*
X551774D02*
X571840D01*
X593430D02*
X602320D01*
X411820Y617852D02*
X425790D01*
X428838D02*
X436712D01*
X439760D02*
X450428D01*
X453476D02*
X460080D01*
X463128D02*
X465668D01*
X476336D02*
X481162D01*
X488020D02*
X497418D01*
X502244D02*
X509102D01*
X515960D02*
X522818D01*
X525612D02*
X528152D01*
X531200D02*
X537042D01*
X543900D02*
X548726D01*
X551774D02*
X571586D01*
X593430D02*
X602320D01*
X411820Y617598D02*
X425790D01*
X428838D02*
X436712D01*
X439760D02*
X450428D01*
X453476D02*
X460080D01*
X463128D02*
X465668D01*
X476082D02*
X480908D01*
X488274D02*
X497418D01*
X502498D02*
X508848D01*
X516214D02*
X522564D01*
X525358D02*
X528152D01*
X531200D02*
X536788D01*
X544154D02*
X548726D01*
X551774D02*
X571078D01*
X593430D02*
X602320D01*
X411820Y617344D02*
X425790D01*
X428838D02*
X436712D01*
X439760D02*
X450428D01*
X453476D02*
X460080D01*
X463128D02*
X465668D01*
X476082D02*
X480654D01*
X488528D02*
X497418D01*
X502752D02*
X508594D01*
X516468D02*
X522310D01*
X525104D02*
X528152D01*
X531200D02*
X536534D01*
X544408D02*
X548726D01*
X551774D02*
X570824D01*
X593430D02*
X602320D01*
X411820Y617090D02*
X425790D01*
X428838D02*
X436712D01*
X439760D02*
X450428D01*
X453476D02*
X460080D01*
X463128D02*
X465668D01*
X475828D02*
X480400D01*
X484210D02*
X484464D01*
X488782D02*
X497418D01*
X503006D02*
X508340D01*
X512150D02*
X512404D01*
X516722D02*
X522310D01*
X524850D02*
X528152D01*
X531200D02*
X536280D01*
X540090D02*
X540344D01*
X544662D02*
X548726D01*
X551774D02*
X570824D01*
X593430D02*
X602320D01*
X411820Y616836D02*
X425790D01*
X428838D02*
X436712D01*
X439760D02*
X450428D01*
X453476D02*
X460080D01*
X463128D02*
X465668D01*
X475574D02*
X480146D01*
X483702D02*
X484718D01*
X489036D02*
X498942D01*
X503260D02*
X508086D01*
X511642D02*
X512658D01*
X516976D02*
X522056D01*
X524850D02*
X528152D01*
X531200D02*
X536026D01*
X539582D02*
X540598D01*
X544916D02*
X548726D01*
X551774D02*
X571078D01*
X593430D02*
X602320D01*
X411820Y616582D02*
X425790D01*
X428838D02*
X436712D01*
X439760D02*
X450428D01*
X453476D02*
X460080D01*
X463128D02*
X465668D01*
X475320D02*
X479892D01*
X483448D02*
X485226D01*
X489290D02*
X499704D01*
X503514D02*
X507832D01*
X511388D02*
X513166D01*
X517230D02*
X521802D01*
X524596D02*
X528152D01*
X531200D02*
X535772D01*
X539328D02*
X541106D01*
X545170D02*
X548726D01*
X551774D02*
X571586D01*
X593430D02*
X602320D01*
X411820Y616328D02*
X425790D01*
X428838D02*
X436712D01*
X439760D02*
X450428D01*
X453476D02*
X459826D01*
X463128D02*
X465668D01*
X474812D02*
X479892D01*
X483194D02*
X485480D01*
X489290D02*
X499958D01*
X503514D02*
X507832D01*
X511134D02*
X513420D01*
X517230D02*
X521548D01*
X524342D02*
X528152D01*
X531200D02*
X535772D01*
X539074D02*
X541360D01*
X545170D02*
X548726D01*
X551774D02*
X571840D01*
X593430D02*
X602320D01*
X411820Y616074D02*
X425790D01*
X428838D02*
X436712D01*
X439760D02*
X450428D01*
X453476D02*
X459826D01*
X462874D02*
X465668D01*
X474558D02*
X479638D01*
X482940D02*
X485988D01*
X489544D02*
X500212D01*
X503768D02*
X507578D01*
X510880D02*
X513928D01*
X517484D02*
X521294D01*
X524088D02*
X528152D01*
X531200D02*
X535518D01*
X538820D02*
X541868D01*
X545424D02*
X548726D01*
X551774D02*
X572348D01*
X593430D02*
X602320D01*
X411820Y615820D02*
X425790D01*
X428838D02*
X436712D01*
X439760D02*
X450428D01*
X453476D02*
X459826D01*
X462874D02*
X465668D01*
X474050D02*
X479638D01*
X482686D02*
X486242D01*
X489798D02*
X500466D01*
X503768D02*
X507578D01*
X510626D02*
X514182D01*
X517738D02*
X521040D01*
X523834D02*
X528152D01*
X531200D02*
X535518D01*
X538566D02*
X542122D01*
X545678D02*
X548726D01*
X552028D02*
X572602D01*
X593430D02*
X602320D01*
X411820Y615566D02*
X425790D01*
X428838D02*
X436712D01*
X439760D02*
X450428D01*
X453476D02*
X459826D01*
X462874D02*
X465668D01*
X473288D02*
X479384D01*
X482686D02*
X486496D01*
X489798D02*
X500720D01*
X503768D02*
X507324D01*
X510626D02*
X514436D01*
X517738D02*
X520786D01*
X532978D02*
X535264D01*
X538566D02*
X542376D01*
X545678D02*
X548980D01*
X552028D02*
X573110D01*
X593430D02*
X602320D01*
X411820Y615312D02*
X425790D01*
X428838D02*
X436712D01*
X439760D02*
X450428D01*
X453476D02*
X459826D01*
X462874D02*
X465668D01*
X472018D02*
X479384D01*
X482432D02*
X486750D01*
X490052D02*
X500720D01*
X503768D02*
X507324D01*
X510372D02*
X514690D01*
X517992D02*
X520786D01*
X532978D02*
X535264D01*
X538312D02*
X542630D01*
X545932D02*
X548980D01*
X552028D02*
X573364D01*
X593430D02*
X602320D01*
X411820Y615058D02*
X425790D01*
X428838D02*
X436712D01*
X439760D02*
X450428D01*
X453476D02*
X459572D01*
X462874D02*
X465668D01*
X468716D02*
X479384D01*
X482432D02*
X486750D01*
X490052D02*
X500974D01*
X504022D02*
X507324D01*
X510372D02*
X514690D01*
X517992D02*
X520532D01*
X532978D02*
X535264D01*
X538312D02*
X542630D01*
X545932D02*
X548980D01*
X552028D02*
X573618D01*
X580476D02*
X602320D01*
X411820Y614804D02*
X425790D01*
X428838D02*
X436712D01*
X439760D02*
X450428D01*
X453476D02*
X459572D01*
X462620D02*
X465668D01*
X468716D02*
X479130D01*
X482178D02*
X487004D01*
X490052D02*
X500974D01*
X504022D02*
X507070D01*
X510118D02*
X514944D01*
X517992D02*
X520532D01*
X532978D02*
X535010D01*
X538058D02*
X542884D01*
X545932D02*
X548980D01*
X552282D02*
X574126D01*
X580476D02*
X602320D01*
X411820Y614550D02*
X425790D01*
X428838D02*
X436712D01*
X439760D02*
X450428D01*
X453476D02*
X459318D01*
X462620D02*
X465668D01*
X468716D02*
X479130D01*
X482178D02*
X487004D01*
X490306D02*
X500974D01*
X504022D02*
X507070D01*
X510118D02*
X514944D01*
X518246D02*
X520532D01*
X532978D02*
X535010D01*
X538058D02*
X542884D01*
X546186D02*
X548980D01*
X552282D02*
X574380D01*
X580476D02*
X602320D01*
X411820Y614296D02*
X425790D01*
X428838D02*
X436712D01*
X439760D02*
X450428D01*
X453476D02*
X459318D01*
X462620D02*
X465668D01*
X468716D02*
X479130D01*
X482178D02*
X487258D01*
X490306D02*
X500974D01*
X504022D02*
X507070D01*
X510118D02*
X515198D01*
X518246D02*
X520532D01*
X532978D02*
X535010D01*
X538058D02*
X543138D01*
X546186D02*
X549234D01*
X552282D02*
X574888D01*
X580476D02*
X602320D01*
X411820Y614042D02*
X425790D01*
X428838D02*
X436712D01*
X439760D02*
X450428D01*
X453476D02*
X459064D01*
X462620D02*
X465668D01*
X468716D02*
X479130D01*
X482178D02*
X487258D01*
X490306D02*
X500974D01*
X504022D02*
X507070D01*
X510118D02*
X515198D01*
X518246D02*
X520532D01*
X532978D02*
X535010D01*
X538058D02*
X543138D01*
X546186D02*
X549234D01*
X552536D02*
X575142D01*
X580476D02*
X602320D01*
X411820Y613788D02*
X425790D01*
X428838D02*
X436712D01*
X439760D02*
X450428D01*
X453476D02*
X459064D01*
X462366D02*
X465668D01*
X468716D02*
X479130D01*
X482178D02*
X487258D01*
X490306D02*
X500974D01*
X504022D02*
X507070D01*
X510118D02*
X515198D01*
X518246D02*
X520532D01*
X532978D02*
X535010D01*
X538058D02*
X543138D01*
X546186D02*
X549234D01*
X552536D02*
X575650D01*
X580476D02*
X602320D01*
X411820Y613534D02*
X425790D01*
X428838D02*
X436712D01*
X439760D02*
X450428D01*
X453476D02*
X458810D01*
X462366D02*
X465668D01*
X468716D02*
X479130D01*
X482178D02*
X487258D01*
X490306D02*
X500974D01*
X504022D02*
X507070D01*
X510118D02*
X515198D01*
X518246D02*
X520532D01*
X532978D02*
X535010D01*
X538058D02*
X543138D01*
X546186D02*
X549234D01*
X552790D02*
X575904D01*
X580476D02*
X602320D01*
X411820Y613280D02*
X425790D01*
X428838D02*
X436712D01*
X439760D02*
X450428D01*
X453476D02*
X458556D01*
X462112D02*
X465668D01*
X468716D02*
X479130D01*
X482178D02*
X487258D01*
X490306D02*
X500974D01*
X504022D02*
X507070D01*
X510118D02*
X515198D01*
X518246D02*
X528152D01*
X531200D02*
X535010D01*
X538058D02*
X543138D01*
X546186D02*
X549488D01*
X553044D02*
X576158D01*
X580476D02*
X602320D01*
X411820Y613026D02*
X425790D01*
X428838D02*
X436712D01*
X439760D02*
X450428D01*
X453476D02*
X458302D01*
X462112D02*
X465668D01*
X468716D02*
X479130D01*
X482432D02*
X487004D01*
X490306D02*
X500720D01*
X504022D02*
X507070D01*
X510372D02*
X514944D01*
X518246D02*
X528152D01*
X531200D02*
X535010D01*
X538312D02*
X542884D01*
X546186D02*
X549488D01*
X553298D02*
X559902D01*
X560410D02*
X576666D01*
X580476D02*
X602320D01*
X411820Y612772D02*
X425790D01*
X428838D02*
X436712D01*
X439760D02*
X450428D01*
X453476D02*
X458048D01*
X461858D02*
X465668D01*
X468716D02*
X479130D01*
X482432D02*
X487004D01*
X490306D02*
X495132D01*
X495386D02*
X500720D01*
X504022D02*
X507070D01*
X510372D02*
X514944D01*
X518246D02*
X528152D01*
X531200D02*
X535010D01*
X538312D02*
X542884D01*
X546186D02*
X549742D01*
X553552D02*
X559648D01*
X560664D02*
X576920D01*
X580476D02*
X602320D01*
X411820Y612518D02*
X425790D01*
X428838D02*
X436712D01*
X439760D02*
X450428D01*
X453476D02*
X457540D01*
X461858D02*
X465668D01*
X468716D02*
X479384D01*
X482686D02*
X486750D01*
X490052D02*
X494878D01*
X495640D02*
X500466D01*
X503768D02*
X507324D01*
X510626D02*
X514690D01*
X517992D02*
X528152D01*
X531200D02*
X535264D01*
X538566D02*
X542630D01*
X545932D02*
X549742D01*
X553806D02*
X559394D01*
X560664D02*
X577428D01*
X580476D02*
X602320D01*
X411820Y612264D02*
X425790D01*
X428838D02*
X436712D01*
X439760D02*
X450428D01*
X453476D02*
X457032D01*
X461604D02*
X465668D01*
X468716D02*
X479384D01*
X482940D02*
X486496D01*
X490052D02*
X494624D01*
X495894D02*
X500212D01*
X503768D02*
X507324D01*
X510880D02*
X514436D01*
X517992D02*
X528152D01*
X531200D02*
X535264D01*
X538820D02*
X542376D01*
X545932D02*
X549996D01*
X554060D02*
X559140D01*
X560918D02*
X577682D01*
X580476D02*
X602320D01*
X411820Y612010D02*
X425790D01*
X428838D02*
X436712D01*
X439760D02*
X450428D01*
X453476D02*
X456270D01*
X461350D02*
X465668D01*
X468716D02*
X479384D01*
X483194D02*
X486242D01*
X490052D02*
X494624D01*
X496402D02*
X499958D01*
X503768D02*
X507324D01*
X511134D02*
X514182D01*
X517992D02*
X528152D01*
X531200D02*
X535264D01*
X539074D02*
X542122D01*
X545932D02*
X549996D01*
X554568D02*
X558632D01*
X560918D02*
X578190D01*
X580476D02*
X602320D01*
X411820Y611756D02*
X425790D01*
X428838D02*
X436712D01*
X439760D02*
X450428D01*
X461350D02*
X465668D01*
X468716D02*
X479384D01*
X483702D02*
X485480D01*
X489798D02*
X494370D01*
X497164D02*
X499196D01*
X503514D02*
X507324D01*
X511642D02*
X513420D01*
X517738D02*
X528152D01*
X531200D02*
X535264D01*
X539582D02*
X541360D01*
X545678D02*
X550250D01*
X555330D02*
X557616D01*
X561172D02*
X578444D01*
X580476D02*
X602320D01*
X411820Y611502D02*
X425790D01*
X428838D02*
X436712D01*
X439760D02*
X450428D01*
X461096D02*
X465668D01*
X468716D02*
X479638D01*
X489798D02*
X494116D01*
X503514D02*
X507578D01*
X517738D02*
X528152D01*
X531200D02*
X535518D01*
X545678D02*
X550504D01*
X561426D02*
X578698D01*
X580476D02*
X602320D01*
X411820Y611248D02*
X425790D01*
X428838D02*
X436712D01*
X439760D02*
X450428D01*
X460842D02*
X465668D01*
X468716D02*
X479638D01*
X489544D02*
X494116D01*
X503260D02*
X507578D01*
X517484D02*
X528152D01*
X531200D02*
X535518D01*
X545424D02*
X550758D01*
X561426D02*
X579206D01*
X580476D02*
X602320D01*
X411820Y610994D02*
X425790D01*
X428838D02*
X436712D01*
X439760D02*
X450428D01*
X460588D02*
X465668D01*
X468716D02*
X479892D01*
X489544D02*
X493862D01*
X503260D02*
X507832D01*
X517484D02*
X528152D01*
X531200D02*
X535772D01*
X545424D02*
X550758D01*
X561680D02*
X579460D01*
X580476D02*
X602320D01*
X411820Y610740D02*
X425790D01*
X428838D02*
X436712D01*
X439760D02*
X450428D01*
X460080D02*
X465668D01*
X468716D02*
X480146D01*
X489290D02*
X493608D01*
X503006D02*
X508086D01*
X517230D02*
X528152D01*
X531200D02*
X536026D01*
X545170D02*
X551012D01*
X561680D02*
X579968D01*
X580476D02*
X602320D01*
X411820Y610486D02*
X425790D01*
X428838D02*
X436712D01*
X439760D02*
X450428D01*
X459826D02*
X465668D01*
X468716D02*
X480146D01*
X489036D02*
X493862D01*
X502752D02*
X508086D01*
X516976D02*
X528152D01*
X531200D02*
X536026D01*
X544916D02*
X551266D01*
X561172D02*
X602320D01*
X411820Y610232D02*
X425790D01*
X428838D02*
X436712D01*
X439760D02*
X450428D01*
X459318D02*
X465668D01*
X468716D02*
X480400D01*
X488782D02*
X494116D01*
X502498D02*
X508340D01*
X516722D02*
X528152D01*
X531200D02*
X536280D01*
X544662D02*
X551774D01*
X560918D02*
X602320D01*
X411820Y609978D02*
X425790D01*
X428838D02*
X436712D01*
X439760D02*
X450428D01*
X458810D02*
X465668D01*
X468716D02*
X480654D01*
X488528D02*
X494370D01*
X502244D02*
X508594D01*
X516468D02*
X528152D01*
X531200D02*
X536534D01*
X544408D02*
X552028D01*
X560664D02*
X602320D01*
X411820Y609724D02*
X425790D01*
X428838D02*
X436712D01*
X439760D02*
X450428D01*
X458302D02*
X465668D01*
X468716D02*
X481162D01*
X488274D02*
X494624D01*
X501736D02*
X509102D01*
X516214D02*
X528152D01*
X531200D02*
X537042D01*
X544154D02*
X552536D01*
X560156D02*
X602320D01*
X411820Y609470D02*
X425790D01*
X428838D02*
X436712D01*
X439760D02*
X450428D01*
X457540D02*
X465668D01*
X468716D02*
X481670D01*
X487766D02*
X495132D01*
X501228D02*
X509610D01*
X515706D02*
X528152D01*
X531200D02*
X537550D01*
X543646D02*
X553044D01*
X559648D02*
X602320D01*
X411820Y609216D02*
X425790D01*
X428838D02*
X436712D01*
X439760D02*
X450428D01*
X456270D02*
X465668D01*
X468716D02*
X482178D01*
X487004D02*
X495894D01*
X500720D02*
X510118D01*
X514944D02*
X528152D01*
X531200D02*
X538058D01*
X542884D02*
X553552D01*
X559140D02*
X602320D01*
X411820Y608962D02*
X483194D01*
X486242D02*
X496656D01*
X499704D02*
X511134D01*
X514182D02*
X539074D01*
X542122D02*
X554568D01*
X557870D02*
X602320D01*
X411820Y608708D02*
X602320D01*
X411820Y608454D02*
X602320D01*
X411820Y608200D02*
X602320D01*
X411820Y607946D02*
X602320D01*
X411820Y607692D02*
X602320D01*
X411820Y607438D02*
X602320D01*
X411820Y607184D02*
X602320D01*
X411820Y606930D02*
X602320D01*
X411820Y606676D02*
X602320D01*
X411820Y606422D02*
X602320D01*
X411820Y606168D02*
X602320D01*
X411820Y605914D02*
X602320D01*
X411820Y605660D02*
X602320D01*
X411820Y605406D02*
X602320D01*
X411820Y605152D02*
X602320D01*
X411820Y604898D02*
X602320D01*
X411820Y604644D02*
X602320D01*
X411820Y604390D02*
X602320D01*
X411820Y604136D02*
X602320D01*
X411820Y603882D02*
X602320D01*
X411820Y603628D02*
X602320D01*
X411820Y603374D02*
X602320D01*
X411820Y603120D02*
X602320D01*
X411820Y602866D02*
X602320D01*
X411820Y602612D02*
X602320D01*
X411820Y602358D02*
X602320D01*
X411820Y602104D02*
X602320D01*
X411820Y601850D02*
X602320D01*
X411820Y601596D02*
X479638D01*
X484972D02*
X602320D01*
X411820Y601342D02*
X420456D01*
X431124D02*
X432140D01*
X446364D02*
X448650D01*
X451698D02*
X458556D01*
X461604D02*
X464906D01*
X475574D02*
X478368D01*
X486242D02*
X492846D01*
X494370D02*
X502244D01*
X505292D02*
X508848D01*
X519516D02*
X520532D01*
X534756D02*
X542122D01*
X545170D02*
X553806D01*
X556854D02*
X565490D01*
X566760D02*
X602320D01*
X411820Y601088D02*
X420456D01*
X431124D02*
X432140D01*
X446364D02*
X448650D01*
X451698D02*
X458556D01*
X461604D02*
X464906D01*
X475574D02*
X478368D01*
X486750D02*
X492846D01*
X494624D02*
X502244D01*
X505292D02*
X508848D01*
X519516D02*
X520532D01*
X534756D02*
X542376D01*
X545424D02*
X553552D01*
X556600D02*
X565236D01*
X566760D02*
X602320D01*
X411820Y600834D02*
X420456D01*
X431124D02*
X432140D01*
X446364D02*
X448650D01*
X451698D02*
X458556D01*
X461604D02*
X464906D01*
X475574D02*
X478368D01*
X487258D02*
X492846D01*
X494878D02*
X502244D01*
X505292D02*
X508848D01*
X519516D02*
X520532D01*
X534756D02*
X542376D01*
X545424D02*
X553552D01*
X556600D02*
X564982D01*
X566760D02*
X602320D01*
X411820Y600580D02*
X420456D01*
X431124D02*
X432140D01*
X446364D02*
X448650D01*
X451698D02*
X458556D01*
X461604D02*
X464906D01*
X475574D02*
X478368D01*
X487766D02*
X492846D01*
X495132D02*
X502244D01*
X505292D02*
X508848D01*
X519516D02*
X520532D01*
X534756D02*
X542376D01*
X545424D02*
X553552D01*
X556600D02*
X564728D01*
X566760D02*
X602320D01*
X411820Y600326D02*
X420456D01*
X431124D02*
X432140D01*
X446364D02*
X448650D01*
X451698D02*
X458556D01*
X461604D02*
X464906D01*
X475574D02*
X478368D01*
X488020D02*
X492846D01*
X495132D02*
X502244D01*
X505292D02*
X508848D01*
X519516D02*
X520532D01*
X534756D02*
X542630D01*
X545678D02*
X553298D01*
X556346D02*
X564474D01*
X566760D02*
X602320D01*
X411820Y600072D02*
X420456D01*
X431124D02*
X432140D01*
X446364D02*
X448650D01*
X451698D02*
X458556D01*
X461604D02*
X464906D01*
X475574D02*
X478368D01*
X488274D02*
X492846D01*
X495386D02*
X502244D01*
X505292D02*
X508848D01*
X519516D02*
X520532D01*
X534756D02*
X542630D01*
X545678D02*
X553298D01*
X556346D02*
X564220D01*
X566760D02*
X602320D01*
X411820Y599818D02*
X420456D01*
X431124D02*
X432140D01*
X446364D02*
X448650D01*
X451698D02*
X458556D01*
X461604D02*
X464906D01*
X475574D02*
X478368D01*
X488528D02*
X492846D01*
X495640D02*
X502244D01*
X505292D02*
X508848D01*
X519516D02*
X520532D01*
X534756D02*
X542630D01*
X545678D02*
X553298D01*
X556346D02*
X563966D01*
X566760D02*
X602320D01*
X411820Y599564D02*
X420456D01*
X431124D02*
X432140D01*
X446364D02*
X448650D01*
X451698D02*
X458556D01*
X461604D02*
X464906D01*
X475574D02*
X478368D01*
X488782D02*
X492846D01*
X495894D02*
X502244D01*
X505292D02*
X508848D01*
X519516D02*
X520532D01*
X534756D02*
X542884D01*
X545932D02*
X553044D01*
X556092D02*
X563458D01*
X566760D02*
X602320D01*
X411820Y599310D02*
X420456D01*
X431124D02*
X432140D01*
X446364D02*
X448650D01*
X451698D02*
X458556D01*
X461604D02*
X464906D01*
X475574D02*
X478368D01*
X489036D02*
X492846D01*
X496148D02*
X502244D01*
X505292D02*
X508848D01*
X519516D02*
X520532D01*
X534756D02*
X542884D01*
X545932D02*
X553044D01*
X556092D02*
X563204D01*
X566760D02*
X602320D01*
X411820Y599056D02*
X420456D01*
X431124D02*
X432140D01*
X446364D02*
X448650D01*
X451698D02*
X458556D01*
X461604D02*
X464906D01*
X475574D02*
X478368D01*
X489036D02*
X492846D01*
X496148D02*
X502244D01*
X505292D02*
X508848D01*
X519516D02*
X520532D01*
X534756D02*
X543138D01*
X546186D02*
X552790D01*
X555838D02*
X562950D01*
X566760D02*
X602320D01*
X411820Y598802D02*
X420456D01*
X431124D02*
X432140D01*
X446364D02*
X448650D01*
X451698D02*
X458556D01*
X461604D02*
X464906D01*
X475574D02*
X478368D01*
X481416D02*
X484464D01*
X489290D02*
X492846D01*
X496402D02*
X502244D01*
X505292D02*
X508848D01*
X519516D02*
X520532D01*
X534756D02*
X543138D01*
X546186D02*
X552790D01*
X555838D02*
X562442D01*
X566760D02*
X602320D01*
X411820Y598548D02*
X420456D01*
X423504D02*
X437728D01*
X440776D02*
X448650D01*
X451698D02*
X458556D01*
X461604D02*
X464906D01*
X467954D02*
X478368D01*
X481416D02*
X485226D01*
X489290D02*
X492846D01*
X496656D02*
X502244D01*
X505292D02*
X508848D01*
X511896D02*
X526120D01*
X529168D02*
X543138D01*
X546186D02*
X552790D01*
X555838D02*
X562188D01*
X566760D02*
X602320D01*
X411820Y598294D02*
X420456D01*
X423504D02*
X437728D01*
X440776D02*
X448650D01*
X451698D02*
X458556D01*
X461604D02*
X464906D01*
X467954D02*
X478368D01*
X481416D02*
X485734D01*
X489290D02*
X492846D01*
X496910D02*
X502244D01*
X505292D02*
X508848D01*
X511896D02*
X526120D01*
X529168D02*
X543392D01*
X546440D02*
X552536D01*
X555584D02*
X561680D01*
X566760D02*
X602320D01*
X411820Y598040D02*
X420456D01*
X423504D02*
X437728D01*
X440776D02*
X448650D01*
X451698D02*
X458556D01*
X461604D02*
X464906D01*
X467954D02*
X478368D01*
X481416D02*
X485988D01*
X489290D02*
X492846D01*
X496910D02*
X502244D01*
X505292D02*
X508848D01*
X511896D02*
X526120D01*
X529168D02*
X543392D01*
X546440D02*
X552536D01*
X555584D02*
X561426D01*
X566760D02*
X602320D01*
X411820Y597786D02*
X420456D01*
X423504D02*
X437728D01*
X440776D02*
X448650D01*
X451698D02*
X458556D01*
X461604D02*
X464906D01*
X467954D02*
X478368D01*
X481416D02*
X486242D01*
X489544D02*
X492846D01*
X497164D02*
X502244D01*
X505292D02*
X508848D01*
X511896D02*
X526120D01*
X529168D02*
X543646D01*
X546440D02*
X552536D01*
X555330D02*
X560918D01*
X566760D02*
X602320D01*
X411820Y597532D02*
X420456D01*
X423504D02*
X437728D01*
X440776D02*
X448650D01*
X451698D02*
X458556D01*
X461604D02*
X464906D01*
X467954D02*
X478368D01*
X481416D02*
X486496D01*
X489544D02*
X492846D01*
X497418D02*
X502244D01*
X505292D02*
X508848D01*
X511896D02*
X526120D01*
X529168D02*
X543646D01*
X546694D02*
X552282D01*
X555330D02*
X560410D01*
X566760D02*
X602320D01*
X411820Y597278D02*
X420456D01*
X423504D02*
X437728D01*
X440776D02*
X448650D01*
X451698D02*
X458556D01*
X461604D02*
X464906D01*
X467954D02*
X478368D01*
X481416D02*
X486496D01*
X489544D02*
X492846D01*
X497672D02*
X502244D01*
X505292D02*
X508848D01*
X511896D02*
X526120D01*
X529168D02*
X543646D01*
X546694D02*
X552282D01*
X555330D02*
X560156D01*
X566760D02*
X602320D01*
X411820Y597024D02*
X420456D01*
X423504D02*
X437728D01*
X440776D02*
X448650D01*
X451698D02*
X458556D01*
X461604D02*
X464906D01*
X467954D02*
X478368D01*
X481416D02*
X486496D01*
X489544D02*
X492846D01*
X497926D02*
X502244D01*
X505292D02*
X508848D01*
X511896D02*
X526120D01*
X529168D02*
X543900D01*
X546948D02*
X552028D01*
X555076D02*
X560156D01*
X566760D02*
X602320D01*
X411820Y596770D02*
X420456D01*
X423504D02*
X437728D01*
X440776D02*
X448650D01*
X451698D02*
X458556D01*
X461604D02*
X464906D01*
X467954D02*
X478368D01*
X481416D02*
X486496D01*
X489544D02*
X492846D01*
X497926D02*
X502244D01*
X505292D02*
X508848D01*
X511896D02*
X526120D01*
X529168D02*
X543900D01*
X546948D02*
X552028D01*
X555076D02*
X560156D01*
X566760D02*
X602320D01*
X411820Y596516D02*
X420456D01*
X423504D02*
X437728D01*
X440776D02*
X448650D01*
X451698D02*
X458556D01*
X461604D02*
X464906D01*
X467954D02*
X478368D01*
X481416D02*
X486496D01*
X489544D02*
X492846D01*
X498180D02*
X502244D01*
X505292D02*
X508848D01*
X511896D02*
X526120D01*
X529168D02*
X543900D01*
X546948D02*
X552028D01*
X555076D02*
X560156D01*
X563458D02*
X563712D01*
X566760D02*
X602320D01*
X411820Y596262D02*
X420456D01*
X423504D02*
X437728D01*
X440776D02*
X448650D01*
X451698D02*
X458556D01*
X461604D02*
X464906D01*
X467954D02*
X478368D01*
X481416D02*
X486496D01*
X489544D02*
X492846D01*
X498434D02*
X502244D01*
X505292D02*
X508848D01*
X511896D02*
X526120D01*
X529168D02*
X544154D01*
X547202D02*
X551774D01*
X554822D02*
X560156D01*
X562950D02*
X563712D01*
X566760D02*
X602320D01*
X411820Y596008D02*
X420456D01*
X423504D02*
X437728D01*
X440776D02*
X448650D01*
X451698D02*
X458556D01*
X461604D02*
X464906D01*
X467954D02*
X478368D01*
X481416D02*
X486496D01*
X489544D02*
X492846D01*
X498688D02*
X502244D01*
X505292D02*
X508848D01*
X511896D02*
X526120D01*
X529168D02*
X544154D01*
X547202D02*
X551774D01*
X554822D02*
X560156D01*
X562442D02*
X563712D01*
X566760D02*
X602320D01*
X411820Y595754D02*
X420456D01*
X423504D02*
X437728D01*
X440776D02*
X448650D01*
X451698D02*
X458556D01*
X461604D02*
X464906D01*
X467954D02*
X478368D01*
X481416D02*
X486242D01*
X489544D02*
X492846D01*
X498688D02*
X502244D01*
X505292D02*
X508848D01*
X511896D02*
X526120D01*
X529168D02*
X544408D01*
X547456D02*
X551520D01*
X554568D02*
X560156D01*
X562188D02*
X563712D01*
X566760D02*
X602320D01*
X411820Y595500D02*
X420456D01*
X423504D02*
X437728D01*
X440776D02*
X448650D01*
X451698D02*
X458556D01*
X461604D02*
X464906D01*
X467954D02*
X478368D01*
X481416D02*
X486242D01*
X489290D02*
X492846D01*
X498942D02*
X502244D01*
X505292D02*
X508848D01*
X511896D02*
X526120D01*
X529168D02*
X544408D01*
X547456D02*
X551520D01*
X554568D02*
X560156D01*
X561680D02*
X563712D01*
X566760D02*
X602320D01*
X411820Y595246D02*
X420456D01*
X423504D02*
X437728D01*
X440776D02*
X448650D01*
X451698D02*
X458556D01*
X461604D02*
X464906D01*
X467954D02*
X478368D01*
X481416D02*
X485988D01*
X489290D02*
X492846D01*
X499196D02*
X502244D01*
X505292D02*
X508848D01*
X511896D02*
X526120D01*
X529168D02*
X544408D01*
X547456D02*
X551520D01*
X554568D02*
X560156D01*
X561172D02*
X563712D01*
X566760D02*
X602320D01*
X411820Y594992D02*
X420456D01*
X428838D02*
X437728D01*
X440776D02*
X448650D01*
X451698D02*
X458556D01*
X461604D02*
X464906D01*
X473288D02*
X478368D01*
X481416D02*
X485734D01*
X489290D02*
X492846D01*
X499450D02*
X502244D01*
X505292D02*
X508848D01*
X517230D02*
X526120D01*
X529168D02*
X544662D01*
X547710D02*
X551266D01*
X554314D02*
X560156D01*
X560918D02*
X563712D01*
X566760D02*
X602320D01*
X411820Y594738D02*
X420456D01*
X428838D02*
X437728D01*
X440776D02*
X448650D01*
X461604D02*
X464906D01*
X473288D02*
X478368D01*
X481416D02*
X485226D01*
X489036D02*
X492846D01*
X499704D02*
X502244D01*
X505292D02*
X508848D01*
X517230D02*
X526120D01*
X529168D02*
X544662D01*
X547710D02*
X551266D01*
X554314D02*
X560156D01*
X560410D02*
X563712D01*
X566760D02*
X602320D01*
X411820Y594484D02*
X420456D01*
X428838D02*
X437728D01*
X440776D02*
X448650D01*
X461604D02*
X464906D01*
X473288D02*
X478368D01*
X481416D02*
X484464D01*
X489036D02*
X492846D01*
X495894D02*
X496148D01*
X499704D02*
X502244D01*
X505292D02*
X508848D01*
X517230D02*
X526120D01*
X529168D02*
X544916D01*
X547710D02*
X551266D01*
X554060D02*
X563712D01*
X566760D02*
X602320D01*
X411820Y594230D02*
X420456D01*
X428838D02*
X437728D01*
X440776D02*
X448650D01*
X461604D02*
X464906D01*
X473288D02*
X478368D01*
X488782D02*
X492846D01*
X495894D02*
X496402D01*
X499958D02*
X502244D01*
X505292D02*
X508848D01*
X517230D02*
X526120D01*
X529168D02*
X544916D01*
X547964D02*
X551012D01*
X554060D02*
X563712D01*
X566760D02*
X602320D01*
X411820Y593976D02*
X420456D01*
X428838D02*
X437728D01*
X440776D02*
X448650D01*
X461604D02*
X464906D01*
X473288D02*
X478368D01*
X488528D02*
X492846D01*
X495894D02*
X496656D01*
X500212D02*
X502244D01*
X505292D02*
X508848D01*
X517230D02*
X526120D01*
X529168D02*
X544916D01*
X547964D02*
X551012D01*
X554060D02*
X563712D01*
X566760D02*
X602320D01*
X411820Y593722D02*
X420456D01*
X428838D02*
X437728D01*
X440776D02*
X448650D01*
X461604D02*
X464906D01*
X473288D02*
X478368D01*
X488528D02*
X492846D01*
X495894D02*
X496656D01*
X500466D02*
X502244D01*
X505292D02*
X508848D01*
X517230D02*
X526120D01*
X529168D02*
X545170D01*
X548218D02*
X550758D01*
X553806D02*
X563712D01*
X566760D02*
X602320D01*
X411820Y593468D02*
X420456D01*
X428838D02*
X437728D01*
X440776D02*
X448650D01*
X461604D02*
X464906D01*
X473288D02*
X478368D01*
X488274D02*
X492846D01*
X495894D02*
X496910D01*
X500466D02*
X502244D01*
X505292D02*
X508848D01*
X517230D02*
X526120D01*
X529168D02*
X545170D01*
X548218D02*
X550758D01*
X553806D02*
X563712D01*
X566760D02*
X602320D01*
X411820Y593214D02*
X420456D01*
X428838D02*
X437728D01*
X440776D02*
X448650D01*
X461604D02*
X464906D01*
X473288D02*
X478368D01*
X488020D02*
X492846D01*
X495894D02*
X497164D01*
X500720D02*
X502244D01*
X505292D02*
X508848D01*
X517230D02*
X526120D01*
X529168D02*
X545170D01*
X548218D02*
X550758D01*
X553806D02*
X563712D01*
X566760D02*
X602320D01*
X411820Y592960D02*
X420456D01*
X428838D02*
X437728D01*
X440776D02*
X448650D01*
X461604D02*
X464906D01*
X473288D02*
X478368D01*
X487766D02*
X492846D01*
X495894D02*
X497418D01*
X500974D02*
X502244D01*
X505292D02*
X508848D01*
X517230D02*
X526120D01*
X529168D02*
X545424D01*
X548472D02*
X550504D01*
X553552D02*
X563712D01*
X566760D02*
X602320D01*
X411820Y592706D02*
X420456D01*
X428838D02*
X437728D01*
X440776D02*
X448650D01*
X461604D02*
X464906D01*
X473288D02*
X478368D01*
X487258D02*
X492846D01*
X495894D02*
X497418D01*
X501228D02*
X502244D01*
X505292D02*
X508848D01*
X517230D02*
X526120D01*
X529168D02*
X545424D01*
X548472D02*
X550504D01*
X553552D02*
X563712D01*
X566760D02*
X602320D01*
X411820Y592452D02*
X420456D01*
X428838D02*
X437728D01*
X440776D02*
X448650D01*
X461604D02*
X464906D01*
X473288D02*
X478368D01*
X487004D02*
X492846D01*
X495894D02*
X497672D01*
X501482D02*
X502244D01*
X505292D02*
X508848D01*
X517230D02*
X526120D01*
X529168D02*
X545678D01*
X548472D02*
X550504D01*
X553298D02*
X563712D01*
X566760D02*
X602320D01*
X411820Y592198D02*
X420456D01*
X423504D02*
X437728D01*
X440776D02*
X448650D01*
X461604D02*
X464906D01*
X467954D02*
X478368D01*
X486496D02*
X492846D01*
X495894D02*
X497926D01*
X501482D02*
X502244D01*
X505292D02*
X508848D01*
X511896D02*
X526120D01*
X529168D02*
X545678D01*
X548726D02*
X550250D01*
X553298D02*
X563712D01*
X566760D02*
X602320D01*
X411820Y591944D02*
X420456D01*
X423504D02*
X437728D01*
X440776D02*
X448650D01*
X451698D02*
X458556D01*
X461604D02*
X464906D01*
X467954D02*
X478368D01*
X486496D02*
X492846D01*
X495894D02*
X498180D01*
X501736D02*
X502244D01*
X505292D02*
X508848D01*
X511896D02*
X526120D01*
X529168D02*
X545678D01*
X548726D02*
X550250D01*
X553298D02*
X563712D01*
X566760D02*
X602320D01*
X411820Y591690D02*
X420456D01*
X423504D02*
X437728D01*
X440776D02*
X448650D01*
X451698D02*
X458556D01*
X461604D02*
X464906D01*
X467954D02*
X478368D01*
X486750D02*
X492846D01*
X495894D02*
X498434D01*
X501990D02*
X502244D01*
X505292D02*
X508848D01*
X511896D02*
X526120D01*
X529168D02*
X545932D01*
X548980D02*
X549996D01*
X553044D02*
X563712D01*
X566760D02*
X602320D01*
X411820Y591436D02*
X420456D01*
X423504D02*
X437728D01*
X440776D02*
X448650D01*
X451698D02*
X458556D01*
X461604D02*
X464906D01*
X467954D02*
X478368D01*
X481416D02*
X483448D01*
X486750D02*
X492846D01*
X495894D02*
X498434D01*
X505292D02*
X508848D01*
X511896D02*
X526120D01*
X529168D02*
X545932D01*
X548980D02*
X549996D01*
X553044D02*
X563712D01*
X566760D02*
X602320D01*
X411820Y591182D02*
X420456D01*
X423504D02*
X437728D01*
X440776D02*
X448650D01*
X451698D02*
X458556D01*
X461604D02*
X464906D01*
X467954D02*
X478368D01*
X481416D02*
X483702D01*
X487004D02*
X492846D01*
X495894D02*
X498688D01*
X505292D02*
X508848D01*
X511896D02*
X526120D01*
X529168D02*
X545932D01*
X548980D02*
X549996D01*
X553044D02*
X563712D01*
X566760D02*
X602320D01*
X411820Y590928D02*
X420456D01*
X423504D02*
X437728D01*
X440776D02*
X448650D01*
X451698D02*
X458556D01*
X461604D02*
X464906D01*
X467954D02*
X478368D01*
X481416D02*
X483702D01*
X487258D02*
X492846D01*
X495894D02*
X498942D01*
X505292D02*
X508848D01*
X511896D02*
X526120D01*
X529168D02*
X546186D01*
X549234D02*
X549742D01*
X552790D02*
X563712D01*
X566760D02*
X602320D01*
X411820Y590674D02*
X420456D01*
X423504D02*
X437728D01*
X440776D02*
X448650D01*
X451698D02*
X458556D01*
X461604D02*
X464906D01*
X467954D02*
X478368D01*
X481416D02*
X483956D01*
X487258D02*
X492846D01*
X495894D02*
X499196D01*
X505292D02*
X508848D01*
X511896D02*
X526120D01*
X529168D02*
X546186D01*
X549234D02*
X549742D01*
X552790D02*
X563712D01*
X566760D02*
X602320D01*
X411820Y590420D02*
X420456D01*
X423504D02*
X437728D01*
X440776D02*
X448650D01*
X451698D02*
X458556D01*
X461604D02*
X464906D01*
X467954D02*
X478368D01*
X481416D02*
X483956D01*
X487512D02*
X492846D01*
X495894D02*
X499196D01*
X505292D02*
X508848D01*
X511896D02*
X526120D01*
X529168D02*
X546440D01*
X549234D02*
X549742D01*
X552536D02*
X563712D01*
X566760D02*
X602320D01*
X411820Y590166D02*
X420456D01*
X423504D02*
X437728D01*
X440776D02*
X448650D01*
X451698D02*
X458556D01*
X461604D02*
X464906D01*
X467954D02*
X478368D01*
X481416D02*
X484210D01*
X487766D02*
X492846D01*
X495894D02*
X499450D01*
X505292D02*
X508848D01*
X511896D02*
X526120D01*
X529168D02*
X546440D01*
X552536D02*
X563712D01*
X566760D02*
X602320D01*
X411820Y589912D02*
X420456D01*
X423504D02*
X437728D01*
X440776D02*
X448650D01*
X451698D02*
X458556D01*
X461604D02*
X464906D01*
X467954D02*
X478368D01*
X481416D02*
X484464D01*
X487766D02*
X492846D01*
X495894D02*
X499704D01*
X505292D02*
X508848D01*
X511896D02*
X526120D01*
X529168D02*
X546440D01*
X552536D02*
X563712D01*
X566760D02*
X602320D01*
X411820Y589658D02*
X420456D01*
X423504D02*
X437728D01*
X440776D02*
X448650D01*
X451698D02*
X458556D01*
X461604D02*
X464906D01*
X467954D02*
X478368D01*
X481416D02*
X484464D01*
X488020D02*
X492846D01*
X495894D02*
X499958D01*
X505292D02*
X508848D01*
X511896D02*
X526120D01*
X529168D02*
X546694D01*
X552282D02*
X563712D01*
X566760D02*
X602320D01*
X411820Y589404D02*
X420456D01*
X423504D02*
X437728D01*
X440776D02*
X448650D01*
X451698D02*
X458556D01*
X461604D02*
X464906D01*
X467954D02*
X478368D01*
X481416D02*
X484718D01*
X488274D02*
X492846D01*
X495894D02*
X499958D01*
X505292D02*
X508848D01*
X511896D02*
X526120D01*
X529168D02*
X546694D01*
X552282D02*
X563712D01*
X566760D02*
X602320D01*
X411820Y589150D02*
X420456D01*
X423504D02*
X437728D01*
X440776D02*
X448650D01*
X451698D02*
X458556D01*
X461604D02*
X464906D01*
X467954D02*
X478368D01*
X481416D02*
X484972D01*
X488274D02*
X492846D01*
X495894D02*
X500212D01*
X505292D02*
X508848D01*
X511896D02*
X526120D01*
X529168D02*
X546948D01*
X552028D02*
X563712D01*
X566760D02*
X602320D01*
X411820Y588896D02*
X420456D01*
X423504D02*
X437728D01*
X440776D02*
X448650D01*
X451698D02*
X458556D01*
X461604D02*
X464906D01*
X467954D02*
X478368D01*
X481416D02*
X484972D01*
X488528D02*
X492846D01*
X495894D02*
X500466D01*
X505292D02*
X508848D01*
X511896D02*
X526120D01*
X529168D02*
X546948D01*
X552028D02*
X563712D01*
X566760D02*
X602320D01*
X411820Y588642D02*
X420456D01*
X423504D02*
X437728D01*
X440776D02*
X448650D01*
X451698D02*
X458556D01*
X461604D02*
X464906D01*
X467954D02*
X478368D01*
X481416D02*
X485226D01*
X488528D02*
X492846D01*
X495894D02*
X500720D01*
X505292D02*
X508848D01*
X511896D02*
X526120D01*
X529168D02*
X546948D01*
X552028D02*
X563712D01*
X566760D02*
X602320D01*
X411820Y588388D02*
X420456D01*
X423504D02*
X437728D01*
X440776D02*
X448650D01*
X451698D02*
X458556D01*
X461604D02*
X464906D01*
X467954D02*
X478368D01*
X481416D02*
X485226D01*
X488782D02*
X492846D01*
X495894D02*
X500720D01*
X505292D02*
X508848D01*
X511896D02*
X526120D01*
X529168D02*
X547202D01*
X551774D02*
X563712D01*
X566760D02*
X602320D01*
X411820Y588134D02*
X420456D01*
X423504D02*
X437728D01*
X440776D02*
X448650D01*
X451698D02*
X458556D01*
X461604D02*
X464906D01*
X467954D02*
X478368D01*
X481416D02*
X485480D01*
X489036D02*
X492846D01*
X495894D02*
X500974D01*
X505292D02*
X508848D01*
X511896D02*
X526120D01*
X529168D02*
X547202D01*
X551774D02*
X563712D01*
X566760D02*
X602320D01*
X411820Y587880D02*
X420456D01*
X423504D02*
X437728D01*
X440776D02*
X448650D01*
X451698D02*
X458556D01*
X461604D02*
X464906D01*
X467954D02*
X478368D01*
X481416D02*
X485734D01*
X489036D02*
X492846D01*
X495894D02*
X501228D01*
X505292D02*
X508848D01*
X511896D02*
X526120D01*
X529168D02*
X547202D01*
X551774D02*
X563712D01*
X566760D02*
X602320D01*
X411820Y587626D02*
X420456D01*
X423504D02*
X437728D01*
X440776D02*
X448650D01*
X451698D02*
X458556D01*
X461604D02*
X464906D01*
X467954D02*
X478368D01*
X481416D02*
X485734D01*
X489290D02*
X492846D01*
X495894D02*
X501482D01*
X505292D02*
X508848D01*
X511896D02*
X526120D01*
X529168D02*
X547456D01*
X551520D02*
X563712D01*
X566760D02*
X602320D01*
X411820Y587372D02*
X420456D01*
X423504D02*
X437728D01*
X440776D02*
X448650D01*
X451698D02*
X458556D01*
X461604D02*
X464906D01*
X467954D02*
X478368D01*
X481416D02*
X485988D01*
X489544D02*
X492846D01*
X495894D02*
X501482D01*
X505292D02*
X508848D01*
X511896D02*
X526120D01*
X529168D02*
X547456D01*
X551520D02*
X563712D01*
X566760D02*
X602320D01*
X411820Y587118D02*
X420456D01*
X431124D02*
X437728D01*
X440776D02*
X448650D01*
X451698D02*
X458556D01*
X461604D02*
X464906D01*
X475574D02*
X478368D01*
X481416D02*
X485988D01*
X489544D02*
X492846D01*
X495894D02*
X501736D01*
X505292D02*
X508848D01*
X519516D02*
X526120D01*
X529168D02*
X547710D01*
X551266D02*
X563712D01*
X566760D02*
X602320D01*
X411820Y586864D02*
X420456D01*
X431124D02*
X437728D01*
X440776D02*
X448650D01*
X451698D02*
X458556D01*
X461604D02*
X464906D01*
X475574D02*
X478368D01*
X481416D02*
X486242D01*
X489798D02*
X492846D01*
X495894D02*
X501990D01*
X505292D02*
X508848D01*
X519516D02*
X526120D01*
X529168D02*
X547710D01*
X551266D02*
X563712D01*
X566760D02*
X602320D01*
X411820Y586610D02*
X420456D01*
X431124D02*
X437728D01*
X440776D02*
X448650D01*
X451698D02*
X458556D01*
X461604D02*
X464906D01*
X475574D02*
X478368D01*
X481416D02*
X486496D01*
X490052D02*
X492846D01*
X495894D02*
X502244D01*
X505292D02*
X508848D01*
X519516D02*
X526120D01*
X529168D02*
X547710D01*
X551266D02*
X563712D01*
X566760D02*
X602320D01*
X411820Y586356D02*
X420456D01*
X431124D02*
X437728D01*
X440776D02*
X448650D01*
X451698D02*
X458556D01*
X461604D02*
X464906D01*
X475574D02*
X478368D01*
X481416D02*
X486496D01*
X490052D02*
X492846D01*
X495894D02*
X502498D01*
X505292D02*
X508848D01*
X519516D02*
X526120D01*
X529168D02*
X547964D01*
X551012D02*
X563712D01*
X566760D02*
X602320D01*
X411820Y586102D02*
X420456D01*
X431124D02*
X437728D01*
X440776D02*
X448650D01*
X451698D02*
X458556D01*
X461604D02*
X464906D01*
X475574D02*
X478368D01*
X481416D02*
X486750D01*
X490306D02*
X492846D01*
X495894D02*
X502498D01*
X505292D02*
X508848D01*
X519516D02*
X526120D01*
X529168D02*
X547964D01*
X551012D02*
X563712D01*
X566760D02*
X602320D01*
X411820Y585848D02*
X420456D01*
X431124D02*
X437728D01*
X440776D02*
X448650D01*
X451698D02*
X458556D01*
X461604D02*
X464906D01*
X475574D02*
X478368D01*
X481416D02*
X487004D01*
X490306D02*
X492846D01*
X495894D02*
X502752D01*
X505292D02*
X508848D01*
X519516D02*
X526120D01*
X529168D02*
X548218D01*
X550758D02*
X563712D01*
X566760D02*
X602320D01*
X411820Y585594D02*
X420456D01*
X431124D02*
X437728D01*
X440776D02*
X448650D01*
X451698D02*
X458556D01*
X461604D02*
X464906D01*
X475574D02*
X478368D01*
X481416D02*
X487004D01*
X490560D02*
X492846D01*
X495894D02*
X503006D01*
X505292D02*
X508848D01*
X519516D02*
X526120D01*
X529168D02*
X548218D01*
X550758D02*
X563712D01*
X566760D02*
X602320D01*
X411820Y585340D02*
X420456D01*
X431124D02*
X437728D01*
X440776D02*
X448650D01*
X451698D02*
X458556D01*
X461604D02*
X464906D01*
X475574D02*
X478368D01*
X481416D02*
X487258D01*
X490814D02*
X492846D01*
X495894D02*
X503260D01*
X505292D02*
X508848D01*
X519516D02*
X526120D01*
X529168D02*
X548218D01*
X550758D02*
X563712D01*
X566760D02*
X602320D01*
X411820Y585086D02*
X420456D01*
X431124D02*
X437728D01*
X440776D02*
X448650D01*
X451698D02*
X458556D01*
X461604D02*
X464906D01*
X475574D02*
X478368D01*
X481416D02*
X487258D01*
X490814D02*
X492846D01*
X495894D02*
X503260D01*
X505292D02*
X508848D01*
X519516D02*
X526120D01*
X529168D02*
X548472D01*
X550504D02*
X563712D01*
X566760D02*
X602320D01*
X411820Y584832D02*
X420456D01*
X431124D02*
X437728D01*
X440776D02*
X448650D01*
X451698D02*
X458556D01*
X461604D02*
X464906D01*
X475574D02*
X478368D01*
X481416D02*
X487512D01*
X491068D02*
X492846D01*
X495894D02*
X503514D01*
X505292D02*
X508848D01*
X519516D02*
X526120D01*
X529168D02*
X548472D01*
X550504D02*
X563712D01*
X566760D02*
X602320D01*
X411820Y584578D02*
X420456D01*
X431124D02*
X437728D01*
X440776D02*
X448650D01*
X451698D02*
X458556D01*
X461604D02*
X464906D01*
X475574D02*
X478368D01*
X481416D02*
X487766D01*
X491322D02*
X492846D01*
X495894D02*
X503768D01*
X505292D02*
X508848D01*
X519516D02*
X526120D01*
X529168D02*
X548472D01*
X550504D02*
X563712D01*
X566760D02*
X602320D01*
X411820Y584324D02*
X504022D01*
X505292D02*
X548726D01*
X550250D02*
X602320D01*
X411820Y584070D02*
X602320D01*
X411820Y583816D02*
X602320D01*
X411820Y583562D02*
X602320D01*
X411820Y583308D02*
X602320D01*
X411820Y583054D02*
X602320D01*
X411820Y582800D02*
X602320D01*
X411820Y582546D02*
X602320D01*
X411820Y582292D02*
X602320D01*
X411820Y582038D02*
X602320D01*
X411820Y581784D02*
X602320D01*
X411820Y581530D02*
X602320D01*
X411820Y581276D02*
X602320D01*
X411820Y581022D02*
X602320D01*
X411820Y580768D02*
X602320D01*
X411820Y580514D02*
X602320D01*
X411820Y580260D02*
X602320D01*
X411820Y580006D02*
X602320D01*
X411820Y579752D02*
X602320D01*
X411820Y579498D02*
X602320D01*
X411820Y579244D02*
X602320D01*
X411820Y578990D02*
X602320D01*
X411820Y578736D02*
X602320D01*
X411820Y578482D02*
X602320D01*
X411820Y578228D02*
X602320D01*
X411820Y577974D02*
X602320D01*
X411820Y577720D02*
X602320D01*
X411820Y577466D02*
X602320D01*
X411820Y577212D02*
X602320D01*
X411820Y576958D02*
X602320D01*
X411820Y576704D02*
X602320D01*
X411820Y576450D02*
X602320D01*
X411820Y576196D02*
X602320D01*
X411820Y575942D02*
X602320D01*
X411820Y575688D02*
X491830D01*
X494624D02*
X509356D01*
X512150D02*
X602320D01*
X457540Y575434D02*
X466430D01*
X471510D02*
X478622D01*
X487258D02*
X491068D01*
X495640D02*
X499196D01*
X501736D02*
X508340D01*
X513166D02*
X517230D01*
X518500D02*
X524342D01*
X526882D02*
X535772D01*
X541360D02*
X545678D01*
X548218D02*
X554822D01*
X557362D02*
X602320D01*
X457540Y575180D02*
X466430D01*
X472526D02*
X478622D01*
X487258D02*
X490560D01*
X496148D02*
X499196D01*
X501736D02*
X507578D01*
X513674D02*
X517230D01*
X518754D02*
X524342D01*
X526882D02*
X535772D01*
X542122D02*
X545932D01*
X548472D02*
X554568D01*
X557108D02*
X602320D01*
X457540Y574926D02*
X466430D01*
X473288D02*
X478622D01*
X487258D02*
X490306D01*
X496656D02*
X499196D01*
X501736D02*
X507070D01*
X514182D02*
X517230D01*
X519008D02*
X524342D01*
X526882D02*
X535772D01*
X542884D02*
X545932D01*
X548472D02*
X554568D01*
X557108D02*
X602320D01*
X457540Y574672D02*
X466430D01*
X473796D02*
X478622D01*
X487258D02*
X489798D01*
X496656D02*
X499196D01*
X501736D02*
X506562D01*
X514436D02*
X517230D01*
X519008D02*
X524342D01*
X526882D02*
X535772D01*
X543138D02*
X546186D01*
X548726D02*
X554314D01*
X556854D02*
X602320D01*
X457540Y574418D02*
X466430D01*
X474050D02*
X478622D01*
X487258D02*
X489544D01*
X496402D02*
X499196D01*
X501736D02*
X506308D01*
X514690D02*
X517230D01*
X519262D02*
X524342D01*
X526882D02*
X535772D01*
X543392D02*
X546440D01*
X548980D02*
X554060D01*
X556600D02*
X602320D01*
X457540Y574164D02*
X466430D01*
X474558D02*
X478622D01*
X487258D02*
X489544D01*
X496402D02*
X499196D01*
X501736D02*
X506054D01*
X514436D02*
X517230D01*
X519516D02*
X524342D01*
X526882D02*
X535772D01*
X543646D02*
X546440D01*
X548980D02*
X554060D01*
X556600D02*
X602320D01*
X457540Y573910D02*
X466430D01*
X474812D02*
X478622D01*
X487258D02*
X489290D01*
X496402D02*
X499196D01*
X501736D02*
X505800D01*
X514436D02*
X517230D01*
X519770D02*
X524342D01*
X526882D02*
X535772D01*
X543900D02*
X546694D01*
X549234D02*
X553806D01*
X556346D02*
X602320D01*
X457540Y573656D02*
X466430D01*
X475066D02*
X478622D01*
X487258D02*
X489036D01*
X492338D02*
X494116D01*
X496148D02*
X499196D01*
X501736D02*
X505546D01*
X509610D02*
X511642D01*
X514182D02*
X517230D01*
X519770D02*
X524342D01*
X526882D02*
X535772D01*
X544154D02*
X546694D01*
X549234D02*
X553806D01*
X556346D02*
X602320D01*
X457540Y573402D02*
X466430D01*
X468970D02*
X471256D01*
X475320D02*
X478622D01*
X481162D02*
X489036D01*
X491830D02*
X494878D01*
X496148D02*
X499196D01*
X501736D02*
X505292D01*
X508848D02*
X512404D01*
X514182D02*
X517230D01*
X520024D02*
X524342D01*
X526882D02*
X535772D01*
X538312D02*
X540852D01*
X544154D02*
X546948D01*
X549488D02*
X553552D01*
X556092D02*
X602320D01*
X457540Y573148D02*
X466430D01*
X468970D02*
X472018D01*
X475320D02*
X478622D01*
X481162D02*
X489036D01*
X491576D02*
X495386D01*
X496148D02*
X499196D01*
X501736D02*
X505038D01*
X508340D02*
X512912D01*
X513928D02*
X517230D01*
X520278D02*
X524342D01*
X526882D02*
X535772D01*
X538312D02*
X541360D01*
X544154D02*
X546948D01*
X549488D02*
X553552D01*
X556092D02*
X602320D01*
X457540Y572894D02*
X466430D01*
X468970D02*
X472526D01*
X475574D02*
X478622D01*
X481162D02*
X488782D01*
X491576D02*
X495640D01*
X495894D02*
X499196D01*
X501736D02*
X505038D01*
X508086D02*
X513166D01*
X513928D02*
X517230D01*
X520278D02*
X524342D01*
X526882D02*
X535772D01*
X538312D02*
X541614D01*
X544408D02*
X547202D01*
X549742D02*
X553298D01*
X555838D02*
X602320D01*
X457540Y572640D02*
X466430D01*
X468970D02*
X472780D01*
X475828D02*
X478622D01*
X481162D02*
X488782D01*
X491322D02*
X499196D01*
X501736D02*
X504784D01*
X507832D02*
X517230D01*
X520532D02*
X524342D01*
X526882D02*
X535772D01*
X538312D02*
X541614D01*
X544408D02*
X547456D01*
X549742D02*
X553298D01*
X555584D02*
X602320D01*
X457540Y572386D02*
X466430D01*
X468970D02*
X473034D01*
X475828D02*
X478622D01*
X481162D02*
X488782D01*
X491322D02*
X499196D01*
X501736D02*
X504530D01*
X507578D02*
X517230D01*
X520786D02*
X524342D01*
X526882D02*
X535772D01*
X538312D02*
X541868D01*
X544408D02*
X547456D01*
X549996D02*
X553044D01*
X555584D02*
X602320D01*
X457540Y572132D02*
X466430D01*
X468970D02*
X473288D01*
X476082D02*
X478622D01*
X481162D02*
X488782D01*
X491322D02*
X499196D01*
X501736D02*
X504530D01*
X507324D02*
X517230D01*
X520786D02*
X524342D01*
X526882D02*
X535772D01*
X538312D02*
X541868D01*
X544408D02*
X547710D01*
X550250D02*
X552790D01*
X555330D02*
X602320D01*
X457540Y571878D02*
X466430D01*
X468970D02*
X473542D01*
X476082D02*
X478622D01*
X481162D02*
X488782D01*
X491322D02*
X499196D01*
X501736D02*
X504276D01*
X507070D02*
X517230D01*
X521040D02*
X524342D01*
X526882D02*
X535772D01*
X538312D02*
X541868D01*
X544408D02*
X547710D01*
X550250D02*
X552790D01*
X555330D02*
X602320D01*
X457540Y571624D02*
X466430D01*
X468970D02*
X473542D01*
X476336D02*
X478622D01*
X481162D02*
X488782D01*
X491322D02*
X499196D01*
X501736D02*
X504276D01*
X507070D02*
X517230D01*
X521294D02*
X524342D01*
X526882D02*
X535772D01*
X538312D02*
X541868D01*
X544408D02*
X547964D01*
X550504D02*
X552536D01*
X555076D02*
X602320D01*
X457540Y571370D02*
X466430D01*
X468970D02*
X473796D01*
X476336D02*
X478622D01*
X481162D02*
X488782D01*
X491576D02*
X499196D01*
X501736D02*
X504276D01*
X506816D02*
X517230D01*
X521548D02*
X524342D01*
X526882D02*
X535772D01*
X538312D02*
X541868D01*
X544408D02*
X547964D01*
X550504D02*
X552536D01*
X555076D02*
X602320D01*
X457540Y571116D02*
X466430D01*
X468970D02*
X473796D01*
X476336D02*
X478622D01*
X481162D02*
X488782D01*
X491830D02*
X499196D01*
X501736D02*
X504022D01*
X506816D02*
X517230D01*
X521548D02*
X524342D01*
X526882D02*
X535772D01*
X538312D02*
X541614D01*
X544154D02*
X548218D01*
X550758D02*
X552282D01*
X554822D02*
X602320D01*
X457540Y570862D02*
X466430D01*
X468970D02*
X473796D01*
X476336D02*
X478622D01*
X481162D02*
X489036D01*
X492084D02*
X499196D01*
X501736D02*
X504022D01*
X506562D02*
X517230D01*
X521802D02*
X524342D01*
X526882D02*
X535772D01*
X538312D02*
X541614D01*
X544154D02*
X548218D01*
X550758D02*
X552282D01*
X554822D02*
X602320D01*
X457540Y570608D02*
X466430D01*
X468970D02*
X473796D01*
X476590D02*
X478622D01*
X481162D02*
X489036D01*
X492338D02*
X499196D01*
X501736D02*
X504022D01*
X506562D02*
X517230D01*
X522056D02*
X524342D01*
X526882D02*
X535772D01*
X538312D02*
X541106D01*
X543900D02*
X548472D01*
X551012D02*
X552028D01*
X554568D02*
X602320D01*
X457540Y570354D02*
X466430D01*
X468970D02*
X474050D01*
X476590D02*
X478622D01*
X481162D02*
X489036D01*
X492592D02*
X499196D01*
X501736D02*
X504022D01*
X506562D02*
X517230D01*
X522056D02*
X524342D01*
X526882D02*
X535772D01*
X538312D02*
X540598D01*
X543646D02*
X548726D01*
X551266D02*
X551774D01*
X554314D02*
X602320D01*
X457540Y570100D02*
X466430D01*
X468970D02*
X474050D01*
X476590D02*
X478622D01*
X485226D02*
X489290D01*
X493100D02*
X499196D01*
X501736D02*
X503768D01*
X506562D02*
X517230D01*
X519770D02*
X520024D01*
X522310D02*
X524342D01*
X526882D02*
X535772D01*
X543392D02*
X548726D01*
X551266D02*
X551774D01*
X554314D02*
X602320D01*
X457540Y569846D02*
X466430D01*
X468970D02*
X474050D01*
X476590D02*
X478622D01*
X485226D02*
X489544D01*
X493608D02*
X499196D01*
X501736D02*
X503768D01*
X506308D02*
X517230D01*
X519770D02*
X520278D01*
X522564D02*
X524342D01*
X526882D02*
X535772D01*
X543138D02*
X548980D01*
X554060D02*
X602320D01*
X457540Y569592D02*
X466430D01*
X468970D02*
X474050D01*
X476590D02*
X478622D01*
X485226D02*
X489544D01*
X494116D02*
X499196D01*
X501736D02*
X503768D01*
X506308D02*
X517230D01*
X519770D02*
X520278D01*
X522564D02*
X524342D01*
X526882D02*
X535772D01*
X542630D02*
X548980D01*
X554060D02*
X602320D01*
X457540Y569338D02*
X466430D01*
X468970D02*
X474050D01*
X476590D02*
X478622D01*
X485226D02*
X489798D01*
X494624D02*
X499196D01*
X501736D02*
X503768D01*
X506308D02*
X517230D01*
X519770D02*
X520532D01*
X522818D02*
X524342D01*
X526882D02*
X535772D01*
X543138D02*
X549234D01*
X553806D02*
X602320D01*
X457540Y569084D02*
X466430D01*
X468970D02*
X474050D01*
X476590D02*
X478622D01*
X485226D02*
X490052D01*
X494878D02*
X499196D01*
X501736D02*
X503768D01*
X506308D02*
X517230D01*
X519770D02*
X520786D01*
X523072D02*
X524342D01*
X526882D02*
X535772D01*
X543646D02*
X549234D01*
X553806D02*
X602320D01*
X457540Y568830D02*
X466430D01*
X468970D02*
X474050D01*
X476590D02*
X478622D01*
X485226D02*
X490560D01*
X495386D02*
X499196D01*
X501736D02*
X503768D01*
X506308D02*
X510880D01*
X515198D02*
X517230D01*
X519770D02*
X520786D01*
X523072D02*
X524342D01*
X526882D02*
X535772D01*
X543900D02*
X549488D01*
X553552D02*
X602320D01*
X457540Y568576D02*
X466430D01*
X468970D02*
X474050D01*
X476590D02*
X478622D01*
X485226D02*
X491068D01*
X495640D02*
X499196D01*
X501736D02*
X503768D01*
X506308D02*
X510880D01*
X515198D02*
X517230D01*
X519770D02*
X521040D01*
X523326D02*
X524342D01*
X526882D02*
X535772D01*
X544154D02*
X549742D01*
X553298D02*
X602320D01*
X457540Y568322D02*
X466430D01*
X468970D02*
X474050D01*
X476590D02*
X478622D01*
X485226D02*
X491322D01*
X495894D02*
X499196D01*
X501736D02*
X503768D01*
X506308D02*
X510880D01*
X515198D02*
X517230D01*
X519770D02*
X521294D01*
X523580D02*
X524342D01*
X526882D02*
X535772D01*
X538312D02*
X540852D01*
X544408D02*
X549742D01*
X553298D02*
X602320D01*
X457540Y568068D02*
X466430D01*
X468970D02*
X474050D01*
X476590D02*
X478622D01*
X481162D02*
X491830D01*
X496148D02*
X499196D01*
X501736D02*
X503768D01*
X506308D02*
X510880D01*
X515198D02*
X517230D01*
X519770D02*
X521548D01*
X523834D02*
X524342D01*
X526882D02*
X535772D01*
X538312D02*
X541614D01*
X544662D02*
X549996D01*
X553044D02*
X602320D01*
X457540Y567814D02*
X466430D01*
X468970D02*
X474050D01*
X476590D02*
X478622D01*
X481162D02*
X492338D01*
X496402D02*
X499196D01*
X501736D02*
X503768D01*
X506308D02*
X510880D01*
X515198D02*
X517230D01*
X519770D02*
X521548D01*
X523834D02*
X524342D01*
X526882D02*
X535772D01*
X538312D02*
X542122D01*
X544662D02*
X549996D01*
X553044D02*
X602320D01*
X457540Y567560D02*
X466430D01*
X468970D02*
X474050D01*
X476590D02*
X478622D01*
X481162D02*
X492846D01*
X496656D02*
X499196D01*
X501736D02*
X503768D01*
X506308D02*
X510880D01*
X515198D02*
X517230D01*
X519770D02*
X521802D01*
X524088D02*
X524342D01*
X526882D02*
X535772D01*
X538312D02*
X542376D01*
X544916D02*
X550250D01*
X552790D02*
X602320D01*
X457540Y567306D02*
X466430D01*
X468970D02*
X473796D01*
X476336D02*
X478622D01*
X481162D02*
X493100D01*
X496656D02*
X499196D01*
X501736D02*
X503768D01*
X506308D02*
X510880D01*
X515198D02*
X517230D01*
X519770D02*
X522056D01*
X526882D02*
X535772D01*
X538312D02*
X542376D01*
X544916D02*
X550250D01*
X552790D02*
X602320D01*
X457540Y567052D02*
X466430D01*
X468970D02*
X473796D01*
X476336D02*
X478622D01*
X481162D02*
X493608D01*
X496910D02*
X499196D01*
X501736D02*
X503768D01*
X506562D02*
X510880D01*
X515198D02*
X517230D01*
X519770D02*
X522056D01*
X526882D02*
X535772D01*
X538312D02*
X542630D01*
X545170D02*
X550250D01*
X552790D02*
X602320D01*
X457540Y566798D02*
X466430D01*
X468970D02*
X473796D01*
X476336D02*
X478622D01*
X481162D02*
X493862D01*
X496910D02*
X499196D01*
X501736D02*
X504022D01*
X506562D02*
X512658D01*
X515198D02*
X517230D01*
X519770D02*
X522310D01*
X526882D02*
X535772D01*
X538312D02*
X542630D01*
X545170D02*
X550250D01*
X552790D02*
X602320D01*
X457540Y566544D02*
X466430D01*
X468970D02*
X473796D01*
X476336D02*
X478622D01*
X481162D02*
X494116D01*
X496910D02*
X499196D01*
X501736D02*
X504022D01*
X506562D02*
X512658D01*
X515198D02*
X517230D01*
X519770D02*
X522564D01*
X526882D02*
X535772D01*
X538312D02*
X542630D01*
X545170D02*
X550250D01*
X552790D02*
X602320D01*
X457540Y566290D02*
X466430D01*
X468970D02*
X473542D01*
X476336D02*
X478622D01*
X481162D02*
X494370D01*
X497164D02*
X499196D01*
X501736D02*
X504022D01*
X506562D02*
X512658D01*
X515198D02*
X517230D01*
X519770D02*
X522564D01*
X526882D02*
X535772D01*
X538312D02*
X542630D01*
X545170D02*
X550250D01*
X552790D02*
X602320D01*
X457540Y566036D02*
X466430D01*
X468970D02*
X473542D01*
X476082D02*
X478622D01*
X481162D02*
X494370D01*
X497164D02*
X499196D01*
X501736D02*
X504022D01*
X506816D02*
X512658D01*
X515198D02*
X517230D01*
X519770D02*
X522818D01*
X526882D02*
X535772D01*
X538312D02*
X542630D01*
X545170D02*
X550250D01*
X552790D02*
X602320D01*
X457540Y565782D02*
X466430D01*
X468970D02*
X473288D01*
X476082D02*
X478622D01*
X481162D02*
X494624D01*
X497164D02*
X499196D01*
X501736D02*
X504276D01*
X506816D02*
X512658D01*
X515198D02*
X517230D01*
X519770D02*
X523072D01*
X526882D02*
X535772D01*
X538312D02*
X542630D01*
X545170D02*
X550250D01*
X552790D02*
X602320D01*
X457540Y565528D02*
X466430D01*
X468970D02*
X473288D01*
X476082D02*
X478622D01*
X481162D02*
X494624D01*
X497164D02*
X499196D01*
X501736D02*
X504276D01*
X507070D02*
X512658D01*
X515198D02*
X517230D01*
X519770D02*
X523072D01*
X526882D02*
X535772D01*
X538312D02*
X542630D01*
X545170D02*
X550250D01*
X552790D02*
X602320D01*
X457540Y565274D02*
X466430D01*
X468970D02*
X473034D01*
X475828D02*
X478622D01*
X481162D02*
X494624D01*
X497164D02*
X499196D01*
X501736D02*
X504276D01*
X507324D02*
X512658D01*
X515198D02*
X517230D01*
X519770D02*
X523326D01*
X526882D02*
X535772D01*
X538312D02*
X542376D01*
X545170D02*
X550250D01*
X552790D02*
X602320D01*
X457540Y565020D02*
X466430D01*
X468970D02*
X472780D01*
X475828D02*
X478622D01*
X481162D02*
X494624D01*
X497164D02*
X499196D01*
X501736D02*
X504530D01*
X507324D02*
X512658D01*
X515198D02*
X517230D01*
X519770D02*
X523580D01*
X526882D02*
X535772D01*
X538312D02*
X542376D01*
X545170D02*
X550250D01*
X552790D02*
X602320D01*
X457540Y564766D02*
X466430D01*
X468970D02*
X472526D01*
X475574D02*
X478622D01*
X481162D02*
X494624D01*
X497164D02*
X499196D01*
X501736D02*
X504530D01*
X507578D02*
X512658D01*
X515198D02*
X517230D01*
X519770D02*
X523580D01*
X526882D02*
X535772D01*
X538312D02*
X542122D01*
X544916D02*
X550250D01*
X552790D02*
X602320D01*
X457540Y564512D02*
X466430D01*
X468970D02*
X472272D01*
X475574D02*
X478622D01*
X481162D02*
X489544D01*
X489798D02*
X494624D01*
X497164D02*
X499196D01*
X501736D02*
X504784D01*
X507832D02*
X512658D01*
X515198D02*
X517230D01*
X519770D02*
X523834D01*
X526882D02*
X535772D01*
X538312D02*
X542122D01*
X544916D02*
X550250D01*
X552790D02*
X602320D01*
X457540Y564258D02*
X466430D01*
X468970D02*
X472018D01*
X475320D02*
X478622D01*
X481162D02*
X489544D01*
X490306D02*
X494370D01*
X496910D02*
X499196D01*
X501736D02*
X505038D01*
X508340D02*
X512658D01*
X515198D02*
X517230D01*
X519770D02*
X524088D01*
X526882D02*
X535772D01*
X538312D02*
X541614D01*
X544916D02*
X550250D01*
X552790D02*
X602320D01*
X457540Y564004D02*
X466430D01*
X468970D02*
X471256D01*
X475066D02*
X478622D01*
X481162D02*
X489290D01*
X490814D02*
X494116D01*
X496910D02*
X499196D01*
X501736D02*
X505038D01*
X508594D02*
X512150D01*
X515198D02*
X517230D01*
X519770D02*
X524088D01*
X526882D02*
X535772D01*
X538312D02*
X540852D01*
X544662D02*
X550250D01*
X552790D02*
X602320D01*
X457540Y563750D02*
X466430D01*
X474812D02*
X478622D01*
X487258D02*
X489290D01*
X491576D02*
X493608D01*
X496656D02*
X499196D01*
X501736D02*
X505292D01*
X509356D02*
X511642D01*
X515198D02*
X517230D01*
X519770D02*
X524342D01*
X526882D02*
X535772D01*
X544408D02*
X550250D01*
X552790D02*
X602320D01*
X457540Y563496D02*
X466430D01*
X474558D02*
X478622D01*
X487258D02*
X489290D01*
X496656D02*
X499196D01*
X501736D02*
X505546D01*
X515198D02*
X517230D01*
X519770D02*
X524596D01*
X526882D02*
X535772D01*
X544408D02*
X550250D01*
X552790D02*
X602320D01*
X457540Y563242D02*
X466430D01*
X474304D02*
X478622D01*
X487258D02*
X489036D01*
X496402D02*
X499196D01*
X501736D02*
X505800D01*
X515198D02*
X517230D01*
X519770D02*
X524850D01*
X526882D02*
X535772D01*
X544154D02*
X550250D01*
X552790D02*
X602320D01*
X457540Y562988D02*
X466430D01*
X474050D02*
X478622D01*
X487258D02*
X489036D01*
X496148D02*
X499196D01*
X501736D02*
X506054D01*
X515198D02*
X517230D01*
X519770D02*
X524850D01*
X526882D02*
X535772D01*
X543900D02*
X550250D01*
X552790D02*
X602320D01*
X457540Y562734D02*
X466430D01*
X473542D02*
X478622D01*
X487258D02*
X488782D01*
X495894D02*
X499196D01*
X501736D02*
X506308D01*
X514690D02*
X517230D01*
X519770D02*
X525104D01*
X526882D02*
X535772D01*
X543392D02*
X550250D01*
X552790D02*
X602320D01*
X457540Y562480D02*
X466430D01*
X473034D02*
X478622D01*
X487258D02*
X488782D01*
X495640D02*
X499196D01*
X501736D02*
X506816D01*
X514182D02*
X517230D01*
X519770D02*
X525358D01*
X526882D02*
X535772D01*
X542884D02*
X550250D01*
X552790D02*
X602320D01*
X457540Y562226D02*
X466430D01*
X472272D02*
X478622D01*
X487258D02*
X489290D01*
X495132D02*
X499196D01*
X501736D02*
X507324D01*
X513674D02*
X517230D01*
X519770D02*
X525358D01*
X526882D02*
X535772D01*
X542376D02*
X550250D01*
X552790D02*
X602320D01*
X457540Y561972D02*
X466430D01*
X471256D02*
X478622D01*
X487258D02*
X490052D01*
X494624D02*
X499196D01*
X501736D02*
X507832D01*
X512912D02*
X517230D01*
X519770D02*
X525612D01*
X526882D02*
X535772D01*
X541360D02*
X550250D01*
X552790D02*
X602320D01*
X457540Y561718D02*
X490814D01*
X493608D02*
X508848D01*
X511896D02*
X525866D01*
X526882D02*
X602320D01*
X457540Y561464D02*
X602320D01*
X457540Y561210D02*
X602320D01*
X457540Y560956D02*
X602320D01*
X457540Y560702D02*
X602320D01*
X457540Y560448D02*
X602320D01*
X457540Y560194D02*
X602320D01*
X457540Y559940D02*
X602320D01*
X457540Y559686D02*
X602320D01*
X457540Y559432D02*
X602320D01*
X457540Y559178D02*
X602320D01*
X457540Y558924D02*
X602320D01*
X457540Y558670D02*
X602320D01*
X457540Y558416D02*
X602320D01*
X457540Y558162D02*
X602320D01*
X457540Y557908D02*
X602320D01*
X457540Y557654D02*
X602320D01*
X457540Y557400D02*
X602320D01*
X457540Y557146D02*
X602320D01*
X457540Y556892D02*
X602320D01*
X457540Y556638D02*
X602320D01*
X457540Y556384D02*
X602320D01*
X457540Y556130D02*
X602320D01*
X457540Y555876D02*
X602320D01*
X457540Y555622D02*
X602320D01*
X457540Y555368D02*
X602320D01*
X457540Y555114D02*
X602320D01*
X457540Y554860D02*
X512150D01*
X514944D02*
X523326D01*
X526120D02*
X602320D01*
X457540Y554606D02*
X466430D01*
X472018D02*
X477860D01*
X480400D02*
X487004D01*
X488020D02*
X495132D01*
X496402D02*
X502244D01*
X504784D02*
X511134D01*
X515960D02*
X522564D01*
X527136D02*
X602320D01*
X457540Y554352D02*
X466430D01*
X472780D02*
X477860D01*
X480400D02*
X486750D01*
X488274D02*
X495132D01*
X496656D02*
X502244D01*
X504784D02*
X510626D01*
X516468D02*
X522056D01*
X527644D02*
X602320D01*
X457540Y554098D02*
X466430D01*
X473542D02*
X477860D01*
X480400D02*
X486750D01*
X488274D02*
X495132D01*
X496910D02*
X502244D01*
X504784D02*
X510118D01*
X516976D02*
X521548D01*
X528152D02*
X602320D01*
X457540Y553844D02*
X466430D01*
X473796D02*
X477860D01*
X480400D02*
X486750D01*
X488274D02*
X495132D01*
X496910D02*
X502244D01*
X504784D02*
X509864D01*
X517230D02*
X521294D01*
X528406D02*
X602320D01*
X457540Y553590D02*
X466430D01*
X474050D02*
X477860D01*
X480400D02*
X486496D01*
X488528D02*
X495132D01*
X497164D02*
X502244D01*
X504784D02*
X509610D01*
X516976D02*
X521040D01*
X528660D02*
X602320D01*
X457540Y553336D02*
X466430D01*
X474304D02*
X477860D01*
X480400D02*
X486496D01*
X488528D02*
X495132D01*
X497418D02*
X502244D01*
X504784D02*
X509356D01*
X516976D02*
X520786D01*
X528914D02*
X602320D01*
X457540Y553082D02*
X466430D01*
X474558D02*
X477860D01*
X480400D02*
X486242D01*
X488782D02*
X495132D01*
X497672D02*
X502244D01*
X504784D02*
X509102D01*
X516722D02*
X520532D01*
X529168D02*
X602320D01*
X457540Y552828D02*
X466430D01*
X474812D02*
X477860D01*
X480400D02*
X486242D01*
X488782D02*
X495132D01*
X497672D02*
X502244D01*
X504784D02*
X508848D01*
X512658D02*
X514690D01*
X516722D02*
X520278D01*
X523834D02*
X525612D01*
X529422D02*
X602320D01*
X457540Y552574D02*
X466430D01*
X468970D02*
X471510D01*
X474812D02*
X477860D01*
X480400D02*
X486242D01*
X488782D02*
X495132D01*
X497926D02*
X502244D01*
X504784D02*
X508594D01*
X511896D02*
X515452D01*
X516468D02*
X520024D01*
X523072D02*
X526374D01*
X529676D02*
X602320D01*
X457540Y552320D02*
X466430D01*
X468970D02*
X472018D01*
X474812D02*
X477860D01*
X480400D02*
X485988D01*
X489036D02*
X495132D01*
X498180D02*
X502244D01*
X504784D02*
X508340D01*
X511642D02*
X515960D01*
X516468D02*
X520024D01*
X522818D02*
X526628D01*
X529676D02*
X602320D01*
X457540Y552066D02*
X466430D01*
X468970D02*
X472272D01*
X475066D02*
X477860D01*
X480400D02*
X485988D01*
X489036D02*
X495132D01*
X498180D02*
X502244D01*
X504784D02*
X508086D01*
X511134D02*
X519770D01*
X522564D02*
X526882D01*
X529930D02*
X602320D01*
X457540Y551812D02*
X466430D01*
X468970D02*
X472272D01*
X475066D02*
X477860D01*
X480400D02*
X485988D01*
X489036D02*
X495132D01*
X498434D02*
X502244D01*
X504784D02*
X508086D01*
X510880D02*
X519516D01*
X522310D02*
X527136D01*
X529930D02*
X602320D01*
X457540Y551558D02*
X466430D01*
X468970D02*
X472526D01*
X475066D02*
X477860D01*
X480400D02*
X485734D01*
X489290D02*
X495132D01*
X498688D02*
X502244D01*
X504784D02*
X507832D01*
X510880D02*
X519516D01*
X522056D02*
X527390D01*
X530184D02*
X602320D01*
X457540Y551304D02*
X466430D01*
X468970D02*
X472526D01*
X475066D02*
X477860D01*
X480400D02*
X485734D01*
X489290D02*
X495132D01*
X498688D02*
X502244D01*
X504784D02*
X507832D01*
X510626D02*
X519262D01*
X522056D02*
X527644D01*
X530184D02*
X602320D01*
X457540Y551050D02*
X466430D01*
X468970D02*
X472526D01*
X475066D02*
X477860D01*
X480400D02*
X485480D01*
X489544D02*
X495132D01*
X498942D02*
X502244D01*
X504784D02*
X507578D01*
X510372D02*
X519262D01*
X521802D02*
X527644D01*
X530184D02*
X602320D01*
X457540Y550796D02*
X466430D01*
X468970D02*
X472526D01*
X475066D02*
X477860D01*
X480400D02*
X485480D01*
X489544D02*
X495132D01*
X499196D02*
X502244D01*
X504784D02*
X507578D01*
X510372D02*
X519262D01*
X521802D02*
X527644D01*
X530438D02*
X602320D01*
X457540Y550542D02*
X466430D01*
X468970D02*
X472526D01*
X475066D02*
X477860D01*
X480400D02*
X485480D01*
X489544D02*
X495132D01*
X499450D02*
X502244D01*
X504784D02*
X507578D01*
X510118D02*
X519008D01*
X521548D02*
X527898D01*
X530438D02*
X602320D01*
X457540Y550288D02*
X466430D01*
X468970D02*
X472272D01*
X474812D02*
X477860D01*
X480400D02*
X485226D01*
X489798D02*
X495132D01*
X499450D02*
X502244D01*
X504784D02*
X507324D01*
X510118D02*
X519008D01*
X521548D02*
X527898D01*
X530438D02*
X602320D01*
X457540Y550034D02*
X466430D01*
X468970D02*
X472272D01*
X474812D02*
X477860D01*
X480400D02*
X485226D01*
X487258D02*
X487766D01*
X489798D02*
X495132D01*
X499704D02*
X502244D01*
X504784D02*
X507324D01*
X509864D02*
X519008D01*
X521548D02*
X527898D01*
X530438D02*
X602320D01*
X457540Y549780D02*
X466430D01*
X468970D02*
X471764D01*
X474558D02*
X477860D01*
X480400D02*
X484972D01*
X487258D02*
X487766D01*
X490052D02*
X495132D01*
X499958D02*
X502244D01*
X504784D02*
X507324D01*
X509864D02*
X519008D01*
X521548D02*
X527898D01*
X530438D02*
X602320D01*
X457540Y549526D02*
X466430D01*
X468970D02*
X471256D01*
X474304D02*
X477860D01*
X480400D02*
X484972D01*
X487258D02*
X487766D01*
X490052D02*
X495132D01*
X499958D02*
X502244D01*
X504784D02*
X507324D01*
X509864D02*
X518754D01*
X521294D02*
X528152D01*
X530692D02*
X602320D01*
X457540Y549272D02*
X466430D01*
X474050D02*
X477860D01*
X480400D02*
X484972D01*
X487004D02*
X488020D01*
X490052D02*
X495132D01*
X497672D02*
X497926D01*
X500212D02*
X502244D01*
X504784D02*
X507070D01*
X509864D02*
X518754D01*
X521294D02*
X528152D01*
X530692D02*
X602320D01*
X457540Y549018D02*
X466430D01*
X473796D02*
X477860D01*
X480400D02*
X484718D01*
X487004D02*
X488020D01*
X490306D02*
X495132D01*
X497672D02*
X498180D01*
X500466D02*
X502244D01*
X504784D02*
X507070D01*
X509610D02*
X518754D01*
X521294D02*
X528152D01*
X530692D02*
X602320D01*
X457540Y548764D02*
X466430D01*
X473288D02*
X477860D01*
X480400D02*
X484718D01*
X487004D02*
X488020D01*
X490306D02*
X495132D01*
X497672D02*
X498180D01*
X500466D02*
X502244D01*
X504784D02*
X507070D01*
X509610D02*
X518754D01*
X521294D02*
X528152D01*
X530692D02*
X602320D01*
X457540Y548510D02*
X466430D01*
X473796D02*
X477860D01*
X480400D02*
X484464D01*
X486750D02*
X488274D01*
X490560D02*
X495132D01*
X497672D02*
X498434D01*
X500720D02*
X502244D01*
X504784D02*
X507070D01*
X509610D02*
X518754D01*
X521294D02*
X528152D01*
X530692D02*
X602320D01*
X457540Y548256D02*
X466430D01*
X474304D02*
X477860D01*
X480400D02*
X484464D01*
X486750D02*
X488274D01*
X490560D02*
X495132D01*
X497672D02*
X498688D01*
X500974D02*
X502244D01*
X504784D02*
X507070D01*
X509610D02*
X518754D01*
X521294D02*
X528152D01*
X530692D02*
X602320D01*
X457540Y548002D02*
X466430D01*
X474558D02*
X477860D01*
X480400D02*
X484464D01*
X486750D02*
X488274D01*
X490560D02*
X495132D01*
X497672D02*
X498688D01*
X500974D02*
X502244D01*
X504784D02*
X507070D01*
X509610D02*
X518754D01*
X521294D02*
X528152D01*
X530692D02*
X602320D01*
X457540Y547748D02*
X466430D01*
X474812D02*
X477860D01*
X480400D02*
X484210D01*
X486496D02*
X488528D01*
X490814D02*
X495132D01*
X497672D02*
X498942D01*
X501228D02*
X502244D01*
X504784D02*
X507070D01*
X509610D02*
X518754D01*
X521294D02*
X528152D01*
X530692D02*
X602320D01*
X457540Y547494D02*
X466430D01*
X468970D02*
X471510D01*
X475066D02*
X477860D01*
X480400D02*
X484210D01*
X486496D02*
X488528D01*
X490814D02*
X495132D01*
X497672D02*
X499196D01*
X501482D02*
X502244D01*
X504784D02*
X507070D01*
X509610D02*
X518754D01*
X521294D02*
X528152D01*
X530692D02*
X602320D01*
X457540Y547240D02*
X466430D01*
X468970D02*
X472272D01*
X475320D02*
X477860D01*
X480400D02*
X484210D01*
X486496D02*
X488528D01*
X490814D02*
X495132D01*
X497672D02*
X499450D01*
X501736D02*
X502244D01*
X504784D02*
X507070D01*
X509610D02*
X518754D01*
X521294D02*
X528152D01*
X530692D02*
X602320D01*
X457540Y546986D02*
X466430D01*
X468970D02*
X472780D01*
X475320D02*
X477860D01*
X480400D02*
X483956D01*
X486242D02*
X488782D01*
X491068D02*
X495132D01*
X497672D02*
X499450D01*
X501736D02*
X502244D01*
X504784D02*
X507070D01*
X509610D02*
X518754D01*
X521294D02*
X528152D01*
X530692D02*
X602320D01*
X457540Y546732D02*
X466430D01*
X468970D02*
X473034D01*
X475574D02*
X477860D01*
X480400D02*
X483956D01*
X486242D02*
X488782D01*
X491068D02*
X495132D01*
X497672D02*
X499704D01*
X501990D02*
X502244D01*
X504784D02*
X507070D01*
X509610D02*
X518754D01*
X521294D02*
X528152D01*
X530692D02*
X602320D01*
X457540Y546478D02*
X466430D01*
X468970D02*
X473034D01*
X475574D02*
X477860D01*
X480400D02*
X483702D01*
X486242D02*
X488782D01*
X491322D02*
X495132D01*
X497672D02*
X499958D01*
X504784D02*
X507070D01*
X509610D02*
X518754D01*
X521294D02*
X528152D01*
X530692D02*
X602320D01*
X457540Y546224D02*
X466430D01*
X468970D02*
X473288D01*
X475828D02*
X477860D01*
X480400D02*
X483702D01*
X485988D02*
X489036D01*
X491322D02*
X495132D01*
X497672D02*
X499958D01*
X504784D02*
X507070D01*
X509864D02*
X518754D01*
X521294D02*
X527898D01*
X530438D02*
X602320D01*
X457540Y545970D02*
X466430D01*
X468970D02*
X473288D01*
X475828D02*
X477860D01*
X480400D02*
X483702D01*
X485988D02*
X489036D01*
X491322D02*
X495132D01*
X497672D02*
X500212D01*
X504784D02*
X507324D01*
X509864D02*
X519008D01*
X521548D02*
X527898D01*
X530438D02*
X602320D01*
X457540Y545716D02*
X466430D01*
X468970D02*
X473288D01*
X475828D02*
X477860D01*
X480400D02*
X483448D01*
X485988D02*
X489036D01*
X491576D02*
X495132D01*
X497672D02*
X500466D01*
X504784D02*
X507324D01*
X509864D02*
X519008D01*
X521548D02*
X527898D01*
X530438D02*
X602320D01*
X457540Y545462D02*
X466430D01*
X468970D02*
X473288D01*
X475828D02*
X477860D01*
X480400D02*
X483448D01*
X491576D02*
X495132D01*
X497672D02*
X500466D01*
X504784D02*
X507324D01*
X509864D02*
X519008D01*
X521548D02*
X527898D01*
X530438D02*
X602320D01*
X457540Y545208D02*
X466430D01*
X468970D02*
X473288D01*
X475828D02*
X477860D01*
X480400D02*
X483194D01*
X491830D02*
X495132D01*
X497672D02*
X500720D01*
X504784D02*
X507324D01*
X510118D02*
X519008D01*
X521548D02*
X527644D01*
X530438D02*
X602320D01*
X457540Y544954D02*
X466430D01*
X468970D02*
X473288D01*
X475828D02*
X477860D01*
X480400D02*
X483194D01*
X491830D02*
X495132D01*
X497672D02*
X500974D01*
X504784D02*
X507578D01*
X510118D02*
X519008D01*
X521802D02*
X527644D01*
X530184D02*
X602320D01*
X457540Y544700D02*
X466430D01*
X468970D02*
X473288D01*
X475828D02*
X477860D01*
X480400D02*
X483194D01*
X491830D02*
X495132D01*
X497672D02*
X500974D01*
X504784D02*
X507578D01*
X510372D02*
X519262D01*
X521802D02*
X527644D01*
X530184D02*
X602320D01*
X457540Y544446D02*
X466430D01*
X468970D02*
X473034D01*
X475828D02*
X477860D01*
X480400D02*
X482940D01*
X492084D02*
X495132D01*
X497672D02*
X501228D01*
X504784D02*
X507578D01*
X510372D02*
X519262D01*
X522056D02*
X527390D01*
X530184D02*
X602320D01*
X457540Y544192D02*
X466430D01*
X468970D02*
X473034D01*
X475828D02*
X477860D01*
X480400D02*
X482940D01*
X492084D02*
X495132D01*
X497672D02*
X501482D01*
X504784D02*
X507832D01*
X510626D02*
X516214D01*
X516468D02*
X519262D01*
X522056D02*
X527136D01*
X529930D02*
X602320D01*
X457540Y543938D02*
X466430D01*
X468970D02*
X472780D01*
X475574D02*
X477860D01*
X480400D02*
X482686D01*
X492338D02*
X495132D01*
X497672D02*
X501482D01*
X504784D02*
X507832D01*
X510880D02*
X516214D01*
X516468D02*
X519516D01*
X522310D02*
X527136D01*
X529930D02*
X602320D01*
X457540Y543684D02*
X466430D01*
X468970D02*
X472780D01*
X475574D02*
X477860D01*
X480400D02*
X482686D01*
X485226D02*
X489798D01*
X492338D02*
X495132D01*
X497672D02*
X501736D01*
X504784D02*
X508086D01*
X511134D02*
X515960D01*
X516722D02*
X519516D01*
X522310D02*
X526882D01*
X529676D02*
X602320D01*
X457540Y543430D02*
X466430D01*
X468970D02*
X472272D01*
X475574D02*
X477860D01*
X480400D02*
X482686D01*
X484972D02*
X490052D01*
X492338D02*
X495132D01*
X497672D02*
X501990D01*
X504784D02*
X508086D01*
X511388D02*
X515452D01*
X516722D02*
X519770D01*
X522564D02*
X526628D01*
X529676D02*
X602320D01*
X457540Y543176D02*
X466430D01*
X468970D02*
X471510D01*
X475320D02*
X477860D01*
X480400D02*
X482432D01*
X484972D02*
X490052D01*
X492592D02*
X495132D01*
X497672D02*
X501990D01*
X504784D02*
X508340D01*
X511642D02*
X515198D01*
X516976D02*
X519770D01*
X523072D02*
X526120D01*
X529422D02*
X602320D01*
X457540Y542922D02*
X466430D01*
X475066D02*
X477860D01*
X480400D02*
X482432D01*
X484972D02*
X490052D01*
X492592D02*
X495132D01*
X497672D02*
X502244D01*
X504784D02*
X508340D01*
X512404D02*
X514436D01*
X517230D02*
X520024D01*
X523580D02*
X525358D01*
X529168D02*
X602320D01*
X457540Y542668D02*
X466430D01*
X475066D02*
X477860D01*
X480400D02*
X482432D01*
X484718D02*
X490306D01*
X492592D02*
X495132D01*
X497672D02*
X502498D01*
X504784D02*
X508594D01*
X517230D02*
X520278D01*
X528914D02*
X602320D01*
X457540Y542414D02*
X466430D01*
X474812D02*
X477860D01*
X480400D02*
X482178D01*
X484718D02*
X490306D01*
X492846D02*
X495132D01*
X497672D02*
X502752D01*
X504784D02*
X508848D01*
X517484D02*
X520532D01*
X528914D02*
X602320D01*
X457540Y542160D02*
X466430D01*
X474558D02*
X477860D01*
X480400D02*
X482178D01*
X484718D02*
X490306D01*
X492846D02*
X495132D01*
X497672D02*
X502752D01*
X504784D02*
X509102D01*
X517230D02*
X520786D01*
X528406D02*
X602320D01*
X457540Y541906D02*
X466430D01*
X474050D02*
X477860D01*
X480400D02*
X481924D01*
X484464D02*
X490560D01*
X493100D02*
X495132D01*
X497672D02*
X503006D01*
X504784D02*
X509356D01*
X516976D02*
X521040D01*
X528152D02*
X602320D01*
X457540Y541652D02*
X466430D01*
X473542D02*
X477860D01*
X480400D02*
X481924D01*
X484464D02*
X490560D01*
X493100D02*
X495132D01*
X497672D02*
X503260D01*
X504784D02*
X509864D01*
X516722D02*
X521294D01*
X527898D02*
X602320D01*
X457540Y541398D02*
X466430D01*
X473034D02*
X477860D01*
X480400D02*
X481924D01*
X484464D02*
X490560D01*
X493100D02*
X495132D01*
X497672D02*
X503260D01*
X504784D02*
X510118D01*
X516214D02*
X521802D01*
X527390D02*
X602320D01*
X457540Y541144D02*
X466430D01*
X472018D02*
X477860D01*
X480400D02*
X481670D01*
X484210D02*
X490814D01*
X493354D02*
X495132D01*
X497672D02*
X503514D01*
X504784D02*
X510880D01*
X515706D02*
X522310D01*
X526882D02*
X602320D01*
X457540Y540890D02*
X503768D01*
X504784D02*
X511642D01*
X514690D02*
X523072D01*
X525866D02*
X602320D01*
X457540Y540636D02*
X602320D01*
X457540Y540382D02*
X602320D01*
X457540Y540128D02*
X602320D01*
X457540Y539874D02*
X602320D01*
X457540Y539620D02*
X602320D01*
X457540Y539366D02*
X602320D01*
X457540Y539112D02*
X602320D01*
X457540Y538858D02*
X602320D01*
X457540Y538604D02*
X602320D01*
X457540Y538350D02*
X602320D01*
X457540Y538096D02*
X602320D01*
X457540Y537842D02*
X602320D01*
X457540Y537588D02*
X602320D01*
X457540Y537334D02*
X602320D01*
X457540Y537080D02*
X602320D01*
X457540Y536826D02*
X602320D01*
X457540Y536572D02*
X602320D01*
X457540Y536318D02*
X602320D01*
X457540Y536064D02*
X602320D01*
X457540Y535810D02*
X602320D01*
X457540Y535556D02*
X602320D01*
X457540Y535302D02*
X602320D01*
X457540Y535048D02*
X602320D01*
X457540Y534794D02*
X602320D01*
X457540Y534540D02*
X602320D01*
X457540Y534286D02*
X553552D01*
X556346D02*
X602320D01*
X457540Y534032D02*
X466430D01*
X475320D02*
X481924D01*
X482940D02*
X490052D01*
X491322D02*
X497164D01*
X499704D02*
X502752D01*
X507832D02*
X514944D01*
X520532D02*
X526374D01*
X535010D02*
X537296D01*
X542376D02*
X552536D01*
X557362D02*
X561680D01*
X570316D02*
X572348D01*
X573618D02*
X579460D01*
X582000D02*
X602320D01*
X457540Y533778D02*
X466430D01*
X475320D02*
X481670D01*
X483194D02*
X490052D01*
X491576D02*
X497164D01*
X499704D02*
X502752D01*
X508848D02*
X514944D01*
X521294D02*
X526374D01*
X535010D02*
X537042D01*
X543392D02*
X551774D01*
X557870D02*
X561680D01*
X570316D02*
X572348D01*
X573872D02*
X579460D01*
X582000D02*
X602320D01*
X457540Y533524D02*
X466430D01*
X475320D02*
X481670D01*
X483194D02*
X490052D01*
X491830D02*
X497164D01*
X499704D02*
X502752D01*
X509610D02*
X514944D01*
X522056D02*
X526374D01*
X535010D02*
X537042D01*
X544154D02*
X551266D01*
X558378D02*
X561680D01*
X570316D02*
X572348D01*
X574126D02*
X579460D01*
X582000D02*
X602320D01*
X457540Y533270D02*
X466430D01*
X475320D02*
X481670D01*
X483194D02*
X490052D01*
X491830D02*
X497164D01*
X499704D02*
X502752D01*
X510118D02*
X514944D01*
X522310D02*
X526374D01*
X535010D02*
X537042D01*
X544408D02*
X550758D01*
X558632D02*
X561680D01*
X570316D02*
X572348D01*
X574126D02*
X579460D01*
X582000D02*
X602320D01*
X457540Y533016D02*
X466430D01*
X475066D02*
X481416D01*
X483448D02*
X490052D01*
X492084D02*
X497164D01*
X499704D02*
X502752D01*
X510372D02*
X514944D01*
X522564D02*
X526374D01*
X535010D02*
X537042D01*
X544916D02*
X550504D01*
X558886D02*
X561680D01*
X570316D02*
X572348D01*
X574380D02*
X579460D01*
X582000D02*
X602320D01*
X457540Y532762D02*
X466430D01*
X475066D02*
X481416D01*
X483448D02*
X490052D01*
X492338D02*
X497164D01*
X499704D02*
X502752D01*
X510880D02*
X514944D01*
X522818D02*
X526374D01*
X535010D02*
X537042D01*
X545170D02*
X550250D01*
X558632D02*
X561680D01*
X570316D02*
X572348D01*
X574634D02*
X579460D01*
X582000D02*
X602320D01*
X457540Y532508D02*
X466430D01*
X474812D02*
X481162D01*
X483702D02*
X490052D01*
X492592D02*
X497164D01*
X499704D02*
X502752D01*
X511134D02*
X514944D01*
X523072D02*
X526374D01*
X535010D02*
X537042D01*
X545170D02*
X549996D01*
X558632D02*
X561680D01*
X570316D02*
X572348D01*
X574888D02*
X579460D01*
X582000D02*
X602320D01*
X457540Y532254D02*
X466430D01*
X474812D02*
X481162D01*
X483702D02*
X490052D01*
X492592D02*
X497164D01*
X499704D02*
X502752D01*
X511388D02*
X514944D01*
X523326D02*
X526374D01*
X535010D02*
X537042D01*
X545424D02*
X549742D01*
X553806D02*
X555838D01*
X558378D02*
X561680D01*
X570316D02*
X572348D01*
X574888D02*
X579460D01*
X582000D02*
X602320D01*
X457540Y532000D02*
X472018D01*
X474558D02*
X481162D01*
X483702D02*
X490052D01*
X492846D02*
X497164D01*
X499704D02*
X502752D01*
X505292D02*
X507578D01*
X511642D02*
X514944D01*
X517484D02*
X520024D01*
X523326D02*
X526374D01*
X528914D02*
X537042D01*
X539582D02*
X541868D01*
X545678D02*
X549488D01*
X553044D02*
X556600D01*
X558378D02*
X561680D01*
X564220D02*
X572348D01*
X575142D02*
X579460D01*
X582000D02*
X602320D01*
X457540Y531746D02*
X471764D01*
X474558D02*
X480908D01*
X483956D02*
X490052D01*
X493100D02*
X497164D01*
X499704D02*
X502752D01*
X505292D02*
X508340D01*
X511642D02*
X514944D01*
X517484D02*
X520532D01*
X523326D02*
X526374D01*
X528914D02*
X537042D01*
X539582D02*
X542630D01*
X545678D02*
X549234D01*
X552536D02*
X557108D01*
X558124D02*
X561680D01*
X564220D02*
X572348D01*
X575396D02*
X579460D01*
X582000D02*
X602320D01*
X457540Y531492D02*
X471764D01*
X474304D02*
X480908D01*
X483956D02*
X490052D01*
X493100D02*
X497164D01*
X499704D02*
X502752D01*
X505292D02*
X508848D01*
X511896D02*
X514944D01*
X517484D02*
X520786D01*
X523580D02*
X526374D01*
X528914D02*
X537042D01*
X539582D02*
X542884D01*
X545678D02*
X549234D01*
X552282D02*
X557362D01*
X558124D02*
X561680D01*
X564220D02*
X572348D01*
X575396D02*
X579460D01*
X582000D02*
X602320D01*
X457540Y531238D02*
X471510D01*
X474304D02*
X480908D01*
X483956D02*
X490052D01*
X493354D02*
X497164D01*
X499704D02*
X502752D01*
X505292D02*
X509102D01*
X512150D02*
X514944D01*
X517484D02*
X520786D01*
X523580D02*
X526374D01*
X528914D02*
X537042D01*
X539582D02*
X543138D01*
X545932D02*
X548980D01*
X552028D02*
X561680D01*
X564220D02*
X572348D01*
X575650D02*
X579460D01*
X582000D02*
X602320D01*
X457540Y530984D02*
X471510D01*
X474050D02*
X480654D01*
X484210D02*
X490052D01*
X493608D02*
X497164D01*
X499704D02*
X502752D01*
X505292D02*
X509356D01*
X512150D02*
X514944D01*
X517484D02*
X521040D01*
X523580D02*
X526374D01*
X528914D02*
X537042D01*
X539582D02*
X543392D01*
X545932D02*
X548726D01*
X551774D02*
X561680D01*
X564220D02*
X572348D01*
X575904D02*
X579460D01*
X582000D02*
X602320D01*
X457540Y530730D02*
X471256D01*
X474050D02*
X480654D01*
X484210D02*
X490052D01*
X493608D02*
X497164D01*
X499704D02*
X502752D01*
X505292D02*
X509610D01*
X512404D02*
X514944D01*
X517484D02*
X521040D01*
X523580D02*
X526374D01*
X528914D02*
X537042D01*
X539582D02*
X543392D01*
X545932D02*
X548726D01*
X551520D02*
X561680D01*
X564220D02*
X572348D01*
X575904D02*
X579460D01*
X582000D02*
X602320D01*
X457540Y530476D02*
X471256D01*
X473796D02*
X480400D01*
X484464D02*
X490052D01*
X493862D02*
X497164D01*
X499704D02*
X502752D01*
X505292D02*
X509864D01*
X512404D02*
X514944D01*
X517484D02*
X521040D01*
X523580D02*
X526374D01*
X528914D02*
X537042D01*
X539582D02*
X543392D01*
X545932D02*
X548472D01*
X551266D02*
X561680D01*
X564220D02*
X572348D01*
X576158D02*
X579460D01*
X582000D02*
X602320D01*
X457540Y530222D02*
X471002D01*
X473796D02*
X480400D01*
X484464D02*
X490052D01*
X494116D02*
X497164D01*
X499704D02*
X502752D01*
X505292D02*
X509864D01*
X512658D02*
X514944D01*
X517484D02*
X521040D01*
X523580D02*
X526374D01*
X528914D02*
X537042D01*
X539582D02*
X543392D01*
X545932D02*
X548472D01*
X551266D02*
X561680D01*
X564220D02*
X572348D01*
X576412D02*
X579460D01*
X582000D02*
X602320D01*
X457540Y529968D02*
X471002D01*
X473542D02*
X480400D01*
X484464D02*
X490052D01*
X494370D02*
X497164D01*
X499704D02*
X502752D01*
X505292D02*
X510118D01*
X512658D02*
X514944D01*
X517484D02*
X521040D01*
X523580D02*
X526374D01*
X528914D02*
X537042D01*
X539582D02*
X543392D01*
X545932D02*
X548472D01*
X551012D02*
X561680D01*
X564220D02*
X572348D01*
X576666D02*
X579460D01*
X582000D02*
X602320D01*
X457540Y529714D02*
X470748D01*
X473542D02*
X480146D01*
X484718D02*
X490052D01*
X494370D02*
X497164D01*
X499704D02*
X502752D01*
X505292D02*
X510118D01*
X512658D02*
X514944D01*
X517484D02*
X520786D01*
X523326D02*
X526374D01*
X528914D02*
X537042D01*
X539582D02*
X543392D01*
X545932D02*
X548218D01*
X551012D02*
X561680D01*
X564220D02*
X572348D01*
X576666D02*
X579460D01*
X582000D02*
X602320D01*
X457540Y529460D02*
X470748D01*
X473288D02*
X480146D01*
X482178D02*
X482686D01*
X484718D02*
X490052D01*
X494624D02*
X497164D01*
X499704D02*
X502752D01*
X505292D02*
X510118D01*
X512658D02*
X514944D01*
X517484D02*
X520786D01*
X523326D02*
X526374D01*
X528914D02*
X537042D01*
X539582D02*
X543392D01*
X545932D02*
X548218D01*
X550758D02*
X561680D01*
X564220D02*
X572348D01*
X576920D02*
X579460D01*
X582000D02*
X602320D01*
X457540Y529206D02*
X470494D01*
X473288D02*
X479892D01*
X482178D02*
X482686D01*
X484972D02*
X490052D01*
X494878D02*
X497164D01*
X499704D02*
X502752D01*
X505292D02*
X510118D01*
X512912D02*
X514944D01*
X517484D02*
X520278D01*
X523072D02*
X526374D01*
X528914D02*
X537042D01*
X539582D02*
X543138D01*
X545932D02*
X548218D01*
X550758D02*
X561680D01*
X564220D02*
X572348D01*
X577174D02*
X579460D01*
X582000D02*
X602320D01*
X457540Y528952D02*
X470494D01*
X473034D02*
X479892D01*
X482178D02*
X482686D01*
X484972D02*
X490052D01*
X494878D02*
X497164D01*
X499704D02*
X502752D01*
X505292D02*
X510372D01*
X512912D02*
X514944D01*
X517484D02*
X519770D01*
X522818D02*
X526374D01*
X528914D02*
X537042D01*
X539582D02*
X543138D01*
X545678D02*
X548218D01*
X550758D02*
X561680D01*
X564220D02*
X572348D01*
X577174D02*
X579460D01*
X582000D02*
X602320D01*
X457540Y528698D02*
X470240D01*
X473034D02*
X479892D01*
X481924D02*
X482940D01*
X484972D02*
X490052D01*
X492592D02*
X492846D01*
X495132D02*
X497164D01*
X499704D02*
X502752D01*
X505292D02*
X510372D01*
X512912D02*
X514944D01*
X522564D02*
X526374D01*
X532978D02*
X537042D01*
X539582D02*
X542884D01*
X545678D02*
X547964D01*
X550758D02*
X561680D01*
X568284D02*
X572348D01*
X574888D02*
X575142D01*
X577428D02*
X579460D01*
X582000D02*
X602320D01*
X457540Y528444D02*
X470240D01*
X472780D02*
X479638D01*
X481924D02*
X482940D01*
X485226D02*
X490052D01*
X492592D02*
X493100D01*
X495386D02*
X497164D01*
X499704D02*
X502752D01*
X505292D02*
X510372D01*
X512912D02*
X514944D01*
X522310D02*
X526374D01*
X532978D02*
X537042D01*
X539582D02*
X542630D01*
X545424D02*
X547964D01*
X550504D02*
X561680D01*
X568284D02*
X572348D01*
X574888D02*
X575396D01*
X577682D02*
X579460D01*
X582000D02*
X602320D01*
X457540Y528190D02*
X469986D01*
X472780D02*
X479638D01*
X481924D02*
X482940D01*
X485226D02*
X490052D01*
X492592D02*
X493100D01*
X495386D02*
X497164D01*
X499704D02*
X502752D01*
X505292D02*
X510372D01*
X512912D02*
X514944D01*
X521802D02*
X526374D01*
X532978D02*
X537042D01*
X539582D02*
X541868D01*
X545424D02*
X547964D01*
X550504D02*
X561680D01*
X568284D02*
X572348D01*
X574888D02*
X575396D01*
X577682D02*
X579460D01*
X582000D02*
X602320D01*
X457540Y527936D02*
X469986D01*
X472526D02*
X479384D01*
X481670D02*
X483194D01*
X485480D02*
X490052D01*
X492592D02*
X493354D01*
X495640D02*
X497164D01*
X499704D02*
X502752D01*
X505292D02*
X510372D01*
X512912D02*
X514944D01*
X522310D02*
X526374D01*
X532978D02*
X537042D01*
X545170D02*
X547964D01*
X550504D02*
X561680D01*
X568284D02*
X572348D01*
X574888D02*
X575650D01*
X577936D02*
X579460D01*
X582000D02*
X602320D01*
X457540Y527682D02*
X469732D01*
X472526D02*
X479384D01*
X481670D02*
X483194D01*
X485480D02*
X490052D01*
X492592D02*
X493608D01*
X495894D02*
X497164D01*
X499704D02*
X502752D01*
X505292D02*
X510372D01*
X512912D02*
X514944D01*
X522818D02*
X526374D01*
X532978D02*
X537042D01*
X544916D02*
X547964D01*
X550504D02*
X561680D01*
X568284D02*
X572348D01*
X574888D02*
X575904D01*
X578190D02*
X579460D01*
X582000D02*
X602320D01*
X457540Y527428D02*
X469732D01*
X472272D02*
X479384D01*
X481670D02*
X483194D01*
X485480D02*
X490052D01*
X492592D02*
X493608D01*
X495894D02*
X497164D01*
X499704D02*
X502752D01*
X505292D02*
X510372D01*
X512912D02*
X514944D01*
X523072D02*
X526374D01*
X532978D02*
X537042D01*
X544916D02*
X547964D01*
X550504D02*
X555076D01*
X559394D02*
X561680D01*
X568284D02*
X572348D01*
X574888D02*
X575904D01*
X578190D02*
X579460D01*
X582000D02*
X602320D01*
X457540Y527174D02*
X469478D01*
X472018D02*
X479130D01*
X481416D02*
X483448D01*
X485734D02*
X490052D01*
X492592D02*
X493862D01*
X496148D02*
X497164D01*
X499704D02*
X502752D01*
X505292D02*
X510372D01*
X512912D02*
X514944D01*
X523326D02*
X526374D01*
X532978D02*
X537042D01*
X544408D02*
X547964D01*
X550504D02*
X555076D01*
X559394D02*
X561680D01*
X568284D02*
X572348D01*
X574888D02*
X576158D01*
X578444D02*
X579460D01*
X582000D02*
X602320D01*
X457540Y526920D02*
X469224D01*
X472018D02*
X479130D01*
X481416D02*
X483448D01*
X485734D02*
X490052D01*
X492592D02*
X494116D01*
X496402D02*
X497164D01*
X499704D02*
X502752D01*
X505292D02*
X510372D01*
X512912D02*
X514944D01*
X517484D02*
X520024D01*
X523580D02*
X526374D01*
X532978D02*
X537042D01*
X544154D02*
X547964D01*
X550504D02*
X555076D01*
X559394D02*
X561680D01*
X568284D02*
X572348D01*
X574888D02*
X576412D01*
X578698D02*
X579460D01*
X582000D02*
X602320D01*
X457540Y526666D02*
X469224D01*
X471764D02*
X479130D01*
X481416D02*
X483448D01*
X485734D02*
X490052D01*
X492592D02*
X494370D01*
X496656D02*
X497164D01*
X499704D02*
X502752D01*
X505292D02*
X510372D01*
X512912D02*
X514944D01*
X517484D02*
X520786D01*
X523834D02*
X526374D01*
X528914D02*
X537042D01*
X543646D02*
X547964D01*
X550504D02*
X555076D01*
X559394D02*
X561680D01*
X564220D02*
X572348D01*
X574888D02*
X576666D01*
X578952D02*
X579460D01*
X582000D02*
X602320D01*
X457540Y526412D02*
X468970D01*
X471764D02*
X478876D01*
X481162D02*
X483702D01*
X485988D02*
X490052D01*
X492592D02*
X494370D01*
X496656D02*
X497164D01*
X499704D02*
X502752D01*
X505292D02*
X510372D01*
X512912D02*
X514944D01*
X517484D02*
X521294D01*
X523834D02*
X526374D01*
X528914D02*
X537042D01*
X543646D02*
X547964D01*
X550504D02*
X555076D01*
X559394D02*
X561680D01*
X564220D02*
X572348D01*
X574888D02*
X576666D01*
X578952D02*
X579460D01*
X582000D02*
X602320D01*
X457540Y526158D02*
X468970D01*
X471510D02*
X478876D01*
X481162D02*
X483702D01*
X485988D02*
X490052D01*
X492592D02*
X494624D01*
X496910D02*
X497164D01*
X499704D02*
X502752D01*
X505292D02*
X510372D01*
X512912D02*
X514944D01*
X517484D02*
X521548D01*
X524088D02*
X526374D01*
X528914D02*
X537042D01*
X543646D02*
X547964D01*
X550504D02*
X555076D01*
X559394D02*
X561680D01*
X564220D02*
X572348D01*
X574888D02*
X576920D01*
X579206D02*
X579460D01*
X582000D02*
X602320D01*
X457540Y525904D02*
X468716D01*
X471510D02*
X478622D01*
X481162D02*
X483702D01*
X486242D02*
X490052D01*
X492592D02*
X494878D01*
X499704D02*
X502752D01*
X505292D02*
X510118D01*
X512658D02*
X514944D01*
X517484D02*
X521548D01*
X524088D02*
X526374D01*
X528914D02*
X537042D01*
X539582D02*
X541106D01*
X543900D02*
X547964D01*
X550504D02*
X555076D01*
X559394D02*
X561680D01*
X564220D02*
X572348D01*
X574888D02*
X577174D01*
X582000D02*
X602320D01*
X457540Y525650D02*
X468716D01*
X471256D02*
X478622D01*
X480908D02*
X483956D01*
X486242D02*
X490052D01*
X492592D02*
X494878D01*
X499704D02*
X502752D01*
X505292D02*
X510118D01*
X512658D02*
X514944D01*
X517484D02*
X521802D01*
X524342D02*
X526374D01*
X528914D02*
X537042D01*
X539582D02*
X541360D01*
X544154D02*
X547964D01*
X550758D02*
X555076D01*
X559394D02*
X561680D01*
X564220D02*
X572348D01*
X574888D02*
X577174D01*
X582000D02*
X602320D01*
X457540Y525396D02*
X468462D01*
X471256D02*
X478622D01*
X480908D02*
X483956D01*
X486242D02*
X490052D01*
X492592D02*
X495132D01*
X499704D02*
X502752D01*
X505292D02*
X510118D01*
X512658D02*
X514944D01*
X517484D02*
X521802D01*
X524342D02*
X526374D01*
X528914D02*
X537042D01*
X539582D02*
X541614D01*
X544154D02*
X548218D01*
X550758D02*
X556854D01*
X559394D02*
X561680D01*
X564220D02*
X572348D01*
X574888D02*
X577428D01*
X582000D02*
X602320D01*
X457540Y525142D02*
X468462D01*
X471002D02*
X478368D01*
X480908D02*
X483956D01*
X486496D02*
X490052D01*
X492592D02*
X495386D01*
X499704D02*
X502752D01*
X505292D02*
X510118D01*
X512658D02*
X514944D01*
X517484D02*
X521802D01*
X524342D02*
X526374D01*
X528914D02*
X537042D01*
X539582D02*
X541614D01*
X544408D02*
X548218D01*
X550758D02*
X556854D01*
X559394D02*
X561680D01*
X564220D02*
X572348D01*
X574888D02*
X577682D01*
X582000D02*
X602320D01*
X457540Y524888D02*
X468208D01*
X471002D02*
X478368D01*
X486496D02*
X490052D01*
X492592D02*
X495386D01*
X499704D02*
X502752D01*
X505292D02*
X509864D01*
X512658D02*
X514944D01*
X517484D02*
X521802D01*
X524342D02*
X526374D01*
X528914D02*
X537042D01*
X539582D02*
X541868D01*
X544662D02*
X548218D01*
X550758D02*
X556854D01*
X559394D02*
X561680D01*
X564220D02*
X572348D01*
X574888D02*
X577682D01*
X582000D02*
X602320D01*
X457540Y524634D02*
X468208D01*
X470748D02*
X478114D01*
X486750D02*
X490052D01*
X492592D02*
X495640D01*
X499704D02*
X502752D01*
X505292D02*
X509864D01*
X512404D02*
X514944D01*
X517484D02*
X521802D01*
X524342D02*
X526374D01*
X528914D02*
X537042D01*
X539582D02*
X541868D01*
X544662D02*
X548218D01*
X551012D02*
X556854D01*
X559394D02*
X561680D01*
X564220D02*
X572348D01*
X574888D02*
X577936D01*
X582000D02*
X602320D01*
X457540Y524380D02*
X467954D01*
X470748D02*
X478114D01*
X486750D02*
X490052D01*
X492592D02*
X495894D01*
X499704D02*
X502752D01*
X505292D02*
X509610D01*
X512404D02*
X514944D01*
X517484D02*
X521802D01*
X524342D02*
X526374D01*
X528914D02*
X537042D01*
X539582D02*
X542122D01*
X544916D02*
X548472D01*
X551012D02*
X556854D01*
X559394D02*
X561680D01*
X564220D02*
X572348D01*
X574888D02*
X578190D01*
X582000D02*
X602320D01*
X457540Y524126D02*
X467954D01*
X470494D02*
X478114D01*
X486750D02*
X490052D01*
X492592D02*
X495894D01*
X499704D02*
X502752D01*
X505292D02*
X509610D01*
X512404D02*
X514944D01*
X517484D02*
X521802D01*
X524342D02*
X526374D01*
X528914D02*
X537042D01*
X539582D02*
X542376D01*
X544916D02*
X548472D01*
X551266D02*
X556854D01*
X559394D02*
X561680D01*
X564220D02*
X572348D01*
X574888D02*
X578190D01*
X582000D02*
X602320D01*
X457540Y523872D02*
X467700D01*
X470494D02*
X477860D01*
X487004D02*
X490052D01*
X492592D02*
X496148D01*
X499704D02*
X502752D01*
X505292D02*
X509356D01*
X512150D02*
X514944D01*
X517484D02*
X521548D01*
X524342D02*
X526374D01*
X528914D02*
X537042D01*
X539582D02*
X542376D01*
X545170D02*
X548472D01*
X551520D02*
X556854D01*
X559394D02*
X561680D01*
X564220D02*
X572348D01*
X574888D02*
X578444D01*
X582000D02*
X602320D01*
X457540Y523618D02*
X467700D01*
X470240D02*
X477860D01*
X487004D02*
X490052D01*
X492592D02*
X496402D01*
X499704D02*
X502752D01*
X505292D02*
X509102D01*
X512150D02*
X514944D01*
X517484D02*
X521548D01*
X524342D02*
X526374D01*
X528914D02*
X537042D01*
X539582D02*
X542630D01*
X545424D02*
X548726D01*
X551520D02*
X556854D01*
X559394D02*
X561680D01*
X564220D02*
X572348D01*
X574888D02*
X578698D01*
X582000D02*
X602320D01*
X457540Y523364D02*
X467446D01*
X470240D02*
X477606D01*
X487258D02*
X490052D01*
X492592D02*
X496402D01*
X499704D02*
X502752D01*
X505292D02*
X508848D01*
X511896D02*
X514944D01*
X517484D02*
X521294D01*
X524088D02*
X526374D01*
X528914D02*
X537042D01*
X539582D02*
X542884D01*
X545424D02*
X548726D01*
X551774D02*
X556854D01*
X559394D02*
X561680D01*
X564220D02*
X572348D01*
X574888D02*
X578698D01*
X582000D02*
X602320D01*
X457540Y523110D02*
X467446D01*
X469986D02*
X477606D01*
X480146D02*
X484718D01*
X487258D02*
X490052D01*
X492592D02*
X496656D01*
X499704D02*
X502752D01*
X505292D02*
X508594D01*
X511896D02*
X514944D01*
X517484D02*
X521294D01*
X524088D02*
X526374D01*
X528914D02*
X537042D01*
X539582D02*
X542884D01*
X545678D02*
X548980D01*
X552028D02*
X556854D01*
X559394D02*
X561680D01*
X564220D02*
X572348D01*
X574888D02*
X578952D01*
X582000D02*
X602320D01*
X457540Y522856D02*
X467192D01*
X469986D02*
X477606D01*
X479892D02*
X484972D01*
X487258D02*
X490052D01*
X492592D02*
X496910D01*
X499704D02*
X502752D01*
X505292D02*
X508340D01*
X511642D02*
X514944D01*
X517484D02*
X520786D01*
X524088D02*
X526374D01*
X528914D02*
X537042D01*
X539582D02*
X543138D01*
X545932D02*
X549234D01*
X552536D02*
X556854D01*
X559394D02*
X561680D01*
X564220D02*
X572348D01*
X574888D02*
X579206D01*
X582000D02*
X602320D01*
X457540Y522602D02*
X467192D01*
X469732D02*
X477352D01*
X479892D02*
X484972D01*
X487512D02*
X490052D01*
X492592D02*
X496910D01*
X499704D02*
X502752D01*
X505292D02*
X507578D01*
X511388D02*
X514944D01*
X517484D02*
X520024D01*
X523834D02*
X526374D01*
X528914D02*
X537042D01*
X539582D02*
X543392D01*
X545932D02*
X549234D01*
X552790D02*
X556346D01*
X559394D02*
X561680D01*
X564220D02*
X572348D01*
X574888D02*
X579206D01*
X582000D02*
X602320D01*
X457540Y522348D02*
X466938D01*
X475574D02*
X477352D01*
X479892D02*
X484972D01*
X487512D02*
X490052D01*
X492592D02*
X497164D01*
X499704D02*
X502752D01*
X511134D02*
X514944D01*
X523580D02*
X526374D01*
X535010D02*
X537042D01*
X539582D02*
X543392D01*
X546186D02*
X549488D01*
X553552D02*
X555838D01*
X559394D02*
X561680D01*
X570316D02*
X572348D01*
X574888D02*
X579460D01*
X582000D02*
X602320D01*
X457540Y522094D02*
X466938D01*
X475574D02*
X477352D01*
X479638D02*
X485226D01*
X487512D02*
X490052D01*
X492592D02*
X497418D01*
X499704D02*
X502752D01*
X510880D02*
X514944D01*
X523580D02*
X526374D01*
X535010D02*
X537042D01*
X539582D02*
X543646D01*
X546440D02*
X549742D01*
X559394D02*
X561680D01*
X570316D02*
X572348D01*
X574888D02*
X579714D01*
X582000D02*
X602320D01*
X457540Y521840D02*
X466684D01*
X475574D02*
X477098D01*
X479638D02*
X485226D01*
X487766D02*
X490052D01*
X492592D02*
X497672D01*
X499704D02*
X502752D01*
X510626D02*
X514944D01*
X523326D02*
X526374D01*
X535010D02*
X537042D01*
X539582D02*
X543646D01*
X546440D02*
X549996D01*
X559394D02*
X561680D01*
X570316D02*
X572348D01*
X574888D02*
X579968D01*
X582000D02*
X602320D01*
X457540Y521586D02*
X466684D01*
X475574D02*
X477098D01*
X479638D02*
X485226D01*
X487766D02*
X490052D01*
X492592D02*
X497672D01*
X499704D02*
X502752D01*
X510372D02*
X514944D01*
X523072D02*
X526374D01*
X535010D02*
X537042D01*
X539582D02*
X543900D01*
X546694D02*
X550250D01*
X559394D02*
X561680D01*
X570316D02*
X572348D01*
X574888D02*
X579968D01*
X582000D02*
X602320D01*
X457540Y521332D02*
X466430D01*
X475574D02*
X476844D01*
X479384D02*
X485480D01*
X488020D02*
X490052D01*
X492592D02*
X497926D01*
X499704D02*
X502752D01*
X509864D02*
X514944D01*
X522564D02*
X526374D01*
X535010D02*
X537042D01*
X539582D02*
X544154D01*
X546948D02*
X550504D01*
X558886D02*
X561680D01*
X570316D02*
X572348D01*
X574888D02*
X580222D01*
X582000D02*
X602320D01*
X457540Y521078D02*
X466430D01*
X475574D02*
X476844D01*
X479384D02*
X485480D01*
X488020D02*
X490052D01*
X492592D02*
X498180D01*
X499704D02*
X502752D01*
X509356D02*
X514944D01*
X522056D02*
X526374D01*
X535010D02*
X537042D01*
X539582D02*
X544154D01*
X546948D02*
X551012D01*
X558378D02*
X561680D01*
X570316D02*
X572348D01*
X574888D02*
X580476D01*
X582000D02*
X602320D01*
X457540Y520824D02*
X466430D01*
X475574D02*
X476844D01*
X479384D02*
X485480D01*
X488020D02*
X490052D01*
X492592D02*
X498180D01*
X499704D02*
X502752D01*
X508594D02*
X514944D01*
X521548D02*
X526374D01*
X535010D02*
X537042D01*
X539582D02*
X544408D01*
X547202D02*
X551520D01*
X557870D02*
X561680D01*
X570316D02*
X572348D01*
X574888D02*
X580476D01*
X582000D02*
X602320D01*
X457540Y520570D02*
X466430D01*
X475574D02*
X476590D01*
X479130D02*
X485734D01*
X488274D02*
X490052D01*
X492592D02*
X498434D01*
X499704D02*
X502752D01*
X507578D02*
X514944D01*
X520532D02*
X526374D01*
X535010D02*
X537042D01*
X539582D02*
X544662D01*
X547456D02*
X552028D01*
X557108D02*
X561680D01*
X570316D02*
X572348D01*
X574888D02*
X580730D01*
X582000D02*
X602320D01*
X457540Y520316D02*
X498688D01*
X499704D02*
X553044D01*
X556092D02*
X580984D01*
X582000D02*
X602320D01*
X457540Y520062D02*
X602320D01*
X457540Y519808D02*
X602320D01*
X457540Y519554D02*
X602320D01*
X457540Y519300D02*
X602320D01*
X457540Y519046D02*
X602320D01*
X457540Y518792D02*
X602320D01*
X457540Y518538D02*
X602320D01*
X457540Y518284D02*
X602320D01*
X457540Y518030D02*
X602320D01*
X457540Y517776D02*
X602320D01*
X457540Y517522D02*
X602320D01*
X457540Y517268D02*
X602320D01*
X457540Y517014D02*
X602320D01*
X457540Y516760D02*
X602320D01*
X457540Y516506D02*
X602320D01*
X457540Y516252D02*
X602320D01*
X457540Y515998D02*
X602320D01*
X457540Y515744D02*
X602320D01*
X457540Y515490D02*
X602320D01*
X457540Y515236D02*
X602320D01*
X457540Y514982D02*
X602320D01*
X457540Y514728D02*
X602320D01*
X457540Y514474D02*
X602320D01*
X457540Y514220D02*
X602320D01*
X457540Y513966D02*
X602320D01*
X457540Y513712D02*
X602320D01*
X457540Y513458D02*
X602320D01*
D64*
X679800Y383700D02*
Y378702D01*
Y381201D01*
X694795D01*
X692296Y383700D01*
X682299Y371204D02*
X679800Y368705D01*
Y363707D01*
X682299Y361207D01*
X692296D01*
X694795Y363707D01*
Y368705D01*
X692296Y371204D01*
X689797D01*
X687298Y368705D01*
Y361207D01*
X705200Y373703D02*
Y383700D01*
X715197Y373703D01*
X717696D01*
X720195Y376202D01*
Y381201D01*
X717696Y383700D01*
Y368705D02*
X720195Y366206D01*
Y361207D01*
X717696Y358708D01*
X707699D01*
X705200Y361207D01*
Y366206D01*
X707699Y368705D01*
X717696D01*
X679800Y641298D02*
Y636300D01*
Y638799D01*
X694795D01*
X692296Y641298D01*
X705200Y636300D02*
Y646297D01*
X715197Y636300D01*
X717696D01*
X720195Y638799D01*
Y643798D01*
X717696Y646297D01*
D65*
X663500Y510000D02*
D03*
M02*
